<svg width="15" height="18" viewBox="0 0 15 18" fill="none" xmlns="http://www.w3.org/2000/svg">
<g style="mix-blend-mode:luminosity" clip-path="url(#clip0_58_1071)">
<path fill-rule="evenodd" clip-rule="evenodd" d="M4.22501 0.55076L2.02022 4.83215C1.89281 5.07959 1.64829 5.24895 1.36765 5.28416L-3.00811 5.83325C-3.29756 5.86958 -3.56165 6.01359 -3.74565 6.23546C-4.14131 6.71254 -4.06721 7.41347 -3.58014 7.80103L-2.31016 9.1717C-1.69597 9.66039 -0.479368 10.2269 0.303987 10.1175L3.55186 9.64462C3.5695 9.64216 3.63509 9.6298 3.73072 9.61178C4.15682 9.53149 5.17942 9.33882 5.21541 9.40817C5.26124 9.49647 4.27706 9.9181 3.83458 10.1077C3.72797 10.1533 3.65281 10.1855 3.63108 10.1963L1.09616 11.2998C0.173204 11.7594 -0.171811 12.8737 -0.319283 13.8775L-0.620804 15.9298C-0.652571 16.146 -0.615161 16.3666 -0.513727 16.5612C-0.242615 17.0813 0.407554 17.2875 0.938494 17.022L4.71102 15.1352C4.97809 15.0016 5.29522 15.0057 5.55865 15.146L9.19984 17.0854C9.41921 17.2024 9.67047 17.2488 9.91824 17.2183C10.572 17.138 11.0355 16.5537 10.9536 15.9133L10.3808 11.4402C10.3565 11.2507 10.424 11.0609 10.5631 10.9272L14.0095 7.61379C14.1848 7.44535 14.296 7.2234 14.3253 6.98461C14.3959 6.4048 13.9733 5.87864 13.3814 5.8094L9.02111 5.29937C8.63974 5.25475 8.30721 5.02446 8.13711 4.68718L6.0549 0.558257C5.95671 0.36354 5.79656 0.205355 5.59859 0.107547C5.09435 -0.141591 4.47937 0.0568431 4.22501 0.55076Z" fill="#FFECBF"/>
<mask id="mask0_58_1071" style="mask-type:alpha" maskUnits="userSpaceOnUse" x="-5" y="-1" width="20" height="19">
<path d="M4.98159 9.21562C4.98159 9.21562 4.9811 9.2161 4.97973 9.21717C4.98085 9.21618 4.98159 9.21562 4.98159 9.21562ZM3.75704 10.4861L3.76448 10.4828L3.77174 10.4792C3.77174 10.4792 3.77181 10.4792 3.77211 10.479C3.77371 10.4783 3.78046 10.4752 3.79535 10.4686C3.81137 10.4615 3.83247 10.4524 3.85845 10.4412C3.88746 10.4287 3.92099 10.4143 3.95874 10.3981C3.98924 10.3851 4.02249 10.3708 4.05835 10.3554C4.21703 10.2873 4.41923 10.1998 4.61679 10.1102C4.81271 10.0215 5.01077 9.92768 5.15856 9.84719C5.23029 9.80812 5.3026 9.76558 5.35852 9.72336C5.38398 9.70413 5.42474 9.67129 5.45908 9.62639C5.47743 9.60238 5.59198 9.44784 5.49576 9.26244C5.44772 9.16987 5.37143 9.12889 5.3381 9.11367C5.30012 9.09633 5.2657 9.0889 5.24537 9.0853C5.20368 9.07793 5.16265 9.07699 5.13283 9.07719C5.06961 9.07763 4.99277 9.0843 4.91446 9.09322C4.75484 9.11139 4.55021 9.14359 4.34979 9.17782C4.14807 9.21227 3.9453 9.24975 3.78778 9.27927C3.74422 9.28742 3.70616 9.2946 3.67206 9.30102C3.6423 9.30663 3.61555 9.31167 3.59079 9.31631C3.56544 9.32106 3.54494 9.32485 3.52951 9.32765C3.51728 9.32986 3.51101 9.33092 3.50875 9.3313C3.50815 9.33139 3.50775 9.33147 3.50775 9.33147L3.50611 9.33171L0.260064 9.80436L0.259211 9.80447C-0.0512867 9.84756 -0.489295 9.75692 -0.950663 9.57477C-1.39468 9.39948 -1.81555 9.1573 -2.09525 8.93868L-3.34848 7.58608L-3.36478 7.56848L-3.38354 7.55357C-3.73306 7.27545 -3.78434 6.7769 -3.50255 6.43711C-3.37054 6.27794 -3.17976 6.17322 -2.96896 6.14677L1.4068 5.59768C1.78892 5.54973 2.12494 5.31872 2.30104 4.97675L4.50583 0.695359C4.67957 0.357991 5.10558 0.216513 5.45837 0.390822C5.59573 0.458681 5.70554 0.56777 5.77246 0.700472L7.85468 4.82939C8.07353 5.26335 8.49944 5.5565 8.98417 5.6132L13.3444 6.12323C13.7684 6.17283 14.06 6.54629 14.0112 6.94624C13.991 7.112 13.9137 7.26722 13.7903 7.38581L10.3439 10.6992C10.1335 10.9015 10.0299 11.1903 10.0671 11.4802L10.6398 15.9534C10.6988 16.4141 10.3654 16.8447 9.8795 16.9045C9.6959 16.9271 9.51001 16.8925 9.34823 16.8063L5.70704 14.8669C5.35321 14.6784 4.928 14.673 4.56942 14.8524L0.796899 16.7392C0.417083 16.9291 -0.0439057 16.779 -0.23364 16.415C-0.304445 16.2791 -0.330333 16.1258 -0.308269 15.9756L-0.00676489 13.9233C0.139965 12.9246 0.468211 11.9701 1.2299 11.5861L3.75704 10.4861Z" fill="#FFECBF" stroke="#E6860D" stroke-width="0.632184"/>
</mask>
<g mask="url(#mask0_58_1071)">
<path fill-rule="evenodd" clip-rule="evenodd" d="M2.65352 6.09363L4.85831 1.81223C5.11267 1.31832 5.72764 1.11988 6.23189 1.36902C6.42986 1.46683 6.59 1.62502 6.6882 1.81973L8.77041 5.94864C8.94051 6.28594 9.27306 6.51623 9.6544 6.56084L14.0148 7.07087C14.6066 7.14011 15.0293 7.66628 14.9585 8.24609C14.9294 8.48488 14.8181 8.70682 14.6428 8.87527L11.1964 12.1886C11.0573 12.3224 10.9898 12.5122 11.0141 12.7017L11.5869 17.1749C11.6688 17.8153 11.2053 18.3994 10.5515 18.4799C10.3038 18.5102 10.0525 18.4638 9.83314 18.347L6.19195 16.4074C5.92852 16.2671 5.61138 16.2631 5.34433 16.3967L1.57181 18.2836C1.04087 18.5491 0.390683 18.3427 0.119571 17.8227C0.0181367 17.6282 -0.0192728 17.4075 0.0124946 17.1913L0.314015 15.139C0.461488 14.1352 0.806502 13.0208 1.72946 12.5613L4.26439 11.4578C4.37625 11.4021 5.24555 11.0157 5.18867 10.9061C5.14461 10.8212 4.28143 10.8926 4.18516 10.9061L0.937285 11.379C0.153946 11.4884 -1.06268 10.9219 -1.67686 10.4332L-2.94684 9.06249C-3.43391 8.67495 -3.50801 7.97401 -3.11235 7.49693C-2.92835 7.27507 -2.66426 7.13106 -2.37481 7.09472L2.00095 6.54564C2.28161 6.51043 2.5261 6.34107 2.65352 6.09363Z" fill="#FFC438"/>
</g>
<path d="M4.98208 9.21586C4.98208 9.21586 4.98159 9.21633 4.98022 9.21742C4.98134 9.21643 4.98208 9.21586 4.98208 9.21586ZM3.75753 10.4863L3.76497 10.4831L3.77222 10.4794C3.77222 10.4794 3.7723 10.4794 3.7726 10.4793C3.7742 10.4785 3.78095 10.4754 3.79584 10.4688C3.81185 10.4618 3.83296 10.4526 3.85894 10.4414C3.88795 10.4289 3.92147 10.4146 3.95922 10.3984C3.98973 10.3853 4.02298 10.3711 4.05884 10.3557C4.2175 10.2875 4.41972 10.2 4.61728 10.1105C4.81319 10.0217 5.01126 9.92792 5.15905 9.84744C5.23078 9.80837 5.30309 9.76581 5.35901 9.7236C5.38447 9.70438 5.42523 9.67154 5.45957 9.62662C5.47792 9.60263 5.59247 9.44809 5.49625 9.26269C5.44821 9.17011 5.37192 9.12914 5.33859 9.11392C5.30061 9.09658 5.26619 9.08914 5.24586 9.08555C5.20417 9.07817 5.16314 9.07724 5.13332 9.07744C5.0701 9.07789 4.99326 9.08456 4.91494 9.09347C4.75533 9.11164 4.5507 9.14382 4.35028 9.17806C4.14856 9.21251 3.94579 9.24998 3.78827 9.27951C3.74471 9.28768 3.70665 9.29484 3.67254 9.30127C3.64278 9.30688 3.61604 9.31192 3.59128 9.31655C3.56593 9.32129 3.54543 9.3251 3.53 9.32788C3.51777 9.3301 3.5115 9.33115 3.50924 9.33155C3.50864 9.33164 3.50824 9.33171 3.50824 9.33171L3.5066 9.33195L0.260554 9.8046L0.2597 9.80472C-0.0507969 9.84781 -0.488806 9.75717 -0.950173 9.57502C-1.39419 9.39972 -1.81506 9.15756 -2.09476 8.93893L-3.34799 7.58633L-3.36429 7.56874L-3.38305 7.5538C-3.73257 7.2757 -3.78385 6.77715 -3.50206 6.43736C-3.37005 6.27818 -3.17927 6.17346 -2.96847 6.14702L1.40729 5.59793C1.78941 5.54998 2.12543 5.31895 2.30153 4.977L4.50632 0.695603C4.68006 0.358235 5.10605 0.216757 5.45886 0.391066C5.5962 0.458926 5.70603 0.568014 5.77294 0.700716L7.85515 4.82963C8.07401 5.26359 8.49993 5.55675 8.98466 5.61344L13.345 6.12349C13.7689 6.17308 14.0605 6.54653 14.0117 6.94648C13.9916 7.11224 13.9142 7.26745 13.7907 7.38607L10.3443 10.6994C10.1339 10.9017 10.0304 11.1905 10.0676 11.4805L10.6403 15.9536C10.6993 16.4143 10.3659 16.845 9.87999 16.9047C9.69639 16.9273 9.51049 16.8927 9.34872 16.8066L5.70753 14.8671C5.3537 14.6787 4.92849 14.6733 4.56991 14.8526L0.797388 16.7394C0.417572 16.9294 -0.0434162 16.7792 -0.23315 16.4153C-0.303955 16.2793 -0.329843 16.126 -0.30778 15.9759L-0.00627556 13.9236C0.140454 12.9249 0.4687 11.9704 1.23039 11.5864L3.75753 10.4863Z" stroke="#E6860D" stroke-width="0.632184"/>
</g>
<defs>
<clipPath id="clip0_58_1071">
<rect width="18.3333" height="17.227" fill="white" transform="translate(-4)"/>
</clipPath>
</defs>
</svg>
