<svg width="172" height="191" viewBox="0 0 172 191" fill="none" xmlns="http://www.w3.org/2000/svg">
<g opacity="0.2" clip-path="url(#clip0_58_1054)">
<g style="mix-blend-mode:luminosity" clip-path="url(#clip1_58_1054)">
<path fill-rule="evenodd" clip-rule="evenodd" d="M145.225 19.5508L143.02 23.8322C142.893 24.0796 142.648 24.249 142.368 24.2842L137.992 24.8332C137.702 24.8696 137.438 25.0136 137.254 25.2355C136.859 25.7125 136.933 26.4135 137.42 26.801L138.69 28.1717C139.304 28.6604 140.521 29.2269 141.304 29.1175L144.552 28.6446C144.57 28.6422 144.635 28.6298 144.731 28.6118C145.157 28.5315 146.179 28.3388 146.215 28.4082C146.261 28.4965 145.277 28.9181 144.835 29.1077C144.728 29.1533 144.653 29.1855 144.631 29.1963L142.096 30.2998C141.173 30.7594 140.828 31.8737 140.681 32.8775L140.379 34.9298C140.347 35.146 140.385 35.3666 140.486 35.5612C140.757 36.0813 141.408 36.2875 141.938 36.022L145.711 34.1352C145.978 34.0016 146.295 34.0057 146.559 34.146L150.2 36.0854C150.419 36.2024 150.67 36.2488 150.918 36.2183C151.572 36.138 152.036 35.5537 151.954 34.9133L151.381 30.4402C151.357 30.2507 151.424 30.0609 151.563 29.9272L155.009 26.6138C155.185 26.4453 155.296 26.2234 155.325 25.9846C155.396 25.4048 154.973 24.8786 154.381 24.8094L150.021 24.2994C149.64 24.2548 149.307 24.0245 149.137 23.6872L147.055 19.5583C146.957 19.3635 146.797 19.2054 146.599 19.1075C146.094 18.8584 145.479 19.0568 145.225 19.5508Z" fill="#FFECBF"/>
<mask id="mask0_58_1054" style="mask-type:alpha" maskUnits="userSpaceOnUse" x="136" y="18" width="20" height="19">
<path d="M145.982 28.2156C145.982 28.2156 145.981 28.2161 145.98 28.2172C145.981 28.2162 145.982 28.2156 145.982 28.2156ZM144.757 29.4861L144.764 29.4828L144.772 29.4792C144.772 29.4792 144.772 29.4792 144.772 29.479C144.774 29.4783 144.78 29.4752 144.795 29.4686C144.811 29.4615 144.832 29.4524 144.858 29.4412C144.887 29.4287 144.921 29.4143 144.959 29.3981C144.989 29.3851 145.022 29.3708 145.058 29.3554C145.217 29.2873 145.419 29.1998 145.617 29.1102C145.813 29.0215 146.011 28.9277 146.159 28.8472C146.23 28.8081 146.303 28.7656 146.359 28.7234C146.384 28.7041 146.425 28.6713 146.459 28.6264C146.477 28.6024 146.592 28.4478 146.496 28.2624C146.448 28.1699 146.371 28.1289 146.338 28.1137C146.3 28.0963 146.266 28.0889 146.245 28.0853C146.204 28.0779 146.163 28.077 146.133 28.0772C146.07 28.0776 145.993 28.0843 145.914 28.0932C145.755 28.1114 145.55 28.1436 145.35 28.1778C145.148 28.2123 144.945 28.2497 144.788 28.2793C144.744 28.2874 144.706 28.2946 144.672 28.301C144.642 28.3066 144.616 28.3117 144.591 28.3163C144.565 28.3211 144.545 28.3248 144.53 28.3276C144.517 28.3299 144.511 28.3309 144.509 28.3313C144.508 28.3314 144.508 28.3315 144.508 28.3315L144.506 28.3317L141.26 28.8044L141.259 28.8045C140.949 28.8476 140.511 28.7569 140.049 28.5748C139.605 28.3995 139.184 28.1573 138.905 27.9387L137.652 26.5861L137.635 26.5685L137.616 26.5536C137.267 26.2755 137.216 25.7769 137.497 25.4371C137.629 25.2779 137.82 25.1732 138.031 25.1468L142.407 24.5977C142.789 24.5497 143.125 24.3187 143.301 23.9768L145.506 19.6954C145.68 19.358 146.106 19.2165 146.458 19.3908C146.596 19.4587 146.706 19.5678 146.772 19.7005L148.855 23.8294C149.074 24.2634 149.499 24.5565 149.984 24.6132L154.344 25.1232C154.768 25.1728 155.06 25.5463 155.011 25.9462C154.991 26.112 154.914 26.2672 154.79 26.3858L151.344 29.6992C151.133 29.9015 151.03 30.1903 151.067 30.4802L151.64 34.9534C151.699 35.4141 151.365 35.8447 150.88 35.9045C150.696 35.9271 150.51 35.8925 150.348 35.8063L146.707 33.8669C146.353 33.6784 145.928 33.673 145.569 33.8524L141.797 35.7392C141.417 35.9291 140.956 35.779 140.766 35.415C140.696 35.2791 140.67 35.1258 140.692 34.9756L140.993 32.9233C141.14 31.9246 141.468 30.9701 142.23 30.5861L144.757 29.4861Z" fill="#FFECBF" stroke="#E6860D" stroke-width="0.632184"/>
</mask>
<g mask="url(#mask0_58_1054)">
<path fill-rule="evenodd" clip-rule="evenodd" d="M143.654 25.0936L145.858 20.8122C146.113 20.3183 146.728 20.1199 147.232 20.369C147.43 20.4668 147.59 20.625 147.688 20.8197L149.77 24.9486C149.941 25.2859 150.273 25.5162 150.654 25.5608L155.015 26.0709C155.607 26.1401 156.029 26.6663 155.958 27.2461C155.929 27.4849 155.818 27.7068 155.643 27.8753L152.196 31.1886C152.057 31.3224 151.99 31.5122 152.014 31.7017L152.587 36.1749C152.669 36.8153 152.205 37.3994 151.552 37.4799C151.304 37.5102 151.053 37.4638 150.833 37.347L147.192 35.4074C146.929 35.2671 146.611 35.2631 146.344 35.3967L142.572 37.2836C142.041 37.5491 141.391 37.3427 141.12 36.8227C141.018 36.6282 140.981 36.4075 141.012 36.1913L141.314 34.139C141.461 33.1352 141.807 32.0208 142.729 31.5613L145.264 30.4578C145.376 30.4021 146.246 30.0157 146.189 29.9061C146.145 29.8212 145.281 29.8926 145.185 29.9061L141.937 30.379C141.154 30.4884 139.937 29.9219 139.323 29.4332L138.053 28.0625C137.566 27.6749 137.492 26.974 137.888 26.4969C138.072 26.2751 138.336 26.1311 138.625 26.0947L143.001 25.5456C143.282 25.5104 143.526 25.3411 143.654 25.0936Z" fill="#FFC438"/>
</g>
<path d="M145.982 28.2159C145.982 28.2159 145.982 28.2163 145.98 28.2174C145.981 28.2164 145.982 28.2159 145.982 28.2159ZM144.758 29.4863L144.765 29.4831L144.772 29.4794C144.772 29.4794 144.772 29.4794 144.773 29.4793C144.774 29.4785 144.781 29.4754 144.796 29.4688C144.812 29.4618 144.833 29.4526 144.859 29.4414C144.888 29.4289 144.921 29.4146 144.959 29.3984C144.99 29.3853 145.023 29.3711 145.059 29.3557C145.218 29.2875 145.42 29.2 145.617 29.1105C145.813 29.0217 146.011 28.9279 146.159 28.8474C146.231 28.8084 146.303 28.7658 146.359 28.7236C146.384 28.7044 146.425 28.6715 146.46 28.6266C146.478 28.6026 146.592 28.4481 146.496 28.2627C146.448 28.1701 146.372 28.1291 146.339 28.1139C146.301 28.0966 146.266 28.0891 146.246 28.0856C146.204 28.0782 146.163 28.0772 146.133 28.0774C146.07 28.0779 145.993 28.0846 145.915 28.0935C145.755 28.1116 145.551 28.1438 145.35 28.1781C145.149 28.2125 144.946 28.25 144.788 28.2795C144.745 28.2877 144.707 28.2948 144.673 28.3013C144.643 28.3069 144.616 28.3119 144.591 28.3166C144.566 28.3213 144.545 28.3251 144.53 28.3279C144.518 28.3301 144.511 28.3312 144.509 28.3315C144.509 28.3316 144.508 28.3317 144.508 28.3317L144.507 28.3319L141.261 28.8046L141.26 28.8047C140.949 28.8478 140.511 28.7572 140.05 28.575C139.606 28.3997 139.185 28.1576 138.905 27.9389L137.652 26.5863L137.636 26.5687L137.617 26.5538C137.267 26.2757 137.216 25.7771 137.498 25.4374C137.63 25.2782 137.821 25.1735 138.032 25.147L142.407 24.5979C142.789 24.55 143.125 24.319 143.302 23.977L145.506 19.6956C145.68 19.3582 146.106 19.2168 146.459 19.3911C146.596 19.4589 146.706 19.568 146.773 19.7007L148.855 23.8296C149.074 24.2636 149.5 24.5567 149.985 24.6134L154.345 25.1235C154.769 25.1731 155.061 25.5465 155.012 25.9465C154.992 26.1122 154.914 26.2675 154.791 26.3861L151.344 29.6994C151.134 29.9017 151.03 30.1905 151.068 30.4805L151.64 34.9536C151.699 35.4143 151.366 35.845 150.88 35.9047C150.696 35.9273 150.51 35.8927 150.349 35.8066L146.708 33.8671C146.354 33.6787 145.928 33.6733 145.57 33.8526L141.797 35.7394C141.418 35.9294 140.957 35.7792 140.767 35.4153C140.696 35.2793 140.67 35.126 140.692 34.9759L140.994 32.9236C141.14 31.9249 141.469 30.9704 142.23 30.5864L144.758 29.4863Z" stroke="#E6860D" stroke-width="0.632184"/>
</g>
<g style="mix-blend-mode:luminosity" clip-path="url(#clip2_58_1054)">
<path fill-rule="evenodd" clip-rule="evenodd" d="M46.225 8.55076L44.0202 12.8322C43.8928 13.0796 43.6483 13.249 43.3677 13.2842L38.9919 13.8332C38.7024 13.8696 38.4383 14.0136 38.2543 14.2355C37.8587 14.7125 37.9328 15.4135 38.4199 15.801L39.6898 17.1717C40.304 17.6604 41.5206 18.2269 42.304 18.1175L45.5519 17.6446C45.5695 17.6422 45.6351 17.6298 45.7307 17.6118C46.1568 17.5315 47.1794 17.3388 47.2154 17.4082C47.2612 17.4965 46.2771 17.9181 45.8346 18.1077C45.728 18.1533 45.6528 18.1855 45.6311 18.1963L43.0962 19.2998C42.1732 19.7594 41.8282 20.8737 41.6807 21.8775L41.3792 23.9298C41.3474 24.146 41.3848 24.3666 41.4863 24.5612C41.7574 25.0813 42.4076 25.2875 42.9385 25.022L46.711 23.1352C46.9781 23.0016 47.2952 23.0057 47.5587 23.146L51.1998 25.0854C51.4192 25.2024 51.6705 25.2488 51.9182 25.2183C52.572 25.138 53.0355 24.5537 52.9536 23.9133L52.3808 19.4402C52.3565 19.2507 52.424 19.0609 52.5631 18.9272L56.0095 15.6138C56.1848 15.4453 56.296 15.2234 56.3253 14.9846C56.3959 14.4048 55.9733 13.8786 55.3814 13.8094L51.0211 13.2994C50.6397 13.2548 50.3072 13.0245 50.1371 12.6872L48.0549 8.55826C47.9567 8.36354 47.7966 8.20535 47.5986 8.10755C47.0943 7.85841 46.4794 8.05684 46.225 8.55076Z" fill="#FFECBF"/>
<mask id="mask1_58_1054" style="mask-type:alpha" maskUnits="userSpaceOnUse" x="37" y="7" width="20" height="19">
<path d="M46.9816 17.2156C46.9816 17.2156 46.9811 17.2161 46.9797 17.2172C46.9809 17.2162 46.9816 17.2156 46.9816 17.2156ZM45.757 18.4861L45.7645 18.4828L45.7717 18.4792C45.7717 18.4792 45.7718 18.4792 45.7721 18.479C45.7737 18.4783 45.7805 18.4752 45.7953 18.4686C45.8114 18.4615 45.8325 18.4524 45.8585 18.4412C45.8875 18.4287 45.921 18.4143 45.9587 18.3981C45.9892 18.3851 46.0225 18.3708 46.0584 18.3554C46.217 18.2873 46.4192 18.1998 46.6168 18.1102C46.8127 18.0215 47.0108 17.9277 47.1586 17.8472C47.2303 17.8081 47.3026 17.7656 47.3585 17.7234C47.384 17.7041 47.4247 17.6713 47.4591 17.6264C47.4774 17.6024 47.592 17.4478 47.4958 17.2624C47.4477 17.1699 47.3714 17.1289 47.3381 17.1137C47.3001 17.0963 47.2657 17.0889 47.2454 17.0853C47.2037 17.0779 47.1627 17.077 47.1328 17.0772C47.0696 17.0776 46.9928 17.0843 46.9145 17.0932C46.7548 17.1114 46.5502 17.1436 46.3498 17.1778C46.1481 17.2123 45.9453 17.2497 45.7878 17.2793C45.7442 17.2874 45.7062 17.2946 45.6721 17.301C45.6423 17.3066 45.6156 17.3117 45.5908 17.3163C45.5654 17.3211 45.5449 17.3248 45.5295 17.3276C45.5173 17.3299 45.511 17.3309 45.5087 17.3313C45.5081 17.3314 45.5078 17.3315 45.5078 17.3315L45.5061 17.3317L42.2601 17.8044L42.2592 17.8045C41.9487 17.8476 41.5107 17.7569 41.0493 17.5748C40.6053 17.3995 40.1844 17.1573 39.9048 16.9387L38.6515 15.5861L38.6352 15.5685L38.6165 15.5536C38.2669 15.2755 38.2157 14.7769 38.4974 14.4371C38.6295 14.2779 38.8202 14.1732 39.031 14.1468L43.4068 13.5977C43.7889 13.5497 44.1249 13.3187 44.301 12.9768L46.5058 8.69536C46.6796 8.35799 47.1056 8.21651 47.4584 8.39082C47.5957 8.45868 47.7055 8.56777 47.7725 8.70047L49.8547 12.8294C50.0735 13.2634 50.4994 13.5565 50.9842 13.6132L55.3444 14.1232C55.7684 14.1728 56.06 14.5463 56.0112 14.9462C55.991 15.112 55.9137 15.2672 55.7903 15.3858L52.3439 18.6992C52.1335 18.9015 52.0299 19.1903 52.0671 19.4802L52.6398 23.9534C52.6988 24.4141 52.3654 24.8447 51.8795 24.9045C51.6959 24.9271 51.51 24.8925 51.3482 24.8063L47.707 22.8669C47.3532 22.6784 46.928 22.673 46.5694 22.8524L42.7969 24.7392C42.4171 24.9291 41.9561 24.779 41.7664 24.415C41.6956 24.2791 41.6697 24.1258 41.6917 23.9756L41.9932 21.9233C42.14 20.9246 42.4682 19.9701 43.2299 19.5861L45.757 18.4861Z" fill="#FFECBF" stroke="#E6860D" stroke-width="0.632184"/>
</mask>
<g mask="url(#mask1_58_1054)">
<path fill-rule="evenodd" clip-rule="evenodd" d="M44.6535 14.0936L46.8583 9.81223C47.1127 9.31832 47.7276 9.11988 48.2319 9.36902C48.4299 9.46683 48.59 9.62502 48.6882 9.81973L50.7704 13.9486C50.9405 14.2859 51.2731 14.5162 51.6544 14.5608L56.0148 15.0709C56.6066 15.1401 57.0293 15.6663 56.9585 16.2461C56.9294 16.4849 56.8181 16.7068 56.6428 16.8753L53.1964 20.1886C53.0573 20.3224 52.9898 20.5122 53.0141 20.7017L53.5869 25.1749C53.6688 25.8153 53.2053 26.3994 52.5515 26.4799C52.3038 26.5102 52.0525 26.4638 51.8331 26.347L48.1919 24.4074C47.9285 24.2671 47.6114 24.2631 47.3443 24.3967L43.5718 26.2836C43.0409 26.5491 42.3907 26.3427 42.1196 25.8227C42.0181 25.6282 41.9807 25.4075 42.0125 25.1913L42.314 23.139C42.4615 22.1352 42.8065 21.0208 43.7295 20.5613L46.2644 19.4578C46.3763 19.4021 47.2456 19.0157 47.1887 18.9061C47.1446 18.8212 46.2814 18.8926 46.1852 18.9061L42.9373 19.379C42.1539 19.4884 40.9373 18.9219 40.3231 18.4332L39.0532 17.0625C38.5661 16.6749 38.492 15.974 38.8876 15.4969C39.0716 15.2751 39.3357 15.1311 39.6252 15.0947L44.001 14.5456C44.2816 14.5104 44.5261 14.3411 44.6535 14.0936Z" fill="#FFC438"/>
</g>
<path d="M46.9821 17.2159C46.9821 17.2159 46.9816 17.2163 46.9802 17.2174C46.9813 17.2164 46.9821 17.2159 46.9821 17.2159ZM45.7575 18.4863L45.765 18.4831L45.7722 18.4794C45.7722 18.4794 45.7723 18.4794 45.7726 18.4793C45.7742 18.4785 45.7809 18.4754 45.7958 18.4688C45.8118 18.4618 45.833 18.4526 45.8589 18.4414C45.8879 18.4289 45.9215 18.4146 45.9592 18.3984C45.9897 18.3853 46.023 18.3711 46.0588 18.3557C46.2175 18.2875 46.4197 18.2 46.6173 18.1105C46.8132 18.0217 47.0113 17.9279 47.159 17.8474C47.2308 17.8084 47.3031 17.7658 47.359 17.7236C47.3845 17.7044 47.4252 17.6715 47.4596 17.6266C47.4779 17.6026 47.5925 17.4481 47.4963 17.2627C47.4482 17.1701 47.3719 17.1291 47.3386 17.1139C47.3006 17.0966 47.2662 17.0891 47.2459 17.0856C47.2042 17.0782 47.1631 17.0772 47.1333 17.0774C47.0701 17.0779 46.9933 17.0846 46.9149 17.0935C46.7553 17.1116 46.5507 17.1438 46.3503 17.1781C46.1486 17.2125 45.9458 17.25 45.7883 17.2795C45.7447 17.2877 45.7067 17.2948 45.6725 17.3013C45.6428 17.3069 45.616 17.3119 45.5913 17.3166C45.5659 17.3213 45.5454 17.3251 45.53 17.3279C45.5178 17.3301 45.5115 17.3312 45.5092 17.3315C45.5086 17.3316 45.5082 17.3317 45.5082 17.3317L45.5066 17.3319L42.2606 17.8046L42.2597 17.8047C41.9492 17.8478 41.5112 17.7572 41.0498 17.575C40.6058 17.3997 40.1849 17.1576 39.9052 16.9389L38.652 15.5863L38.6357 15.5687L38.617 15.5538C38.2674 15.2757 38.2161 14.7771 38.4979 14.4374C38.63 14.2782 38.8207 14.1735 39.0315 14.147L43.4073 13.5979C43.7894 13.55 44.1254 13.319 44.3015 12.977L46.5063 8.6956C46.6801 8.35824 47.1061 8.21676 47.4589 8.39107C47.5962 8.45893 47.706 8.56801 47.7729 8.70072L49.8552 12.8296C50.074 13.2636 50.4999 13.5567 50.9847 13.6134L55.345 14.1235C55.7689 14.1731 56.0605 14.5465 56.0117 14.9465C55.9916 15.1122 55.9142 15.2675 55.7907 15.3861L52.3443 18.6994C52.1339 18.9017 52.0304 19.1905 52.0676 19.4805L52.6403 23.9536C52.6993 24.4143 52.3659 24.845 51.88 24.9047C51.6964 24.9273 51.5105 24.8927 51.3487 24.8066L47.7075 22.8671C47.3537 22.6787 46.9285 22.6733 46.5699 22.8526L42.7974 24.7394C42.4176 24.9294 41.9566 24.7792 41.7668 24.4153C41.696 24.2793 41.6702 24.126 41.6922 23.9759L41.9937 21.9236C42.1405 20.9249 42.4687 19.9704 43.2304 19.5864L45.7575 18.4863Z" stroke="#E6860D" stroke-width="0.632184"/>
</g>
<g style="mix-blend-mode:luminosity" clip-path="url(#clip3_58_1054)">
<path fill-rule="evenodd" clip-rule="evenodd" d="M4.22501 61.5508L2.02022 65.8322C1.89281 66.0796 1.64829 66.249 1.36765 66.2842L-3.00811 66.8332C-3.29756 66.8696 -3.56165 67.0136 -3.74565 67.2355C-4.14131 67.7125 -4.06721 68.4135 -3.58014 68.801L-2.31016 70.1717C-1.69597 70.6604 -0.479368 71.2269 0.303987 71.1175L3.55186 70.6446C3.5695 70.6422 3.63509 70.6298 3.73072 70.6118C4.15682 70.5315 5.17942 70.3388 5.21541 70.4082C5.26124 70.4965 4.27706 70.9181 3.83458 71.1077C3.72797 71.1533 3.65281 71.1855 3.63108 71.1963L1.09616 72.2998C0.173204 72.7594 -0.171811 73.8737 -0.319283 74.8775L-0.620804 76.9298C-0.652571 77.146 -0.615161 77.3666 -0.513727 77.5612C-0.242615 78.0813 0.407554 78.2875 0.938494 78.022L4.71102 76.1352C4.97809 76.0016 5.29522 76.0057 5.55865 76.146L9.19984 78.0854C9.41921 78.2024 9.67047 78.2488 9.91824 78.2183C10.572 78.138 11.0355 77.5537 10.9536 76.9133L10.3808 72.4402C10.3565 72.2507 10.424 72.0609 10.5631 71.9272L14.0095 68.6138C14.1848 68.4453 14.296 68.2234 14.3253 67.9846C14.3959 67.4048 13.9733 66.8786 13.3814 66.8094L9.02111 66.2994C8.63974 66.2548 8.30721 66.0245 8.13711 65.6872L6.0549 61.5583C5.95671 61.3635 5.79656 61.2054 5.59859 61.1075C5.09435 60.8584 4.47937 61.0568 4.22501 61.5508Z" fill="#FFECBF"/>
<mask id="mask2_58_1054" style="mask-type:alpha" maskUnits="userSpaceOnUse" x="-5" y="60" width="20" height="19">
<path d="M4.98159 70.2156C4.98159 70.2156 4.9811 70.2161 4.97973 70.2172C4.98085 70.2162 4.98159 70.2156 4.98159 70.2156ZM3.75704 71.4861L3.76448 71.4828L3.77174 71.4792C3.77174 71.4792 3.77181 71.4792 3.77211 71.479C3.77371 71.4783 3.78046 71.4752 3.79535 71.4686C3.81137 71.4615 3.83247 71.4524 3.85845 71.4412C3.88746 71.4287 3.92099 71.4143 3.95874 71.3981C3.98924 71.3851 4.02249 71.3708 4.05835 71.3554C4.21703 71.2873 4.41923 71.1998 4.61679 71.1102C4.81271 71.0215 5.01077 70.9277 5.15856 70.8472C5.23029 70.8081 5.3026 70.7656 5.35852 70.7234C5.38398 70.7041 5.42474 70.6713 5.45908 70.6264C5.47743 70.6024 5.59198 70.4478 5.49576 70.2624C5.44772 70.1699 5.37143 70.1289 5.3381 70.1137C5.30012 70.0963 5.2657 70.0889 5.24537 70.0853C5.20368 70.0779 5.16265 70.077 5.13283 70.0772C5.06961 70.0776 4.99277 70.0843 4.91446 70.0932C4.75484 70.1114 4.55021 70.1436 4.34979 70.1778C4.14807 70.2123 3.9453 70.2497 3.78778 70.2793C3.74422 70.2874 3.70616 70.2946 3.67206 70.301C3.6423 70.3066 3.61555 70.3117 3.59079 70.3163C3.56544 70.3211 3.54494 70.3248 3.52951 70.3276C3.51728 70.3299 3.51101 70.3309 3.50875 70.3313C3.50815 70.3314 3.50775 70.3315 3.50775 70.3315L3.50611 70.3317L0.260064 70.8044L0.259211 70.8045C-0.0512867 70.8476 -0.489295 70.7569 -0.950663 70.5748C-1.39468 70.3995 -1.81555 70.1573 -2.09525 69.9387L-3.34848 68.5861L-3.36478 68.5685L-3.38354 68.5536C-3.73306 68.2755 -3.78434 67.7769 -3.50255 67.4371C-3.37054 67.2779 -3.17976 67.1732 -2.96896 67.1468L1.4068 66.5977C1.78892 66.5497 2.12494 66.3187 2.30104 65.9768L4.50583 61.6954C4.67957 61.358 5.10558 61.2165 5.45837 61.3908C5.59573 61.4587 5.70554 61.5678 5.77246 61.7005L7.85468 65.8294C8.07353 66.2634 8.49944 66.5565 8.98417 66.6132L13.3444 67.1232C13.7684 67.1728 14.06 67.5463 14.0112 67.9462C13.991 68.112 13.9137 68.2672 13.7903 68.3858L10.3439 71.6992C10.1335 71.9015 10.0299 72.1903 10.0671 72.4802L10.6398 76.9534C10.6988 77.4141 10.3654 77.8447 9.8795 77.9045C9.6959 77.9271 9.51001 77.8925 9.34823 77.8063L5.70704 75.8669C5.35321 75.6784 4.928 75.673 4.56942 75.8524L0.796899 77.7392C0.417083 77.9291 -0.0439057 77.779 -0.23364 77.415C-0.304445 77.2791 -0.330333 77.1258 -0.308269 76.9756L-0.00676489 74.9233C0.139965 73.9246 0.468211 72.9701 1.2299 72.5861L3.75704 71.4861Z" fill="#FFECBF" stroke="#E6860D" stroke-width="0.632184"/>
</mask>
<g mask="url(#mask2_58_1054)">
<path fill-rule="evenodd" clip-rule="evenodd" d="M2.65352 67.0936L4.85831 62.8122C5.11267 62.3183 5.72764 62.1199 6.23189 62.369C6.42986 62.4668 6.59 62.625 6.6882 62.8197L8.77041 66.9486C8.94051 67.2859 9.27306 67.5162 9.6544 67.5608L14.0148 68.0709C14.6066 68.1401 15.0293 68.6663 14.9585 69.2461C14.9294 69.4849 14.8181 69.7068 14.6428 69.8753L11.1964 73.1886C11.0573 73.3224 10.9898 73.5122 11.0141 73.7017L11.5869 78.1749C11.6688 78.8153 11.2053 79.3994 10.5515 79.4799C10.3038 79.5102 10.0525 79.4638 9.83314 79.347L6.19195 77.4074C5.92852 77.2671 5.61138 77.2631 5.34433 77.3967L1.57181 79.2836C1.04087 79.5491 0.390683 79.3427 0.119571 78.8227C0.0181367 78.6282 -0.0192728 78.4075 0.0124946 78.1913L0.314015 76.139C0.461488 75.1352 0.806502 74.0208 1.72946 73.5613L4.26439 72.4578C4.37625 72.4021 5.24555 72.0157 5.18867 71.9061C5.14461 71.8212 4.28143 71.8926 4.18516 71.9061L0.937285 72.379C0.153946 72.4884 -1.06268 71.9219 -1.67686 71.4332L-2.94684 70.0625C-3.43391 69.6749 -3.50801 68.974 -3.11235 68.4969C-2.92835 68.2751 -2.66426 68.1311 -2.37481 68.0947L2.00095 67.5456C2.28161 67.5104 2.5261 67.3411 2.65352 67.0936Z" fill="#FFC438"/>
</g>
<path d="M4.98208 70.2159C4.98208 70.2159 4.98159 70.2163 4.98022 70.2174C4.98134 70.2164 4.98208 70.2159 4.98208 70.2159ZM3.75753 71.4863L3.76497 71.4831L3.77222 71.4794C3.77222 71.4794 3.7723 71.4794 3.7726 71.4793C3.7742 71.4785 3.78095 71.4754 3.79584 71.4688C3.81185 71.4618 3.83296 71.4526 3.85894 71.4414C3.88795 71.4289 3.92147 71.4146 3.95922 71.3984C3.98973 71.3853 4.02298 71.3711 4.05884 71.3557C4.2175 71.2875 4.41972 71.2 4.61728 71.1105C4.81319 71.0217 5.01126 70.9279 5.15905 70.8474C5.23078 70.8084 5.30309 70.7658 5.35901 70.7236C5.38447 70.7044 5.42523 70.6715 5.45957 70.6266C5.47792 70.6026 5.59247 70.4481 5.49625 70.2627C5.44821 70.1701 5.37192 70.1291 5.33859 70.1139C5.30061 70.0966 5.26619 70.0891 5.24586 70.0856C5.20417 70.0782 5.16314 70.0772 5.13332 70.0774C5.0701 70.0779 4.99326 70.0846 4.91494 70.0935C4.75533 70.1116 4.5507 70.1438 4.35028 70.1781C4.14856 70.2125 3.94579 70.25 3.78827 70.2795C3.74471 70.2877 3.70665 70.2948 3.67254 70.3013C3.64278 70.3069 3.61604 70.3119 3.59128 70.3166C3.56593 70.3213 3.54543 70.3251 3.53 70.3279C3.51777 70.3301 3.5115 70.3312 3.50924 70.3315C3.50864 70.3316 3.50824 70.3317 3.50824 70.3317L3.5066 70.3319L0.260554 70.8046L0.2597 70.8047C-0.0507969 70.8478 -0.488806 70.7572 -0.950173 70.575C-1.39419 70.3997 -1.81506 70.1576 -2.09476 69.9389L-3.34799 68.5863L-3.36429 68.5687L-3.38305 68.5538C-3.73257 68.2757 -3.78385 67.7771 -3.50206 67.4374C-3.37005 67.2782 -3.17927 67.1735 -2.96847 67.147L1.40729 66.5979C1.78941 66.55 2.12543 66.319 2.30153 65.977L4.50632 61.6956C4.68006 61.3582 5.10605 61.2168 5.45886 61.3911C5.5962 61.4589 5.70603 61.568 5.77294 61.7007L7.85515 65.8296C8.07401 66.2636 8.49993 66.5567 8.98466 66.6134L13.345 67.1235C13.7689 67.1731 14.0605 67.5465 14.0117 67.9465C13.9916 68.1122 13.9142 68.2675 13.7907 68.3861L10.3443 71.6994C10.1339 71.9017 10.0304 72.1905 10.0676 72.4805L10.6403 76.9536C10.6993 77.4143 10.3659 77.845 9.87999 77.9047C9.69639 77.9273 9.51049 77.8927 9.34872 77.8066L5.70753 75.8671C5.3537 75.6787 4.92849 75.6733 4.56991 75.8526L0.797388 77.7394C0.417572 77.9294 -0.0434162 77.7792 -0.23315 77.4153C-0.303955 77.2793 -0.329843 77.126 -0.30778 76.9759L-0.00627556 74.9236C0.140454 73.9249 0.4687 72.9704 1.23039 72.5864L3.75753 71.4863Z" stroke="#E6860D" stroke-width="0.632184"/>
</g>
<g style="mix-blend-mode:luminosity" clip-path="url(#clip4_58_1054)">
<path fill-rule="evenodd" clip-rule="evenodd" d="M61.225 99.5508L59.0202 103.832C58.8928 104.08 58.6483 104.249 58.3677 104.284L53.9919 104.833C53.7024 104.87 53.4383 105.014 53.2543 105.235C52.8587 105.713 52.9328 106.413 53.4199 106.801L54.6898 108.172C55.304 108.66 56.5206 109.227 57.304 109.118L60.5519 108.645C60.5695 108.642 60.6351 108.63 60.7307 108.612C61.1568 108.531 62.1794 108.339 62.2154 108.408C62.2612 108.496 61.2771 108.918 60.8346 109.108C60.728 109.153 60.6528 109.186 60.6311 109.196L58.0962 110.3C57.1732 110.759 56.8282 111.874 56.6807 112.878L56.3792 114.93C56.3474 115.146 56.3848 115.367 56.4863 115.561C56.7574 116.081 57.4076 116.288 57.9385 116.022L61.711 114.135C61.9781 114.002 62.2952 114.006 62.5587 114.146L66.1998 116.085C66.4192 116.202 66.6705 116.249 66.9182 116.218C67.572 116.138 68.0355 115.554 67.9536 114.913L67.3808 110.44C67.3565 110.251 67.424 110.061 67.5631 109.927L71.0095 106.614C71.1848 106.445 71.296 106.223 71.3253 105.985C71.3959 105.405 70.9733 104.879 70.3814 104.809L66.0211 104.299C65.6397 104.255 65.3072 104.024 65.1371 103.687L63.0549 99.5583C62.9567 99.3635 62.7966 99.2054 62.5986 99.1075C62.0943 98.8584 61.4794 99.0568 61.225 99.5508Z" fill="#FFECBF"/>
<mask id="mask3_58_1054" style="mask-type:alpha" maskUnits="userSpaceOnUse" x="52" y="98" width="20" height="19">
<path d="M61.9816 108.216C61.9816 108.216 61.9811 108.216 61.9797 108.217C61.9809 108.216 61.9816 108.216 61.9816 108.216ZM60.757 109.486L60.7645 109.483L60.7717 109.479C60.7717 109.479 60.7718 109.479 60.7721 109.479C60.7737 109.478 60.7805 109.475 60.7953 109.469C60.8114 109.462 60.8325 109.452 60.8585 109.441C60.8875 109.429 60.921 109.414 60.9587 109.398C60.9892 109.385 61.0225 109.371 61.0584 109.355C61.217 109.287 61.4192 109.2 61.6168 109.11C61.8127 109.021 62.0108 108.928 62.1586 108.847C62.2303 108.808 62.3026 108.766 62.3585 108.723C62.384 108.704 62.4247 108.671 62.4591 108.626C62.4774 108.602 62.592 108.448 62.4958 108.262C62.4477 108.17 62.3714 108.129 62.3381 108.114C62.3001 108.096 62.2657 108.089 62.2454 108.085C62.2037 108.078 62.1627 108.077 62.1328 108.077C62.0696 108.078 61.9928 108.084 61.9145 108.093C61.7548 108.111 61.5502 108.144 61.3498 108.178C61.1481 108.212 60.9453 108.25 60.7878 108.279C60.7442 108.287 60.7062 108.295 60.6721 108.301C60.6423 108.307 60.6156 108.312 60.5908 108.316C60.5654 108.321 60.5449 108.325 60.5295 108.328C60.5173 108.33 60.511 108.331 60.5087 108.331C60.5081 108.331 60.5078 108.331 60.5078 108.331L60.5061 108.332L57.2601 108.804L57.2592 108.804C56.9487 108.848 56.5107 108.757 56.0493 108.575C55.6053 108.399 55.1844 108.157 54.9048 107.939L53.6515 106.586L53.6352 106.568L53.6165 106.554C53.2669 106.275 53.2157 105.777 53.4974 105.437C53.6295 105.278 53.8202 105.173 54.031 105.147L58.4068 104.598C58.7889 104.55 59.1249 104.319 59.301 103.977L61.5058 99.6954C61.6796 99.358 62.1056 99.2165 62.4584 99.3908C62.5957 99.4587 62.7055 99.5678 62.7725 99.7005L64.8547 103.829C65.0735 104.263 65.4994 104.556 65.9842 104.613L70.3444 105.123C70.7684 105.173 71.06 105.546 71.0112 105.946C70.991 106.112 70.9137 106.267 70.7903 106.386L67.3439 109.699C67.1335 109.901 67.0299 110.19 67.0671 110.48L67.6398 114.953C67.6988 115.414 67.3654 115.845 66.8795 115.904C66.6959 115.927 66.51 115.892 66.3482 115.806L62.707 113.867C62.3532 113.678 61.928 113.673 61.5694 113.852L57.7969 115.739C57.4171 115.929 56.9561 115.779 56.7664 115.415C56.6956 115.279 56.6697 115.126 56.6917 114.976L56.9932 112.923C57.14 111.925 57.4682 110.97 58.2299 110.586L60.757 109.486Z" fill="#FFECBF" stroke="#E6860D" stroke-width="0.632184"/>
</mask>
<g mask="url(#mask3_58_1054)">
<path fill-rule="evenodd" clip-rule="evenodd" d="M59.6535 105.094L61.8583 100.812C62.1127 100.318 62.7276 100.12 63.2319 100.369C63.4299 100.467 63.59 100.625 63.6882 100.82L65.7704 104.949C65.9405 105.286 66.2731 105.516 66.6544 105.561L71.0148 106.071C71.6066 106.14 72.0293 106.666 71.9585 107.246C71.9294 107.485 71.8181 107.707 71.6428 107.875L68.1964 111.189C68.0573 111.322 67.9898 111.512 68.0141 111.702L68.5869 116.175C68.6688 116.815 68.2053 117.399 67.5515 117.48C67.3038 117.51 67.0525 117.464 66.8331 117.347L63.1919 115.407C62.9285 115.267 62.6114 115.263 62.3443 115.397L58.5718 117.284C58.0409 117.549 57.3907 117.343 57.1196 116.823C57.0181 116.628 56.9807 116.408 57.0125 116.191L57.314 114.139C57.4615 113.135 57.8065 112.021 58.7295 111.561L61.2644 110.458C61.3763 110.402 62.2456 110.016 62.1887 109.906C62.1446 109.821 61.2814 109.893 61.1852 109.906L57.9373 110.379C57.1539 110.488 55.9373 109.922 55.3231 109.433L54.0532 108.062C53.5661 107.675 53.492 106.974 53.8876 106.497C54.0716 106.275 54.3357 106.131 54.6252 106.095L59.001 105.546C59.2816 105.51 59.5261 105.341 59.6535 105.094Z" fill="#FFC438"/>
</g>
<path d="M61.9821 108.216C61.9821 108.216 61.9816 108.216 61.9802 108.217C61.9813 108.216 61.9821 108.216 61.9821 108.216ZM60.7575 109.486L60.765 109.483L60.7722 109.479C60.7722 109.479 60.7723 109.479 60.7726 109.479C60.7742 109.479 60.7809 109.475 60.7958 109.469C60.8118 109.462 60.833 109.453 60.8589 109.441C60.8879 109.429 60.9215 109.415 60.9592 109.398C60.9897 109.385 61.023 109.371 61.0588 109.356C61.2175 109.288 61.4197 109.2 61.6173 109.11C61.8132 109.022 62.0113 108.928 62.159 108.847C62.2308 108.808 62.3031 108.766 62.359 108.724C62.3845 108.704 62.4252 108.672 62.4596 108.627C62.4779 108.603 62.5925 108.448 62.4963 108.263C62.4482 108.17 62.3719 108.129 62.3386 108.114C62.3006 108.097 62.2662 108.089 62.2459 108.086C62.2042 108.078 62.1631 108.077 62.1333 108.077C62.0701 108.078 61.9933 108.085 61.9149 108.093C61.7553 108.112 61.5507 108.144 61.3503 108.178C61.1486 108.213 60.9458 108.25 60.7883 108.28C60.7447 108.288 60.7067 108.295 60.6725 108.301C60.6428 108.307 60.616 108.312 60.5913 108.317C60.5659 108.321 60.5454 108.325 60.53 108.328C60.5178 108.33 60.5115 108.331 60.5092 108.332C60.5086 108.332 60.5082 108.332 60.5082 108.332L60.5066 108.332L57.2606 108.805L57.2597 108.805C56.9492 108.848 56.5112 108.757 56.0498 108.575C55.6058 108.4 55.1849 108.158 54.9052 107.939L53.652 106.586L53.6357 106.569L53.617 106.554C53.2674 106.276 53.2161 105.777 53.4979 105.437C53.63 105.278 53.8207 105.173 54.0315 105.147L58.4073 104.598C58.7894 104.55 59.1254 104.319 59.3015 103.977L61.5063 99.6956C61.6801 99.3582 62.1061 99.2168 62.4589 99.3911C62.5962 99.4589 62.706 99.568 62.7729 99.7007L64.8552 103.83C65.074 104.264 65.4999 104.557 65.9847 104.613L70.345 105.123C70.7689 105.173 71.0605 105.547 71.0117 105.946C70.9916 106.112 70.9142 106.267 70.7907 106.386L67.3443 109.699C67.1339 109.902 67.0304 110.191 67.0676 110.48L67.6403 114.954C67.6993 115.414 67.3659 115.845 66.88 115.905C66.6964 115.927 66.5105 115.893 66.3487 115.807L62.7075 113.867C62.3537 113.679 61.9285 113.673 61.5699 113.853L57.7974 115.739C57.4176 115.929 56.9566 115.779 56.7668 115.415C56.696 115.279 56.6702 115.126 56.6922 114.976L56.9937 112.924C57.1405 111.925 57.4687 110.97 58.2304 110.586L60.7575 109.486Z" stroke="#E6860D" stroke-width="0.632184"/>
</g>
<g style="mix-blend-mode:luminosity" clip-path="url(#clip5_58_1054)">
<path fill-rule="evenodd" clip-rule="evenodd" d="M98.225 56.5508L96.0202 60.8322C95.8928 61.0796 95.6483 61.249 95.3677 61.2842L90.9919 61.8332C90.7024 61.8696 90.4383 62.0136 90.2543 62.2355C89.8587 62.7125 89.9328 63.4135 90.4199 63.801L91.6898 65.1717C92.304 65.6604 93.5206 66.2269 94.304 66.1175L97.5519 65.6446C97.5695 65.6422 97.6351 65.6298 97.7307 65.6118C98.1568 65.5315 99.1794 65.3388 99.2154 65.4082C99.2612 65.4965 98.2771 65.9181 97.8346 66.1077C97.728 66.1533 97.6528 66.1855 97.6311 66.1963L95.0962 67.2998C94.1732 67.7594 93.8282 68.8737 93.6807 69.8775L93.3792 71.9298C93.3474 72.146 93.3848 72.3666 93.4863 72.5612C93.7574 73.0813 94.4076 73.2875 94.9385 73.022L98.711 71.1352C98.9781 71.0016 99.2952 71.0057 99.5587 71.146L103.2 73.0854C103.419 73.2024 103.67 73.2488 103.918 73.2183C104.572 73.138 105.036 72.5537 104.954 71.9133L104.381 67.4402C104.357 67.2507 104.424 67.0609 104.563 66.9272L108.009 63.6138C108.185 63.4453 108.296 63.2234 108.325 62.9846C108.396 62.4048 107.973 61.8786 107.381 61.8094L103.021 61.2994C102.64 61.2548 102.307 61.0245 102.137 60.6872L100.055 56.5583C99.9567 56.3635 99.7966 56.2054 99.5986 56.1075C99.0943 55.8584 98.4794 56.0568 98.225 56.5508Z" fill="#FFECBF"/>
<mask id="mask4_58_1054" style="mask-type:alpha" maskUnits="userSpaceOnUse" x="89" y="55" width="20" height="19">
<path d="M98.9816 65.2156C98.9816 65.2156 98.9811 65.2161 98.9797 65.2172C98.9809 65.2162 98.9816 65.2156 98.9816 65.2156ZM97.757 66.4861L97.7645 66.4828L97.7717 66.4792C97.7717 66.4792 97.7718 66.4792 97.7721 66.479C97.7737 66.4783 97.7805 66.4752 97.7953 66.4686C97.8114 66.4615 97.8325 66.4524 97.8585 66.4412C97.8875 66.4287 97.921 66.4143 97.9587 66.3981C97.9892 66.3851 98.0225 66.3708 98.0584 66.3554C98.217 66.2873 98.4192 66.1998 98.6168 66.1102C98.8127 66.0215 99.0108 65.9277 99.1586 65.8472C99.2303 65.8081 99.3026 65.7656 99.3585 65.7234C99.384 65.7041 99.4247 65.6713 99.4591 65.6264C99.4774 65.6024 99.592 65.4478 99.4958 65.2624C99.4477 65.1699 99.3714 65.1289 99.3381 65.1137C99.3001 65.0963 99.2657 65.0889 99.2454 65.0853C99.2037 65.0779 99.1627 65.077 99.1328 65.0772C99.0696 65.0776 98.9928 65.0843 98.9145 65.0932C98.7548 65.1114 98.5502 65.1436 98.3498 65.1778C98.1481 65.2123 97.9453 65.2497 97.7878 65.2793C97.7442 65.2874 97.7062 65.2946 97.6721 65.301C97.6423 65.3066 97.6156 65.3117 97.5908 65.3163C97.5654 65.3211 97.5449 65.3248 97.5295 65.3276C97.5173 65.3299 97.511 65.3309 97.5087 65.3313C97.5081 65.3314 97.5078 65.3315 97.5078 65.3315L97.5061 65.3317L94.2601 65.8044L94.2592 65.8045C93.9487 65.8476 93.5107 65.7569 93.0493 65.5748C92.6053 65.3995 92.1844 65.1573 91.9048 64.9387L90.6515 63.5861L90.6352 63.5685L90.6165 63.5536C90.2669 63.2755 90.2157 62.7769 90.4974 62.4371C90.6295 62.2779 90.8202 62.1732 91.031 62.1468L95.4068 61.5977C95.7889 61.5497 96.1249 61.3187 96.301 60.9768L98.5058 56.6954C98.6796 56.358 99.1056 56.2165 99.4584 56.3908C99.5957 56.4587 99.7055 56.5678 99.7725 56.7005L101.855 60.8294C102.074 61.2634 102.499 61.5565 102.984 61.6132L107.344 62.1232C107.768 62.1728 108.06 62.5463 108.011 62.9462C107.991 63.112 107.914 63.2672 107.79 63.3858L104.344 66.6992C104.133 66.9015 104.03 67.1903 104.067 67.4802L104.64 71.9534C104.699 72.4141 104.365 72.8447 103.88 72.9045C103.696 72.9271 103.51 72.8925 103.348 72.8063L99.707 70.8669C99.3532 70.6784 98.928 70.673 98.5694 70.8524L94.7969 72.7392C94.4171 72.9291 93.9561 72.779 93.7664 72.415C93.6956 72.2791 93.6697 72.1258 93.6917 71.9756L93.9932 69.9233C94.14 68.9246 94.4682 67.9701 95.2299 67.5861L97.757 66.4861Z" fill="#FFECBF" stroke="#E6860D" stroke-width="0.632184"/>
</mask>
<g mask="url(#mask4_58_1054)">
<path fill-rule="evenodd" clip-rule="evenodd" d="M96.6535 62.0936L98.8583 57.8122C99.1127 57.3183 99.7276 57.1199 100.232 57.369C100.43 57.4668 100.59 57.625 100.688 57.8197L102.77 61.9486C102.941 62.2859 103.273 62.5162 103.654 62.5608L108.015 63.0709C108.607 63.1401 109.029 63.6663 108.958 64.2461C108.929 64.4849 108.818 64.7068 108.643 64.8753L105.196 68.1886C105.057 68.3224 104.99 68.5122 105.014 68.7017L105.587 73.1749C105.669 73.8153 105.205 74.3994 104.552 74.4799C104.304 74.5102 104.053 74.4638 103.833 74.347L100.192 72.4074C99.9285 72.2671 99.6114 72.2631 99.3443 72.3967L95.5718 74.2836C95.0409 74.5491 94.3907 74.3427 94.1196 73.8227C94.0181 73.6282 93.9807 73.4075 94.0125 73.1913L94.314 71.139C94.4615 70.1352 94.8065 69.0208 95.7295 68.5613L98.2644 67.4578C98.3763 67.4021 99.2456 67.0157 99.1887 66.9061C99.1446 66.8212 98.2814 66.8926 98.1852 66.9061L94.9373 67.379C94.1539 67.4884 92.9373 66.9219 92.3231 66.4332L91.0532 65.0625C90.5661 64.6749 90.492 63.974 90.8876 63.4969C91.0716 63.2751 91.3357 63.1311 91.6252 63.0947L96.001 62.5456C96.2816 62.5104 96.5261 62.3411 96.6535 62.0936Z" fill="#FFC438"/>
</g>
<path d="M98.9821 65.2159C98.9821 65.2159 98.9816 65.2163 98.9802 65.2174C98.9813 65.2164 98.9821 65.2159 98.9821 65.2159ZM97.7575 66.4863L97.765 66.4831L97.7722 66.4794C97.7722 66.4794 97.7723 66.4794 97.7726 66.4793C97.7742 66.4785 97.7809 66.4754 97.7958 66.4688C97.8118 66.4618 97.833 66.4526 97.8589 66.4414C97.8879 66.4289 97.9215 66.4146 97.9592 66.3984C97.9897 66.3853 98.023 66.3711 98.0588 66.3557C98.2175 66.2875 98.4197 66.2 98.6173 66.1105C98.8132 66.0217 99.0113 65.9279 99.159 65.8474C99.2308 65.8084 99.3031 65.7658 99.359 65.7236C99.3845 65.7044 99.4252 65.6715 99.4596 65.6266C99.4779 65.6026 99.5925 65.4481 99.4963 65.2627C99.4482 65.1701 99.3719 65.1291 99.3386 65.1139C99.3006 65.0966 99.2662 65.0891 99.2459 65.0856C99.2042 65.0782 99.1631 65.0772 99.1333 65.0774C99.0701 65.0779 98.9933 65.0846 98.9149 65.0935C98.7553 65.1116 98.5507 65.1438 98.3503 65.1781C98.1486 65.2125 97.9458 65.25 97.7883 65.2795C97.7447 65.2877 97.7067 65.2948 97.6725 65.3013C97.6428 65.3069 97.616 65.3119 97.5913 65.3166C97.5659 65.3213 97.5454 65.3251 97.53 65.3279C97.5178 65.3301 97.5115 65.3312 97.5092 65.3315C97.5086 65.3316 97.5082 65.3317 97.5082 65.3317L97.5066 65.3319L94.2606 65.8046L94.2597 65.8047C93.9492 65.8478 93.5112 65.7572 93.0498 65.575C92.6058 65.3997 92.1849 65.1576 91.9052 64.9389L90.652 63.5863L90.6357 63.5687L90.617 63.5538C90.2674 63.2757 90.2161 62.7771 90.4979 62.4374C90.63 62.2782 90.8207 62.1735 91.0315 62.147L95.4073 61.5979C95.7894 61.55 96.1254 61.319 96.3015 60.977L98.5063 56.6956C98.6801 56.3582 99.1061 56.2168 99.4589 56.3911C99.5962 56.4589 99.706 56.568 99.7729 56.7007L101.855 60.8296C102.074 61.2636 102.5 61.5567 102.985 61.6134L107.345 62.1235C107.769 62.1731 108.061 62.5465 108.012 62.9465C107.992 63.1122 107.914 63.2675 107.791 63.3861L104.344 66.6994C104.134 66.9017 104.03 67.1905 104.068 67.4805L104.64 71.9536C104.699 72.4143 104.366 72.845 103.88 72.9047C103.696 72.9273 103.51 72.8927 103.349 72.8066L99.7075 70.8671C99.3537 70.6787 98.9285 70.6733 98.5699 70.8526L94.7974 72.7394C94.4176 72.9294 93.9566 72.7792 93.7668 72.4153C93.696 72.2793 93.6702 72.126 93.6922 71.9759L93.9937 69.9236C94.1405 68.9249 94.4687 67.9704 95.2304 67.5864L97.7575 66.4863Z" stroke="#E6860D" stroke-width="0.632184"/>
</g>
<g style="mix-blend-mode:luminosity" clip-path="url(#clip6_58_1054)">
<path fill-rule="evenodd" clip-rule="evenodd" d="M44.7296 56.4476L42.9256 59.927C42.8214 60.1281 42.6213 60.2657 42.3917 60.2943L38.8115 60.7405C38.5747 60.7701 38.3586 60.8871 38.2081 61.0674C37.8844 61.4551 37.945 62.0248 38.3435 62.3397L39.3826 63.4536C39.8851 63.8508 40.8805 64.3112 41.5214 64.2223L44.1788 63.838C44.1932 63.836 44.2469 63.8259 44.3251 63.8113C44.6738 63.746 45.5104 63.5894 45.5399 63.6458C45.5774 63.7176 44.7721 64.0602 44.4101 64.2143C44.3229 64.2514 44.2614 64.2776 44.2436 64.2863L42.1696 65.1831C41.4144 65.5566 41.1322 66.4622 41.0115 67.2779L40.7648 68.9458C40.7388 69.1215 40.7694 69.3008 40.8524 69.4589C41.0742 69.8816 41.6062 70.0492 42.0406 69.8334L45.1272 68.3C45.3457 68.1915 45.6052 68.1948 45.8207 68.3088L48.7999 69.8849C48.9794 69.98 49.1849 70.0177 49.3877 69.9929C49.9226 69.9277 50.3018 69.4529 50.2347 68.9324L49.7661 65.2972C49.7463 65.1432 49.8014 64.989 49.9153 64.8803L52.735 62.1876C52.8784 62.0507 52.9695 61.8703 52.9934 61.6762C53.0512 61.205 52.7054 60.7774 52.2212 60.7212L48.6536 60.3067C48.3416 60.2704 48.0695 60.0833 47.9304 59.8092L46.2267 56.4537C46.1464 56.2954 46.0154 56.1669 45.8534 56.0874C45.4408 55.8849 44.9377 56.0462 44.7296 56.4476Z" fill="#FFECBF"/>
<mask id="mask5_58_1054" style="mask-type:alpha" maskUnits="userSpaceOnUse" x="37" y="55" width="17" height="16">
<path d="M45.3486 63.4894C45.3486 63.4894 45.3482 63.4898 45.3471 63.4907C45.348 63.4899 45.3486 63.4894 45.3486 63.4894ZM44.3467 64.5219L44.3528 64.5192L44.3588 64.5163C44.3588 64.5163 44.3588 64.5163 44.3591 64.5162C44.3604 64.5156 44.3659 64.513 44.3781 64.5077C44.3912 64.5019 44.4085 64.4945 44.4297 64.4854C44.4534 64.4752 44.4809 64.4636 44.5118 64.4504C44.5367 64.4398 44.5639 64.4282 44.5933 64.4157C44.7231 64.3603 44.8885 64.2892 45.0502 64.2165C45.2105 64.1443 45.3725 64.0681 45.4934 64.0027C45.5521 63.9709 45.6113 63.9364 45.657 63.9021C45.6779 63.8864 45.7112 63.8597 45.7393 63.8232C45.7543 63.8037 45.8481 63.6781 45.7693 63.5275C45.73 63.4522 45.6676 63.4189 45.6403 63.4066C45.6093 63.3925 45.5811 63.3864 45.5645 63.3835C45.5303 63.3775 45.4968 63.3768 45.4724 63.3769C45.4207 63.3773 45.3578 63.3827 45.2937 63.3899C45.1631 63.4047 44.9957 63.4309 44.8317 63.4587C44.6667 63.4867 44.5008 63.5172 44.3719 63.5411C44.3362 63.5478 44.3051 63.5536 44.2772 63.5588C44.2529 63.5634 44.231 63.5675 44.2107 63.5713C44.19 63.5751 44.1732 63.5782 44.1606 63.5805C44.1506 63.5823 44.1454 63.5831 44.1436 63.5834C44.1431 63.5835 44.1428 63.5836 44.1428 63.5836L44.1414 63.5838L41.4856 63.9679L41.4849 63.968C41.2308 64.003 40.8725 63.9293 40.495 63.7813C40.1317 63.6388 39.7873 63.442 39.5585 63.2644L38.5331 62.1651L38.5198 62.1508L38.5044 62.1387C38.2185 61.9127 38.1765 61.5075 38.4071 61.2314C38.5151 61.102 38.6712 61.0169 38.8436 60.9954L42.4238 60.5492C42.7365 60.5102 43.0114 60.3225 43.1555 60.0446L44.9594 56.5652C45.1015 56.291 45.4501 56.1761 45.7387 56.3177C45.8511 56.3729 45.941 56.4615 45.9957 56.5694L47.6993 59.9248C47.8784 60.2775 48.2269 60.5157 48.6235 60.5618L52.1909 60.9763C52.5379 61.0166 52.7765 61.3201 52.7365 61.6451C52.72 61.7799 52.6567 61.906 52.5557 62.0024L49.7359 64.6951C49.5638 64.8595 49.4791 65.0942 49.5095 65.3298L49.9781 68.965C50.0264 69.3394 49.7536 69.6894 49.356 69.738C49.2058 69.7564 49.0537 69.7282 48.9213 69.6582L45.9422 68.0821C45.6527 67.9289 45.3048 67.9245 45.0114 68.0703L41.9248 69.6036C41.614 69.758 41.2369 69.636 41.0816 69.3402C41.0237 69.2297 41.0025 69.1052 41.0206 68.9831L41.2673 67.3153C41.3873 66.5037 41.6559 65.728 42.2791 65.4159L44.3467 64.5219Z" fill="#FFECBF" stroke="#E6860D" stroke-width="0.632184"/>
</mask>
<g mask="url(#mask5_58_1054)">
<path fill-rule="evenodd" clip-rule="evenodd" d="M43.4439 60.9521L45.2479 57.4727C45.456 57.0713 45.9591 56.9101 46.3717 57.1125C46.5337 57.192 46.6647 57.3206 46.745 57.4788L48.4487 60.8343C48.5878 61.1084 48.8599 61.2956 49.1719 61.3318L52.7395 61.7463C53.2238 61.8026 53.5696 62.2302 53.5116 62.7014C53.4878 62.8954 53.3968 63.0758 53.2534 63.2127L50.4336 65.9054C50.3198 66.0141 50.2646 66.1683 50.2844 66.3223L50.753 69.9576C50.8201 70.4781 50.4409 70.9528 49.906 71.0182C49.7033 71.0428 49.4977 71.0051 49.3182 70.9101L46.339 69.3339C46.1235 69.2199 45.864 69.2166 45.6455 69.3252L42.5589 70.8586C42.1245 71.0744 41.5925 70.9067 41.3707 70.4841C41.2877 70.326 41.2571 70.1467 41.2831 69.971L41.5298 68.3031C41.6505 67.4873 41.9327 66.5817 42.6879 66.2082L44.7619 65.3115C44.8535 65.2662 45.5647 64.9522 45.5182 64.8631C45.4821 64.7941 44.7759 64.8522 44.6971 64.8631L42.0398 65.2474C41.3988 65.3363 40.4034 64.8759 39.9009 64.4788L38.8618 63.3649C38.4633 63.0499 38.4027 62.4803 38.7264 62.0926C38.877 61.9123 39.093 61.7952 39.3299 61.7657L42.91 61.3195C43.1397 61.2909 43.3397 61.1532 43.4439 60.9521Z" fill="#FFC438"/>
</g>
<path d="M45.3489 63.4894C45.3489 63.4894 45.3485 63.4898 45.3474 63.4907C45.3483 63.4899 45.3489 63.4894 45.3489 63.4894ZM44.347 64.5219L44.3531 64.5192L44.359 64.5163C44.359 64.5163 44.3591 64.5163 44.3593 64.5162C44.3606 64.5156 44.3661 64.513 44.3783 64.5077C44.3914 64.5019 44.4087 64.4945 44.43 64.4854C44.4537 64.4752 44.4811 64.4636 44.512 64.4504C44.537 64.4398 44.5642 64.4282 44.5935 64.4157C44.7233 64.3603 44.8888 64.2892 45.0504 64.2165C45.2107 64.1443 45.3728 64.0681 45.4937 64.0027C45.5524 63.9709 45.6115 63.9364 45.6573 63.902C45.6781 63.8864 45.7115 63.8597 45.7396 63.8232C45.7546 63.8037 45.8483 63.6781 45.7696 63.5275C45.7303 63.4522 45.6678 63.4189 45.6406 63.4066C45.6095 63.3925 45.5813 63.3864 45.5647 63.3835C45.5306 63.3775 45.497 63.3768 45.4726 63.3769C45.4209 63.3773 45.358 63.3827 45.294 63.39C45.1634 63.4047 44.9959 63.4309 44.832 63.4587C44.6669 63.4867 44.501 63.5171 44.3721 63.5411C44.3365 63.5478 44.3054 63.5536 44.2774 63.5588C44.2531 63.5634 44.2312 63.5675 44.211 63.5712C44.1902 63.5751 44.1734 63.5782 44.1608 63.5805C44.1508 63.5823 44.1457 63.5831 44.1438 63.5834C44.1433 63.5835 44.143 63.5836 44.143 63.5836L44.1417 63.5838L41.4858 63.9679L41.4851 63.968C41.2311 64.003 40.8727 63.9293 40.4952 63.7813C40.1319 63.6388 39.7876 63.442 39.5587 63.2644L38.5334 62.1651L38.52 62.1508L38.5047 62.1387C38.2187 61.9127 38.1768 61.5075 38.4073 61.2314C38.5153 61.102 38.6714 61.0169 38.8439 60.9954L42.4241 60.5492C42.7367 60.5102 43.0116 60.3225 43.1557 60.0446L44.9596 56.5652C45.1018 56.291 45.4503 56.1761 45.739 56.3177C45.8513 56.3729 45.9412 56.4615 45.996 56.5694L47.6996 59.9248C47.8787 60.2775 48.2271 60.5157 48.6237 60.5618L52.1913 60.9763C52.5381 61.0166 52.7767 61.3201 52.7367 61.6451C52.7203 61.7799 52.657 61.906 52.556 62.0024L49.7362 64.6951C49.564 64.8595 49.4794 65.0942 49.5097 65.3298L49.9783 68.965C50.0266 69.3394 49.7538 69.6894 49.3563 69.738C49.206 69.7564 49.054 69.7282 48.9216 69.6582L45.9424 68.0821C45.6529 67.9289 45.305 67.9246 45.0117 68.0703L41.925 69.6036C41.6143 69.758 41.2371 69.636 41.0819 69.3402C41.0239 69.2298 41.0028 69.1052 41.0208 68.9831L41.2675 67.3153C41.3876 66.5037 41.6561 65.728 42.2793 65.4159L44.347 64.5219Z" stroke="#E6860D" stroke-width="0.632184"/>
</g>
<g style="mix-blend-mode:luminosity" clip-path="url(#clip7_58_1054)">
<path fill-rule="evenodd" clip-rule="evenodd" d="M11.7296 122.448L9.92564 125.927C9.82139 126.128 9.62133 126.266 9.39172 126.294L5.81155 126.741C5.57472 126.77 5.35865 126.887 5.2081 127.067C4.88438 127.455 4.94501 128.025 5.34352 128.34L6.3826 129.454C6.88511 129.851 7.88052 130.311 8.52144 130.222L11.1788 129.838C11.1932 129.836 11.2469 129.826 11.3251 129.811C11.6738 129.746 12.5104 129.589 12.5399 129.646C12.5774 129.718 11.7721 130.06 11.4101 130.214C11.3229 130.251 11.2614 130.278 11.2436 130.286L9.16959 131.183C8.41444 131.557 8.13215 132.462 8.0115 133.278L7.7648 134.946C7.73881 135.121 7.76941 135.301 7.8524 135.459C8.07422 135.882 8.60618 136.049 9.04059 135.833L12.1272 134.3C12.3457 134.191 12.6052 134.195 12.8207 134.309L15.7999 135.885C15.9794 135.98 16.1849 136.018 16.3877 135.993C16.9226 135.928 17.3018 135.453 17.2347 134.932L16.7661 131.297C16.7463 131.143 16.8014 130.989 16.9153 130.88L19.735 128.188C19.8784 128.051 19.9695 127.87 19.9934 127.676C20.0512 127.205 19.7054 126.777 19.2212 126.721L15.6536 126.307C15.3416 126.27 15.0695 126.083 14.9304 125.809L13.2267 122.454C13.1464 122.295 13.0154 122.167 12.8534 122.087C12.4408 121.885 11.9377 122.046 11.7296 122.448Z" fill="#FFECBF"/>
<mask id="mask6_58_1054" style="mask-type:alpha" maskUnits="userSpaceOnUse" x="4" y="121" width="17" height="16">
<path d="M12.3486 129.489C12.3486 129.489 12.3482 129.49 12.3471 129.491C12.348 129.49 12.3486 129.489 12.3486 129.489ZM11.3467 130.522L11.3528 130.519L11.3588 130.516C11.3588 130.516 11.3588 130.516 11.3591 130.516C11.3604 130.516 11.3659 130.513 11.3781 130.508C11.3912 130.502 11.4085 130.494 11.4297 130.485C11.4534 130.475 11.4809 130.464 11.5118 130.45C11.5367 130.44 11.5639 130.428 11.5933 130.416C11.7231 130.36 11.8885 130.289 12.0502 130.216C12.2105 130.144 12.3725 130.068 12.4934 130.003C12.5521 129.971 12.6113 129.936 12.657 129.902C12.6779 129.886 12.7112 129.86 12.7393 129.823C12.7543 129.804 12.8481 129.678 12.7693 129.527C12.73 129.452 12.6676 129.419 12.6403 129.407C12.6093 129.392 12.5811 129.386 12.5645 129.384C12.5303 129.378 12.4968 129.377 12.4724 129.377C12.4207 129.377 12.3578 129.383 12.2937 129.39C12.1631 129.405 11.9957 129.431 11.8317 129.459C11.6667 129.487 11.5008 129.517 11.3719 129.541C11.3362 129.548 11.3051 129.554 11.2772 129.559C11.2529 129.563 11.231 129.567 11.2107 129.571C11.19 129.575 11.1732 129.578 11.1606 129.58C11.1506 129.582 11.1454 129.583 11.1436 129.583C11.1431 129.584 11.1428 129.584 11.1428 129.584L11.1414 129.584L8.48557 129.968L8.48487 129.968C8.23083 130.003 7.87246 129.929 7.49498 129.781C7.13169 129.639 6.78734 129.442 6.5585 129.264L5.53313 128.165L5.5198 128.151L5.50444 128.139C5.21847 127.913 5.17652 127.508 5.40707 127.231C5.51508 127.102 5.67117 127.017 5.84364 126.995L9.42381 126.549C9.73646 126.51 10.0114 126.322 10.1555 126.045L11.9594 122.565C12.1015 122.291 12.4501 122.176 12.7387 122.318C12.8511 122.373 12.941 122.462 12.9957 122.569L14.6993 125.925C14.8784 126.278 15.2269 126.516 15.6235 126.562L19.1909 126.976C19.5379 127.017 19.7765 127.32 19.7365 127.645C19.72 127.78 19.6567 127.906 19.5557 128.002L16.7359 130.695C16.5638 130.859 16.4791 131.094 16.5095 131.33L16.9781 134.965C17.0264 135.339 16.7536 135.689 16.356 135.738C16.2058 135.756 16.0537 135.728 15.9213 135.658L12.9422 134.082C12.6527 133.929 12.3048 133.925 12.0114 134.07L8.9248 135.604C8.61404 135.758 8.23687 135.636 8.08163 135.34C8.0237 135.23 8.00252 135.105 8.02057 134.983L8.26726 133.315C8.38731 132.504 8.65587 131.728 9.27907 131.416L11.3467 130.522Z" fill="#FFECBF" stroke="#E6860D" stroke-width="0.632184"/>
</mask>
<g mask="url(#mask6_58_1054)">
<path fill-rule="evenodd" clip-rule="evenodd" d="M10.4439 126.952L12.2479 123.473C12.456 123.071 12.9591 122.91 13.3717 123.113C13.5337 123.192 13.6647 123.321 13.745 123.479L15.4487 126.834C15.5878 127.108 15.8599 127.296 16.1719 127.332L19.7395 127.746C20.2238 127.803 20.5696 128.23 20.5116 128.701C20.4878 128.895 20.3968 129.076 20.2534 129.213L17.4336 131.905C17.3198 132.014 17.2646 132.168 17.2844 132.322L17.753 135.958C17.8201 136.478 17.4409 136.953 16.906 137.018C16.7033 137.043 16.4977 137.005 16.3182 136.91L13.339 135.334C13.1235 135.22 12.864 135.217 12.6455 135.325L9.55891 136.859C9.1245 137.074 8.59253 136.907 8.37071 136.484C8.28772 136.326 8.25711 136.147 8.28311 135.971L8.5298 134.303C8.65046 133.487 8.93275 132.582 9.68789 132.208L11.7619 131.311C11.8535 131.266 12.5647 130.952 12.5182 130.863C12.4821 130.794 11.7759 130.852 11.6971 130.863L9.03975 131.247C8.39884 131.336 7.40342 130.876 6.90091 130.479L5.86183 129.365C5.46332 129.05 5.40269 128.48 5.72641 128.093C5.87696 127.912 6.09303 127.795 6.32986 127.766L9.91002 127.319C10.1397 127.291 10.3397 127.153 10.4439 126.952Z" fill="#FFC438"/>
</g>
<path d="M12.3489 129.489C12.3489 129.489 12.3485 129.49 12.3474 129.491C12.3483 129.49 12.3489 129.489 12.3489 129.489ZM11.347 130.522L11.3531 130.519L11.359 130.516C11.359 130.516 11.3591 130.516 11.3593 130.516C11.3606 130.516 11.3661 130.513 11.3783 130.508C11.3914 130.502 11.4087 130.494 11.43 130.485C11.4537 130.475 11.4811 130.464 11.512 130.45C11.537 130.44 11.5642 130.428 11.5935 130.416C11.7233 130.36 11.8888 130.289 12.0504 130.216C12.2107 130.144 12.3728 130.068 12.4937 130.003C12.5524 129.971 12.6115 129.936 12.6573 129.902C12.6781 129.886 12.7115 129.86 12.7396 129.823C12.7546 129.804 12.8483 129.678 12.7696 129.527C12.7303 129.452 12.6678 129.419 12.6406 129.407C12.6095 129.392 12.5813 129.386 12.5647 129.384C12.5306 129.378 12.497 129.377 12.4726 129.377C12.4209 129.377 12.358 129.383 12.294 129.39C12.1634 129.405 11.9959 129.431 11.832 129.459C11.6669 129.487 11.501 129.517 11.3721 129.541C11.3365 129.548 11.3054 129.554 11.2774 129.559C11.2531 129.563 11.2312 129.567 11.211 129.571C11.1902 129.575 11.1734 129.578 11.1608 129.58C11.1508 129.582 11.1457 129.583 11.1438 129.583C11.1433 129.584 11.143 129.584 11.143 129.584L11.1417 129.584L8.48582 129.968L8.48512 129.968C8.23108 130.003 7.87271 129.929 7.49522 129.781C7.13194 129.639 6.78759 129.442 6.55875 129.264L5.53337 128.165L5.52004 128.151L5.50469 128.139C5.21872 127.913 5.17676 127.508 5.40731 127.231C5.51533 127.102 5.67142 127.017 5.84389 126.995L9.42406 126.549C9.7367 126.51 10.0116 126.322 10.1557 126.045L11.9596 122.565C12.1018 122.291 12.4503 122.176 12.739 122.318C12.8513 122.373 12.9412 122.462 12.996 122.569L14.6996 125.925C14.8787 126.277 15.2271 126.516 15.6237 126.562L19.1913 126.976C19.5381 127.017 19.7767 127.32 19.7367 127.645C19.7203 127.78 19.657 127.906 19.556 128.002L16.7362 130.695C16.564 130.859 16.4794 131.094 16.5097 131.33L16.9783 134.965C17.0266 135.339 16.7538 135.689 16.3563 135.738C16.206 135.756 16.054 135.728 15.9216 135.658L12.9424 134.082C12.6529 133.929 12.305 133.925 12.0117 134.07L8.92505 135.604C8.61429 135.758 8.23712 135.636 8.08188 135.34C8.02395 135.23 8.00277 135.105 8.02082 134.983L8.2675 133.315C8.38756 132.504 8.65612 131.728 9.27932 131.416L11.347 130.522Z" stroke="#E6860D" stroke-width="0.632184"/>
</g>
<g style="mix-blend-mode:luminosity" clip-path="url(#clip8_58_1054)">
<path fill-rule="evenodd" clip-rule="evenodd" d="M103.935 12.3197L102.612 14.805C102.536 14.9486 102.389 15.0469 102.221 15.0674L99.5951 15.3861C99.4215 15.4072 99.263 15.4908 99.1526 15.6196C98.9152 15.8965 98.9597 16.3034 99.2519 16.5284L100.014 17.324C100.382 17.6077 101.112 17.9366 101.582 17.8731L103.531 17.5985C103.542 17.5971 103.581 17.5899 103.638 17.5795C103.894 17.5329 104.508 17.421 104.529 17.4613C104.557 17.5125 103.966 17.7573 103.701 17.8673C103.637 17.8938 103.592 17.9125 103.579 17.9188L102.058 18.5594C101.504 18.8261 101.297 19.473 101.208 20.0557L101.028 21.247C101.008 21.3725 101.031 21.5006 101.092 21.6135C101.254 21.9154 101.645 22.0351 101.963 21.881L104.227 20.7857C104.387 20.7082 104.577 20.7105 104.735 20.792L106.92 21.9178C107.052 21.9857 107.202 22.0127 107.351 21.995C107.743 21.9484 108.021 21.6092 107.972 21.2374L107.628 18.6408C107.614 18.5308 107.654 18.4207 107.738 18.343L109.806 16.4197C109.911 16.3219 109.978 16.1931 109.995 16.0545C110.038 15.7179 109.784 15.4125 109.429 15.3723L106.813 15.0762C106.584 15.0503 106.384 14.9166 106.282 14.7208L105.033 12.3241C104.974 12.211 104.878 12.1192 104.759 12.0624C104.457 11.9178 104.088 12.033 103.935 12.3197Z" fill="#FFECBF"/>
<mask id="mask7_58_1054" style="mask-type:alpha" maskUnits="userSpaceOnUse" x="98" y="11" width="13" height="12">
<path d="M104.389 17.3495C104.389 17.3495 104.389 17.3498 104.388 17.3504C104.389 17.3498 104.389 17.3495 104.389 17.3495ZM103.654 18.087L103.659 18.0851L103.663 18.083C103.663 18.083 103.663 18.083 103.663 18.0829C103.664 18.0824 103.668 18.0806 103.677 18.0768C103.687 18.0727 103.7 18.0674 103.715 18.0609C103.733 18.0536 103.753 18.0453 103.775 18.0359C103.794 18.0283 103.814 18.0201 103.835 18.0111C103.93 17.9716 104.052 17.9208 104.17 17.8688C104.288 17.8173 104.407 17.7628 104.495 17.7161C104.538 17.6934 104.582 17.6687 104.615 17.6442C104.631 17.6331 104.655 17.614 104.676 17.5879C104.687 17.574 104.755 17.4843 104.698 17.3767C104.669 17.3229 104.623 17.2991 104.603 17.2903C104.58 17.2802 104.56 17.2759 104.547 17.2738C104.522 17.2696 104.498 17.269 104.48 17.2691C104.442 17.2694 104.396 17.2733 104.349 17.2784C104.253 17.289 104.13 17.3077 104.01 17.3275C103.889 17.3475 103.767 17.3693 103.673 17.3864C103.647 17.3912 103.624 17.3953 103.603 17.3991C103.586 17.4023 103.569 17.4052 103.555 17.4079C103.539 17.4107 103.527 17.4129 103.518 17.4145C103.511 17.4158 103.507 17.4164 103.505 17.4166C103.505 17.4167 103.505 17.4167 103.505 17.4167L103.504 17.4169L101.556 17.6912L101.556 17.6913C101.369 17.7163 101.107 17.6637 100.83 17.558C100.563 17.4562 100.311 17.3156 100.143 17.1887L99.3911 16.4036L99.3813 16.3933L99.37 16.3847C99.1603 16.2232 99.1295 15.9338 99.2986 15.7366C99.3778 15.6442 99.4923 15.5834 99.6188 15.5681L102.244 15.2493C102.473 15.2215 102.675 15.0874 102.781 14.8889L104.104 12.4036C104.208 12.2078 104.463 12.1256 104.675 12.2268C104.758 12.2662 104.823 12.3295 104.864 12.4066L106.113 14.8033C106.244 15.0553 106.5 15.2254 106.791 15.2583L109.407 15.5544C109.661 15.5832 109.836 15.8 109.807 16.0321C109.795 16.1284 109.748 16.2185 109.674 16.2873L107.606 18.2107C107.48 18.3281 107.418 18.4957 107.44 18.664L107.784 21.2606C107.819 21.5281 107.619 21.7781 107.328 21.8127C107.218 21.8259 107.106 21.8058 107.009 21.7558L104.824 20.63C104.612 20.5205 104.357 20.5174 104.142 20.6215L101.878 21.7168C101.65 21.8271 101.374 21.7399 101.26 21.5286C101.217 21.4497 101.202 21.3607 101.215 21.2736L101.396 20.0822C101.484 19.5025 101.681 18.9484 102.138 18.7255L103.654 18.087Z" fill="#FFECBF" stroke="#E6860D" stroke-width="0.632184"/>
</mask>
<g mask="url(#mask7_58_1054)">
<path fill-rule="evenodd" clip-rule="evenodd" d="M102.992 15.5372L104.315 13.0519C104.468 12.7652 104.837 12.65 105.139 12.7946C105.258 12.8514 105.354 12.9432 105.413 13.0562L106.662 15.453C106.764 15.6488 106.964 15.7825 107.193 15.8084L109.809 16.1044C110.164 16.1446 110.418 16.4501 110.375 16.7866C110.358 16.9252 110.291 17.0541 110.186 17.1519L108.118 19.0752C108.035 19.1529 107.994 19.263 108.009 19.373L108.352 21.9697C108.401 22.3414 108.123 22.6805 107.731 22.7272C107.582 22.7448 107.432 22.7178 107.3 22.65L105.115 21.5242C104.957 21.4427 104.767 21.4404 104.607 21.5179L102.343 22.6132C102.025 22.7674 101.635 22.6475 101.472 22.3457C101.411 22.2328 101.389 22.1047 101.408 21.9792L101.589 20.7878C101.677 20.2052 101.884 19.5583 102.438 19.2915L103.959 18.651C104.026 18.6187 104.547 18.3943 104.513 18.3307C104.487 18.2814 103.969 18.3229 103.911 18.3307L101.963 18.6052C101.493 18.6687 100.763 18.3399 100.394 18.0562L99.632 17.2605C99.3398 17.0356 99.2953 16.6287 99.5327 16.3518C99.6431 16.223 99.8016 16.1394 99.9753 16.1183L102.601 15.7995C102.769 15.7791 102.916 15.6808 102.992 15.5372Z" fill="#FFC438"/>
</g>
<path d="M104.389 17.3495C104.389 17.3495 104.389 17.3498 104.388 17.3504C104.389 17.3498 104.389 17.3495 104.389 17.3495ZM103.654 18.0869L103.659 18.0851L103.663 18.083C103.663 18.083 103.663 18.0829 103.663 18.0829C103.664 18.0824 103.668 18.0806 103.677 18.0768C103.687 18.0727 103.7 18.0674 103.715 18.0609C103.733 18.0536 103.753 18.0453 103.775 18.0359C103.794 18.0283 103.814 18.0201 103.835 18.0111C103.93 17.9716 104.052 17.9208 104.17 17.8688C104.288 17.8173 104.407 17.7628 104.495 17.7161C104.538 17.6934 104.582 17.6687 104.615 17.6442C104.631 17.6331 104.655 17.614 104.676 17.5879C104.687 17.574 104.755 17.4843 104.698 17.3767C104.669 17.3229 104.623 17.2991 104.603 17.2903C104.58 17.2802 104.56 17.2759 104.547 17.2738C104.522 17.2696 104.498 17.269 104.48 17.2691C104.442 17.2694 104.396 17.2733 104.349 17.2784C104.253 17.289 104.13 17.3077 104.01 17.3275C103.889 17.3475 103.767 17.3693 103.673 17.3864C103.647 17.3912 103.624 17.3953 103.603 17.3991C103.586 17.4023 103.569 17.4052 103.555 17.4079C103.539 17.4107 103.527 17.4129 103.518 17.4145C103.511 17.4158 103.507 17.4164 103.505 17.4166C103.505 17.4167 103.505 17.4167 103.505 17.4167L103.504 17.4169L101.556 17.6912L101.556 17.6913C101.369 17.7163 101.107 17.6637 100.83 17.558C100.563 17.4562 100.311 17.3156 100.143 17.1887L99.3911 16.4036L99.3813 16.3934L99.37 16.3847C99.1603 16.2233 99.1295 15.9338 99.2986 15.7366C99.3778 15.6442 99.4923 15.5834 99.6188 15.5681L102.244 15.2493C102.473 15.2215 102.675 15.0874 102.781 14.8889L104.104 12.4036C104.208 12.2078 104.463 12.1256 104.675 12.2268C104.758 12.2662 104.823 12.3295 104.864 12.4066L106.113 14.8033C106.244 15.0553 106.5 15.2254 106.791 15.2583L109.407 15.5544C109.661 15.5832 109.836 15.8 109.807 16.0321C109.795 16.1284 109.748 16.2185 109.674 16.2873L107.606 18.2107C107.48 18.3281 107.418 18.4957 107.44 18.664L107.784 21.2606C107.819 21.5281 107.619 21.7781 107.328 21.8127C107.218 21.8259 107.106 21.8058 107.009 21.7558L104.824 20.6299C104.612 20.5205 104.357 20.5174 104.142 20.6215L101.878 21.7168C101.65 21.8271 101.374 21.7399 101.26 21.5286C101.217 21.4497 101.202 21.3607 101.215 21.2736L101.396 20.0822C101.484 19.5025 101.681 18.9484 102.138 18.7255L103.654 18.0869Z" stroke="#E6860D" stroke-width="0.632184"/>
</g>
<g style="mix-blend-mode:luminosity" clip-path="url(#clip9_58_1054)">
<path fill-rule="evenodd" clip-rule="evenodd" d="M92.935 142.32L91.6121 144.805C91.5357 144.949 91.389 145.047 91.2206 145.067L88.5951 145.386C88.4215 145.407 88.263 145.491 88.1526 145.62C87.9152 145.897 87.9597 146.303 88.2519 146.528L89.0139 147.324C89.3824 147.608 90.1124 147.937 90.5824 147.873L92.5311 147.599C92.5417 147.597 92.5811 147.59 92.6384 147.579C92.8941 147.533 93.5077 147.421 93.5292 147.461C93.5567 147.513 92.9662 147.757 92.7007 147.867C92.6368 147.894 92.5917 147.913 92.5786 147.919L91.0577 148.559C90.5039 148.826 90.2969 149.473 90.2084 150.056L90.0275 151.247C90.0085 151.372 90.0309 151.501 90.0918 151.613C90.2544 151.915 90.6445 152.035 90.9631 151.881L93.2266 150.786C93.3869 150.708 93.5771 150.711 93.7352 150.792L95.9199 151.918C96.0515 151.986 96.2023 152.013 96.3509 151.995C96.7432 151.948 97.0213 151.609 96.9721 151.237L96.6285 148.641C96.6139 148.531 96.6544 148.421 96.7379 148.343L98.8057 146.42C98.9109 146.322 98.9776 146.193 98.9952 146.054C99.0376 145.718 98.784 145.412 98.4289 145.372L95.8127 145.076C95.5838 145.05 95.3843 144.917 95.2823 144.721L94.0329 142.324C93.974 142.211 93.8779 142.119 93.7592 142.062C93.4566 141.918 93.0876 142.033 92.935 142.32Z" fill="#FFECBF"/>
<mask id="mask8_58_1054" style="mask-type:alpha" maskUnits="userSpaceOnUse" x="87" y="141" width="13" height="12">
<path d="M93.3891 147.349C93.3891 147.349 93.3888 147.35 93.388 147.35C93.3887 147.35 93.3891 147.349 93.3891 147.349ZM92.6544 148.087L92.6588 148.085L92.6632 148.083C92.6632 148.083 92.6632 148.083 92.6634 148.083C92.6644 148.082 92.6684 148.081 92.6774 148.077C92.687 148.073 92.6996 148.067 92.7152 148.061C92.7326 148.054 92.7527 148.045 92.7754 148.036C92.7937 148.028 92.8136 148.02 92.8352 148.011C92.9304 147.972 93.0517 147.921 93.1702 147.869C93.2878 147.817 93.4066 147.763 93.4953 147.716C93.5383 147.693 93.5817 147.669 93.6153 147.644C93.6305 147.633 93.655 147.614 93.6756 147.588C93.6866 147.574 93.7553 147.484 93.6976 147.377C93.6688 147.323 93.623 147.299 93.603 147.29C93.5802 147.28 93.5596 147.276 93.5474 147.274C93.5224 147.27 93.4977 147.269 93.4798 147.269C93.4419 147.269 93.3958 147.273 93.3488 147.278C93.2531 147.289 93.1303 147.308 93.01 147.328C92.889 147.348 92.7673 147.369 92.6728 147.386C92.6467 147.391 92.6238 147.395 92.6034 147.399C92.5855 147.402 92.5695 147.405 92.5546 147.408C92.5394 147.411 92.5271 147.413 92.5179 147.415C92.5105 147.416 92.5067 147.416 92.5054 147.417C92.505 147.417 92.5048 147.417 92.5048 147.417L92.5038 147.417L90.5562 147.691L90.5557 147.691C90.3694 147.716 90.1066 147.664 89.8297 147.558C89.5633 147.456 89.3108 147.316 89.143 147.189L88.3911 146.404L88.3813 146.393L88.37 146.385C88.1603 146.223 88.1295 145.934 88.2986 145.737C88.3778 145.644 88.4923 145.583 88.6188 145.568L91.2442 145.249C91.4735 145.221 91.6751 145.087 91.7808 144.889L93.1036 142.404C93.2079 142.208 93.4635 142.126 93.6752 142.227C93.7576 142.266 93.8235 142.33 93.8636 142.407L95.113 144.803C95.2443 145.055 95.4998 145.225 95.7906 145.258L98.4068 145.554C98.6612 145.583 98.8362 145.8 98.8069 146.032C98.7947 146.128 98.7484 146.218 98.6743 146.287L96.6065 148.211C96.4802 148.328 96.4181 148.496 96.4404 148.664L96.784 151.261C96.8194 151.528 96.6194 151.778 96.3278 151.813C96.2177 151.826 96.1061 151.806 96.0091 151.756L93.8244 150.63C93.6121 150.521 93.3569 150.517 93.1418 150.622L90.8783 151.717C90.6504 151.827 90.3738 151.74 90.26 151.529C90.2175 151.45 90.2019 151.361 90.2152 151.274L90.3961 150.082C90.4841 149.503 90.6811 148.948 91.1381 148.726L92.6544 148.087Z" fill="#FFECBF" stroke="#E6860D" stroke-width="0.632184"/>
</mask>
<g mask="url(#mask8_58_1054)">
<path fill-rule="evenodd" clip-rule="evenodd" d="M91.9923 145.537L93.3151 143.052C93.4677 142.765 93.8367 142.65 94.1393 142.795C94.2581 142.851 94.3541 142.943 94.4131 143.056L95.6624 145.453C95.7645 145.649 95.964 145.782 96.1928 145.808L98.809 146.104C99.1641 146.145 99.4177 146.45 99.3752 146.787C99.3578 146.925 99.291 147.054 99.1859 147.152L97.118 149.075C97.0345 149.153 96.9941 149.263 97.0086 149.373L97.3523 151.97C97.4015 152.341 97.1233 152.68 96.7311 152.727C96.5824 152.745 96.4317 152.718 96.3 152.65L94.1153 151.524C93.9573 151.443 93.767 151.44 93.6067 151.518L91.3432 152.613C91.0247 152.767 90.6346 152.648 90.4719 152.346C90.411 152.233 90.3886 152.105 90.4076 151.979L90.5886 150.788C90.677 150.205 90.884 149.558 91.4378 149.292L92.9588 148.651C93.0259 148.619 93.5475 148.394 93.5134 148.331C93.4869 148.281 92.969 148.323 92.9112 148.331L90.9625 148.605C90.4925 148.669 89.7625 148.34 89.394 148.056L88.632 147.261C88.3398 147.036 88.2953 146.629 88.5327 146.352C88.6431 146.223 88.8016 146.139 88.9753 146.118L91.6007 145.8C91.7691 145.779 91.9158 145.681 91.9923 145.537Z" fill="#FFC438"/>
</g>
<path d="M93.3891 147.349C93.3891 147.349 93.3888 147.35 93.388 147.35C93.3887 147.35 93.3891 147.349 93.3891 147.349ZM92.6544 148.087L92.6588 148.085L92.6632 148.083C92.6632 148.083 92.6632 148.083 92.6634 148.083C92.6644 148.082 92.6684 148.081 92.6774 148.077C92.687 148.073 92.6996 148.067 92.7152 148.061C92.7326 148.054 92.7527 148.045 92.7754 148.036C92.7937 148.028 92.8136 148.02 92.8352 148.011C92.9304 147.972 93.0517 147.921 93.1702 147.869C93.2878 147.817 93.4066 147.763 93.4953 147.716C93.5383 147.693 93.5817 147.669 93.6153 147.644C93.6305 147.633 93.655 147.614 93.6756 147.588C93.6866 147.574 93.7553 147.484 93.6976 147.377C93.6688 147.323 93.623 147.299 93.603 147.29C93.5802 147.28 93.5596 147.276 93.5474 147.274C93.5224 147.27 93.4977 147.269 93.4798 147.269C93.4419 147.269 93.3958 147.273 93.3488 147.278C93.2531 147.289 93.1303 147.308 93.01 147.328C92.889 147.348 92.7673 147.369 92.6728 147.386C92.6467 147.391 92.6238 147.395 92.6034 147.399C92.5855 147.402 92.5695 147.405 92.5546 147.408C92.5394 147.411 92.5271 147.413 92.5179 147.415C92.5105 147.416 92.5068 147.416 92.5054 147.417C92.505 147.417 92.5048 147.417 92.5048 147.417L92.5038 147.417L90.5562 147.691L90.5557 147.691C90.3694 147.716 90.1066 147.664 89.8297 147.558C89.5633 147.456 89.3108 147.316 89.143 147.189L88.3911 146.404L88.3813 146.393L88.37 146.385C88.1603 146.223 88.1295 145.934 88.2986 145.737C88.3778 145.644 88.4923 145.583 88.6188 145.568L91.2442 145.249C91.4735 145.221 91.6751 145.087 91.7808 144.889L93.1036 142.404C93.2079 142.208 93.4635 142.126 93.6752 142.227C93.7576 142.266 93.8235 142.33 93.8636 142.407L95.1129 144.803C95.2443 145.055 95.4998 145.225 95.7906 145.258L98.4069 145.554C98.6612 145.583 98.8362 145.8 98.8069 146.032C98.7948 146.128 98.7483 146.218 98.6743 146.287L96.6065 148.211C96.4802 148.328 96.4181 148.496 96.4404 148.664L96.784 151.261C96.8194 151.528 96.6194 151.778 96.3278 151.813C96.2177 151.826 96.1061 151.806 96.0091 151.756L93.8244 150.63C93.6121 150.521 93.3569 150.517 93.1418 150.622L90.8783 151.717C90.6504 151.827 90.3738 151.74 90.26 151.529C90.2175 151.45 90.2019 151.361 90.2152 151.274L90.3961 150.082C90.4841 149.503 90.6811 148.948 91.1381 148.726L92.6544 148.087Z" stroke="#E6860D" stroke-width="0.632184"/>
</g>
<g style="mix-blend-mode:luminosity" clip-path="url(#clip10_58_1054)">
<path fill-rule="evenodd" clip-rule="evenodd" d="M32.225 144.551L30.0202 148.832C29.8928 149.08 29.6483 149.249 29.3677 149.284L24.9919 149.833C24.7024 149.87 24.4383 150.014 24.2543 150.235C23.8587 150.713 23.9328 151.413 24.4199 151.801L25.6898 153.172C26.304 153.66 27.5206 154.227 28.304 154.118L31.5519 153.645C31.5695 153.642 31.6351 153.63 31.7307 153.612C32.1568 153.531 33.1794 153.339 33.2154 153.408C33.2612 153.496 32.2771 153.918 31.8346 154.108C31.728 154.153 31.6528 154.186 31.6311 154.196L29.0962 155.3C28.1732 155.759 27.8282 156.874 27.6807 157.878L27.3792 159.93C27.3474 160.146 27.3848 160.367 27.4863 160.561C27.7574 161.081 28.4076 161.288 28.9385 161.022L32.711 159.135C32.9781 159.002 33.2952 159.006 33.5587 159.146L37.1998 161.085C37.4192 161.202 37.6705 161.249 37.9182 161.218C38.572 161.138 39.0355 160.554 38.9536 159.913L38.3808 155.44C38.3565 155.251 38.424 155.061 38.5631 154.927L42.0095 151.614C42.1848 151.445 42.296 151.223 42.3253 150.985C42.3959 150.405 41.9733 149.879 41.3814 149.809L37.0211 149.299C36.6397 149.255 36.3072 149.024 36.1371 148.687L34.0549 144.558C33.9567 144.364 33.7966 144.205 33.5986 144.108C33.0943 143.858 32.4794 144.057 32.225 144.551Z" fill="#FFECBF"/>
<mask id="mask9_58_1054" style="mask-type:alpha" maskUnits="userSpaceOnUse" x="23" y="143" width="20" height="19">
<path d="M32.9816 153.216C32.9816 153.216 32.9811 153.216 32.9797 153.217C32.9809 153.216 32.9816 153.216 32.9816 153.216ZM31.757 154.486L31.7645 154.483L31.7717 154.479C31.7717 154.479 31.7718 154.479 31.7721 154.479C31.7737 154.478 31.7805 154.475 31.7953 154.469C31.8114 154.462 31.8325 154.452 31.8585 154.441C31.8875 154.429 31.921 154.414 31.9587 154.398C31.9892 154.385 32.0225 154.371 32.0584 154.355C32.217 154.287 32.4192 154.2 32.6168 154.11C32.8127 154.021 33.0108 153.928 33.1586 153.847C33.2303 153.808 33.3026 153.766 33.3585 153.723C33.384 153.704 33.4247 153.671 33.4591 153.626C33.4774 153.602 33.592 153.448 33.4958 153.262C33.4477 153.17 33.3714 153.129 33.3381 153.114C33.3001 153.096 33.2657 153.089 33.2454 153.085C33.2037 153.078 33.1627 153.077 33.1328 153.077C33.0696 153.078 32.9928 153.084 32.9145 153.093C32.7548 153.111 32.5502 153.144 32.3498 153.178C32.1481 153.212 31.9453 153.25 31.7878 153.279C31.7442 153.287 31.7062 153.295 31.6721 153.301C31.6423 153.307 31.6156 153.312 31.5908 153.316C31.5654 153.321 31.5449 153.325 31.5295 153.328C31.5173 153.33 31.511 153.331 31.5087 153.331C31.5081 153.331 31.5078 153.331 31.5078 153.331L31.5061 153.332L28.2601 153.804L28.2592 153.804C27.9487 153.848 27.5107 153.757 27.0493 153.575C26.6053 153.399 26.1844 153.157 25.9048 152.939L24.6515 151.586L24.6352 151.568L24.6165 151.554C24.2669 151.275 24.2157 150.777 24.4974 150.437C24.6295 150.278 24.8202 150.173 25.031 150.147L29.4068 149.598C29.7889 149.55 30.1249 149.319 30.301 148.977L32.5058 144.695C32.6796 144.358 33.1056 144.217 33.4584 144.391C33.5957 144.459 33.7055 144.568 33.7725 144.7L35.8547 148.829C36.0735 149.263 36.4994 149.556 36.9842 149.613L41.3444 150.123C41.7684 150.173 42.06 150.546 42.0112 150.946C41.991 151.112 41.9137 151.267 41.7903 151.386L38.3439 154.699C38.1335 154.901 38.0299 155.19 38.0671 155.48L38.6398 159.953C38.6988 160.414 38.3654 160.845 37.8795 160.904C37.6959 160.927 37.51 160.892 37.3482 160.806L33.707 158.867C33.3532 158.678 32.928 158.673 32.5694 158.852L28.7969 160.739C28.4171 160.929 27.9561 160.779 27.7664 160.415C27.6956 160.279 27.6697 160.126 27.6917 159.976L27.9932 157.923C28.14 156.925 28.4682 155.97 29.2299 155.586L31.757 154.486Z" fill="#FFECBF" stroke="#E6860D" stroke-width="0.632184"/>
</mask>
<g mask="url(#mask9_58_1054)">
<path fill-rule="evenodd" clip-rule="evenodd" d="M30.6535 150.094L32.8583 145.812C33.1127 145.318 33.7276 145.12 34.2319 145.369C34.4299 145.467 34.59 145.625 34.6882 145.82L36.7704 149.949C36.9405 150.286 37.2731 150.516 37.6544 150.561L42.0148 151.071C42.6066 151.14 43.0293 151.666 42.9585 152.246C42.9294 152.485 42.8181 152.707 42.6428 152.875L39.1964 156.189C39.0573 156.322 38.9898 156.512 39.0141 156.702L39.5869 161.175C39.6688 161.815 39.2053 162.399 38.5515 162.48C38.3038 162.51 38.0525 162.464 37.8331 162.347L34.1919 160.407C33.9285 160.267 33.6114 160.263 33.3443 160.397L29.5718 162.284C29.0409 162.549 28.3907 162.343 28.1196 161.823C28.0181 161.628 27.9807 161.408 28.0125 161.191L28.314 159.139C28.4615 158.135 28.8065 157.021 29.7295 156.561L32.2644 155.458C32.3763 155.402 33.2456 155.016 33.1887 154.906C33.1446 154.821 32.2814 154.893 32.1852 154.906L28.9373 155.379C28.1539 155.488 26.9373 154.922 26.3231 154.433L25.0532 153.062C24.5661 152.675 24.492 151.974 24.8876 151.497C25.0716 151.275 25.3357 151.131 25.6252 151.095L30.001 150.546C30.2816 150.51 30.5261 150.341 30.6535 150.094Z" fill="#FFC438"/>
</g>
<path d="M32.9821 153.216C32.9821 153.216 32.9816 153.216 32.9802 153.217C32.9813 153.216 32.9821 153.216 32.9821 153.216ZM31.7575 154.486L31.765 154.483L31.7722 154.479C31.7722 154.479 31.7723 154.479 31.7726 154.479C31.7742 154.479 31.7809 154.475 31.7958 154.469C31.8118 154.462 31.833 154.453 31.8589 154.441C31.8879 154.429 31.9215 154.415 31.9592 154.398C31.9897 154.385 32.023 154.371 32.0588 154.356C32.2175 154.288 32.4197 154.2 32.6173 154.11C32.8132 154.022 33.0113 153.928 33.159 153.847C33.2308 153.808 33.3031 153.766 33.359 153.724C33.3845 153.704 33.4252 153.672 33.4596 153.627C33.4779 153.603 33.5925 153.448 33.4963 153.263C33.4482 153.17 33.3719 153.129 33.3386 153.114C33.3006 153.097 33.2662 153.089 33.2459 153.086C33.2042 153.078 33.1631 153.077 33.1333 153.077C33.0701 153.078 32.9933 153.085 32.9149 153.093C32.7553 153.112 32.5507 153.144 32.3503 153.178C32.1486 153.213 31.9458 153.25 31.7883 153.28C31.7447 153.288 31.7067 153.295 31.6725 153.301C31.6428 153.307 31.616 153.312 31.5913 153.317C31.5659 153.321 31.5454 153.325 31.53 153.328C31.5178 153.33 31.5115 153.331 31.5092 153.332C31.5086 153.332 31.5082 153.332 31.5082 153.332L31.5066 153.332L28.2606 153.805L28.2597 153.805C27.9492 153.848 27.5112 153.757 27.0498 153.575C26.6058 153.4 26.1849 153.158 25.9052 152.939L24.652 151.586L24.6357 151.569L24.617 151.554C24.2674 151.276 24.2161 150.777 24.4979 150.437C24.63 150.278 24.8207 150.173 25.0315 150.147L29.4073 149.598C29.7894 149.55 30.1254 149.319 30.3015 148.977L32.5063 144.696C32.6801 144.358 33.1061 144.217 33.4589 144.391C33.5962 144.459 33.706 144.568 33.7729 144.701L35.8552 148.83C36.074 149.264 36.4999 149.557 36.9847 149.613L41.345 150.123C41.7689 150.173 42.0605 150.547 42.0117 150.946C41.9916 151.112 41.9142 151.267 41.7907 151.386L38.3443 154.699C38.1339 154.902 38.0304 155.191 38.0676 155.48L38.6403 159.954C38.6993 160.414 38.3659 160.845 37.88 160.905C37.6964 160.927 37.5105 160.893 37.3487 160.807L33.7075 158.867C33.3537 158.679 32.9285 158.673 32.5699 158.853L28.7974 160.739C28.4176 160.929 27.9566 160.779 27.7668 160.415C27.696 160.279 27.6702 160.126 27.6922 159.976L27.9937 157.924C28.1405 156.925 28.4687 155.97 29.2304 155.586L31.7575 154.486Z" stroke="#E6860D" stroke-width="0.632184"/>
</g>
<g style="mix-blend-mode:luminosity" clip-path="url(#clip11_58_1054)">
<path fill-rule="evenodd" clip-rule="evenodd" d="M145.225 138.551L143.02 142.832C142.893 143.08 142.648 143.249 142.368 143.284L137.992 143.833C137.702 143.87 137.438 144.014 137.254 144.235C136.859 144.713 136.933 145.413 137.42 145.801L138.69 147.172C139.304 147.66 140.521 148.227 141.304 148.118L144.552 147.645C144.57 147.642 144.635 147.63 144.731 147.612C145.157 147.531 146.179 147.339 146.215 147.408C146.261 147.496 145.277 147.918 144.835 148.108C144.728 148.153 144.653 148.186 144.631 148.196L142.096 149.3C141.173 149.759 140.828 150.874 140.681 151.878L140.379 153.93C140.347 154.146 140.385 154.367 140.486 154.561C140.757 155.081 141.408 155.288 141.938 155.022L145.711 153.135C145.978 153.002 146.295 153.006 146.559 153.146L150.2 155.085C150.419 155.202 150.67 155.249 150.918 155.218C151.572 155.138 152.036 154.554 151.954 153.913L151.381 149.44C151.357 149.251 151.424 149.061 151.563 148.927L155.009 145.614C155.185 145.445 155.296 145.223 155.325 144.985C155.396 144.405 154.973 143.879 154.381 143.809L150.021 143.299C149.64 143.255 149.307 143.024 149.137 142.687L147.055 138.558C146.957 138.364 146.797 138.205 146.599 138.108C146.094 137.858 145.479 138.057 145.225 138.551Z" fill="#FFECBF"/>
<mask id="mask10_58_1054" style="mask-type:alpha" maskUnits="userSpaceOnUse" x="136" y="137" width="20" height="19">
<path d="M145.982 147.216C145.982 147.216 145.981 147.216 145.98 147.217C145.981 147.216 145.982 147.216 145.982 147.216ZM144.757 148.486L144.764 148.483L144.772 148.479C144.772 148.479 144.772 148.479 144.772 148.479C144.774 148.478 144.78 148.475 144.795 148.469C144.811 148.462 144.832 148.452 144.858 148.441C144.887 148.429 144.921 148.414 144.959 148.398C144.989 148.385 145.022 148.371 145.058 148.355C145.217 148.287 145.419 148.2 145.617 148.11C145.813 148.021 146.011 147.928 146.159 147.847C146.23 147.808 146.303 147.766 146.359 147.723C146.384 147.704 146.425 147.671 146.459 147.626C146.477 147.602 146.592 147.448 146.496 147.262C146.448 147.17 146.371 147.129 146.338 147.114C146.3 147.096 146.266 147.089 146.245 147.085C146.204 147.078 146.163 147.077 146.133 147.077C146.07 147.078 145.993 147.084 145.914 147.093C145.755 147.111 145.55 147.144 145.35 147.178C145.148 147.212 144.945 147.25 144.788 147.279C144.744 147.287 144.706 147.295 144.672 147.301C144.642 147.307 144.616 147.312 144.591 147.316C144.565 147.321 144.545 147.325 144.53 147.328C144.517 147.33 144.511 147.331 144.509 147.331C144.508 147.331 144.508 147.331 144.508 147.331L144.506 147.332L141.26 147.804L141.259 147.804C140.949 147.848 140.511 147.757 140.049 147.575C139.605 147.399 139.184 147.157 138.905 146.939L137.652 145.586L137.635 145.568L137.616 145.554C137.267 145.275 137.216 144.777 137.497 144.437C137.629 144.278 137.82 144.173 138.031 144.147L142.407 143.598C142.789 143.55 143.125 143.319 143.301 142.977L145.506 138.695C145.68 138.358 146.106 138.217 146.458 138.391C146.596 138.459 146.706 138.568 146.772 138.7L148.855 142.829C149.074 143.263 149.499 143.556 149.984 143.613L154.344 144.123C154.768 144.173 155.06 144.546 155.011 144.946C154.991 145.112 154.914 145.267 154.79 145.386L151.344 148.699C151.133 148.901 151.03 149.19 151.067 149.48L151.64 153.953C151.699 154.414 151.365 154.845 150.88 154.904C150.696 154.927 150.51 154.892 150.348 154.806L146.707 152.867C146.353 152.678 145.928 152.673 145.569 152.852L141.797 154.739C141.417 154.929 140.956 154.779 140.766 154.415C140.696 154.279 140.67 154.126 140.692 153.976L140.993 151.923C141.14 150.925 141.468 149.97 142.23 149.586L144.757 148.486Z" fill="#FFECBF" stroke="#E6860D" stroke-width="0.632184"/>
</mask>
<g mask="url(#mask10_58_1054)">
<path fill-rule="evenodd" clip-rule="evenodd" d="M143.654 144.094L145.858 139.812C146.113 139.318 146.728 139.12 147.232 139.369C147.43 139.467 147.59 139.625 147.688 139.82L149.77 143.949C149.941 144.286 150.273 144.516 150.654 144.561L155.015 145.071C155.607 145.14 156.029 145.666 155.958 146.246C155.929 146.485 155.818 146.707 155.643 146.875L152.196 150.189C152.057 150.322 151.99 150.512 152.014 150.702L152.587 155.175C152.669 155.815 152.205 156.399 151.552 156.48C151.304 156.51 151.053 156.464 150.833 156.347L147.192 154.407C146.929 154.267 146.611 154.263 146.344 154.397L142.572 156.284C142.041 156.549 141.391 156.343 141.12 155.823C141.018 155.628 140.981 155.408 141.012 155.191L141.314 153.139C141.461 152.135 141.807 151.021 142.729 150.561L145.264 149.458C145.376 149.402 146.246 149.016 146.189 148.906C146.145 148.821 145.281 148.893 145.185 148.906L141.937 149.379C141.154 149.488 139.937 148.922 139.323 148.433L138.053 147.062C137.566 146.675 137.492 145.974 137.888 145.497C138.072 145.275 138.336 145.131 138.625 145.095L143.001 144.546C143.282 144.51 143.526 144.341 143.654 144.094Z" fill="#FFC438"/>
</g>
<path d="M145.982 147.216C145.982 147.216 145.982 147.216 145.98 147.217C145.981 147.216 145.982 147.216 145.982 147.216ZM144.758 148.486L144.765 148.483L144.772 148.479C144.772 148.479 144.772 148.479 144.773 148.479C144.774 148.479 144.781 148.475 144.796 148.469C144.812 148.462 144.833 148.453 144.859 148.441C144.888 148.429 144.921 148.415 144.959 148.398C144.99 148.385 145.023 148.371 145.059 148.356C145.218 148.288 145.42 148.2 145.617 148.11C145.813 148.022 146.011 147.928 146.159 147.847C146.231 147.808 146.303 147.766 146.359 147.724C146.384 147.704 146.425 147.672 146.46 147.627C146.478 147.603 146.592 147.448 146.496 147.263C146.448 147.17 146.372 147.129 146.339 147.114C146.301 147.097 146.266 147.089 146.246 147.086C146.204 147.078 146.163 147.077 146.133 147.077C146.07 147.078 145.993 147.085 145.915 147.093C145.755 147.112 145.551 147.144 145.35 147.178C145.149 147.213 144.946 147.25 144.788 147.28C144.745 147.288 144.707 147.295 144.673 147.301C144.643 147.307 144.616 147.312 144.591 147.317C144.566 147.321 144.545 147.325 144.53 147.328C144.518 147.33 144.511 147.331 144.509 147.332C144.509 147.332 144.508 147.332 144.508 147.332L144.507 147.332L141.261 147.805L141.26 147.805C140.949 147.848 140.511 147.757 140.05 147.575C139.606 147.4 139.185 147.158 138.905 146.939L137.652 145.586L137.636 145.569L137.617 145.554C137.267 145.276 137.216 144.777 137.498 144.437C137.63 144.278 137.821 144.173 138.032 144.147L142.407 143.598C142.789 143.55 143.125 143.319 143.302 142.977L145.506 138.696C145.68 138.358 146.106 138.217 146.459 138.391C146.596 138.459 146.706 138.568 146.773 138.701L148.855 142.83C149.074 143.264 149.5 143.557 149.985 143.613L154.345 144.123C154.769 144.173 155.061 144.547 155.012 144.946C154.992 145.112 154.914 145.267 154.791 145.386L151.344 148.699C151.134 148.902 151.03 149.191 151.068 149.48L151.64 153.954C151.699 154.414 151.366 154.845 150.88 154.905C150.696 154.927 150.51 154.893 150.349 154.807L146.708 152.867C146.354 152.679 145.928 152.673 145.57 152.853L141.797 154.739C141.418 154.929 140.957 154.779 140.767 154.415C140.696 154.279 140.67 154.126 140.692 153.976L140.994 151.924C141.14 150.925 141.469 149.97 142.23 149.586L144.758 148.486Z" stroke="#E6860D" stroke-width="0.632184"/>
</g>
</g>
<defs>
<clipPath id="clip0_58_1054">
<rect width="172" height="191" fill="white"/>
</clipPath>
<clipPath id="clip1_58_1054">
<rect width="18.3333" height="17.227" fill="white" transform="translate(137 19)"/>
</clipPath>
<clipPath id="clip2_58_1054">
<rect width="18.3333" height="17.227" fill="white" transform="translate(38 8)"/>
</clipPath>
<clipPath id="clip3_58_1054">
<rect width="18.3333" height="17.227" fill="white" transform="translate(-4 61)"/>
</clipPath>
<clipPath id="clip4_58_1054">
<rect width="18.3333" height="17.227" fill="white" transform="translate(53 99)"/>
</clipPath>
<clipPath id="clip5_58_1054">
<rect width="18.3333" height="17.227" fill="white" transform="translate(90 56)"/>
</clipPath>
<clipPath id="clip6_58_1054">
<rect width="15" height="14" fill="white" transform="translate(38 56)"/>
</clipPath>
<clipPath id="clip7_58_1054">
<rect width="15" height="14" fill="white" transform="translate(5 122)"/>
</clipPath>
<clipPath id="clip8_58_1054">
<rect width="11" height="10" fill="white" transform="translate(99 12)"/>
</clipPath>
<clipPath id="clip9_58_1054">
<rect width="11" height="10" fill="white" transform="translate(88 142)"/>
</clipPath>
<clipPath id="clip10_58_1054">
<rect width="18.3333" height="17.227" fill="white" transform="translate(24 144)"/>
</clipPath>
<clipPath id="clip11_58_1054">
<rect width="18.3333" height="17.227" fill="white" transform="translate(137 138)"/>
</clipPath>
</defs>
</svg>
