<svg width="172" height="190" viewBox="0 0 172 190" fill="none" xmlns="http://www.w3.org/2000/svg">
<g opacity="0.2">
<g style="mix-blend-mode:luminosity" clip-path="url(#clip0_58_1136)">
<path fill-rule="evenodd" clip-rule="evenodd" d="M145.225 18.5508L143.02 22.8322C142.893 23.0796 142.648 23.249 142.368 23.2842L137.992 23.8332C137.702 23.8696 137.438 24.0136 137.254 24.2355C136.859 24.7125 136.933 25.4135 137.42 25.801L138.69 27.1717C139.304 27.6604 140.521 28.2269 141.304 28.1175L144.552 27.6446C144.57 27.6422 144.635 27.6298 144.731 27.6118C145.157 27.5315 146.179 27.3388 146.215 27.4082C146.261 27.4965 145.277 27.9181 144.835 28.1077C144.728 28.1533 144.653 28.1855 144.631 28.1963L142.096 29.2998C141.173 29.7594 140.828 30.8737 140.681 31.8775L140.379 33.9298C140.347 34.146 140.385 34.3666 140.486 34.5612C140.757 35.0813 141.408 35.2875 141.938 35.022L145.711 33.1352C145.978 33.0016 146.295 33.0057 146.559 33.146L150.2 35.0854C150.419 35.2024 150.67 35.2488 150.918 35.2183C151.572 35.138 152.036 34.5537 151.954 33.9133L151.381 29.4402C151.357 29.2507 151.424 29.0609 151.563 28.9272L155.009 25.6138C155.185 25.4453 155.296 25.2234 155.325 24.9846C155.396 24.4048 154.973 23.8786 154.381 23.8094L150.021 23.2994C149.64 23.2548 149.307 23.0245 149.137 22.6872L147.055 18.5583C146.957 18.3635 146.797 18.2054 146.599 18.1075C146.094 17.8584 145.479 18.0568 145.225 18.5508Z" fill="#FFECBF"/>
<mask id="mask0_58_1136" style="mask-type:alpha" maskUnits="userSpaceOnUse" x="136" y="17" width="20" height="19">
<path d="M145.982 27.2156C145.982 27.2156 145.981 27.2161 145.98 27.2172C145.981 27.2162 145.982 27.2156 145.982 27.2156ZM144.757 28.4861L144.764 28.4828L144.772 28.4792C144.772 28.4792 144.772 28.4792 144.772 28.479C144.774 28.4783 144.78 28.4752 144.795 28.4686C144.811 28.4615 144.832 28.4524 144.858 28.4412C144.887 28.4287 144.921 28.4143 144.959 28.3981C144.989 28.3851 145.022 28.3708 145.058 28.3554C145.217 28.2873 145.419 28.1998 145.617 28.1102C145.813 28.0215 146.011 27.9277 146.159 27.8472C146.23 27.8081 146.303 27.7656 146.359 27.7234C146.384 27.7041 146.425 27.6713 146.459 27.6264C146.477 27.6024 146.592 27.4478 146.496 27.2624C146.448 27.1699 146.371 27.1289 146.338 27.1137C146.3 27.0963 146.266 27.0889 146.245 27.0853C146.204 27.0779 146.163 27.077 146.133 27.0772C146.07 27.0776 145.993 27.0843 145.914 27.0932C145.755 27.1114 145.55 27.1436 145.35 27.1778C145.148 27.2123 144.945 27.2497 144.788 27.2793C144.744 27.2874 144.706 27.2946 144.672 27.301C144.642 27.3066 144.616 27.3117 144.591 27.3163C144.565 27.3211 144.545 27.3248 144.53 27.3276C144.517 27.3299 144.511 27.3309 144.509 27.3313C144.508 27.3314 144.508 27.3315 144.508 27.3315L144.506 27.3317L141.26 27.8044L141.259 27.8045C140.949 27.8476 140.511 27.7569 140.049 27.5748C139.605 27.3995 139.184 27.1573 138.905 26.9387L137.652 25.5861L137.635 25.5685L137.616 25.5536C137.267 25.2755 137.216 24.7769 137.497 24.4371C137.629 24.2779 137.82 24.1732 138.031 24.1468L142.407 23.5977C142.789 23.5497 143.125 23.3187 143.301 22.9768L145.506 18.6954C145.68 18.358 146.106 18.2165 146.458 18.3908C146.596 18.4587 146.706 18.5678 146.772 18.7005L148.855 22.8294C149.074 23.2634 149.499 23.5565 149.984 23.6132L154.344 24.1232C154.768 24.1728 155.06 24.5463 155.011 24.9462C154.991 25.112 154.914 25.2672 154.79 25.3858L151.344 28.6992C151.133 28.9015 151.03 29.1903 151.067 29.4802L151.64 33.9534C151.699 34.4141 151.365 34.8447 150.88 34.9045C150.696 34.9271 150.51 34.8925 150.348 34.8063L146.707 32.8669C146.353 32.6784 145.928 32.673 145.569 32.8524L141.797 34.7392C141.417 34.9291 140.956 34.779 140.766 34.415C140.696 34.2791 140.67 34.1258 140.692 33.9756L140.993 31.9233C141.14 30.9246 141.468 29.9701 142.23 29.5861L144.757 28.4861Z" fill="#FFECBF" stroke="#E6860D" stroke-width="0.632184"/>
</mask>
<g mask="url(#mask0_58_1136)">
<path fill-rule="evenodd" clip-rule="evenodd" d="M143.654 24.0936L145.858 19.8122C146.113 19.3183 146.728 19.1199 147.232 19.369C147.43 19.4668 147.59 19.625 147.688 19.8197L149.77 23.9486C149.941 24.2859 150.273 24.5162 150.654 24.5608L155.015 25.0709C155.607 25.1401 156.029 25.6663 155.958 26.2461C155.929 26.4849 155.818 26.7068 155.643 26.8753L152.196 30.1886C152.057 30.3224 151.99 30.5122 152.014 30.7017L152.587 35.1749C152.669 35.8153 152.205 36.3994 151.552 36.4799C151.304 36.5102 151.053 36.4638 150.833 36.347L147.192 34.4074C146.929 34.2671 146.611 34.2631 146.344 34.3967L142.572 36.2836C142.041 36.5491 141.391 36.3427 141.12 35.8227C141.018 35.6282 140.981 35.4075 141.012 35.1913L141.314 33.139C141.461 32.1352 141.807 31.0208 142.729 30.5613L145.264 29.4578C145.376 29.4021 146.246 29.0157 146.189 28.9061C146.145 28.8212 145.281 28.8926 145.185 28.9061L141.937 29.379C141.154 29.4884 139.937 28.9219 139.323 28.4332L138.053 27.0625C137.566 26.6749 137.492 25.974 137.888 25.4969C138.072 25.2751 138.336 25.1311 138.625 25.0947L143.001 24.5456C143.282 24.5104 143.526 24.3411 143.654 24.0936Z" fill="#FFC438"/>
</g>
<path d="M145.982 27.2159C145.982 27.2159 145.982 27.2163 145.98 27.2174C145.981 27.2164 145.982 27.2159 145.982 27.2159ZM144.758 28.4863L144.765 28.4831L144.772 28.4794C144.772 28.4794 144.772 28.4794 144.773 28.4793C144.774 28.4785 144.781 28.4754 144.796 28.4688C144.812 28.4618 144.833 28.4526 144.859 28.4414C144.888 28.4289 144.921 28.4146 144.959 28.3984C144.99 28.3853 145.023 28.3711 145.059 28.3557C145.218 28.2875 145.42 28.2 145.617 28.1105C145.813 28.0217 146.011 27.9279 146.159 27.8474C146.231 27.8084 146.303 27.7658 146.359 27.7236C146.384 27.7044 146.425 27.6715 146.46 27.6266C146.478 27.6026 146.592 27.4481 146.496 27.2627C146.448 27.1701 146.372 27.1291 146.339 27.1139C146.301 27.0966 146.266 27.0891 146.246 27.0856C146.204 27.0782 146.163 27.0772 146.133 27.0774C146.07 27.0779 145.993 27.0846 145.915 27.0935C145.755 27.1116 145.551 27.1438 145.35 27.1781C145.149 27.2125 144.946 27.25 144.788 27.2795C144.745 27.2877 144.707 27.2948 144.673 27.3013C144.643 27.3069 144.616 27.3119 144.591 27.3166C144.566 27.3213 144.545 27.3251 144.53 27.3279C144.518 27.3301 144.511 27.3312 144.509 27.3315C144.509 27.3316 144.508 27.3317 144.508 27.3317L144.507 27.3319L141.261 27.8046L141.26 27.8047C140.949 27.8478 140.511 27.7572 140.05 27.575C139.606 27.3997 139.185 27.1576 138.905 26.9389L137.652 25.5863L137.636 25.5687L137.617 25.5538C137.267 25.2757 137.216 24.7771 137.498 24.4374C137.63 24.2782 137.821 24.1735 138.032 24.147L142.407 23.5979C142.789 23.55 143.125 23.319 143.302 22.977L145.506 18.6956C145.68 18.3582 146.106 18.2168 146.459 18.3911C146.596 18.4589 146.706 18.568 146.773 18.7007L148.855 22.8296C149.074 23.2636 149.5 23.5567 149.985 23.6134L154.345 24.1235C154.769 24.1731 155.061 24.5465 155.012 24.9465C154.992 25.1122 154.914 25.2675 154.791 25.3861L151.344 28.6994C151.134 28.9017 151.03 29.1905 151.068 29.4805L151.64 33.9536C151.699 34.4143 151.366 34.845 150.88 34.9047C150.696 34.9273 150.51 34.8927 150.349 34.8066L146.708 32.8671C146.354 32.6787 145.928 32.6733 145.57 32.8526L141.797 34.7394C141.418 34.9294 140.957 34.7792 140.767 34.4153C140.696 34.2793 140.67 34.126 140.692 33.9759L140.994 31.9236C141.14 30.9249 141.469 29.9704 142.23 29.5864L144.758 28.4863Z" stroke="#E6860D" stroke-width="0.632184"/>
</g>
<g style="mix-blend-mode:luminosity" clip-path="url(#clip1_58_1136)">
<path fill-rule="evenodd" clip-rule="evenodd" d="M46.225 7.55076L44.0202 11.8322C43.8928 12.0796 43.6483 12.249 43.3677 12.2842L38.9919 12.8332C38.7024 12.8696 38.4383 13.0136 38.2543 13.2355C37.8587 13.7125 37.9328 14.4135 38.4199 14.801L39.6898 16.1717C40.304 16.6604 41.5206 17.2269 42.304 17.1175L45.5519 16.6446C45.5695 16.6422 45.6351 16.6298 45.7307 16.6118C46.1568 16.5315 47.1794 16.3388 47.2154 16.4082C47.2612 16.4965 46.2771 16.9181 45.8346 17.1077C45.728 17.1533 45.6528 17.1855 45.6311 17.1963L43.0962 18.2998C42.1732 18.7594 41.8282 19.8737 41.6807 20.8775L41.3792 22.9298C41.3474 23.146 41.3848 23.3666 41.4863 23.5612C41.7574 24.0813 42.4076 24.2875 42.9385 24.022L46.711 22.1352C46.9781 22.0016 47.2952 22.0057 47.5587 22.146L51.1998 24.0854C51.4192 24.2024 51.6705 24.2488 51.9182 24.2183C52.572 24.138 53.0355 23.5537 52.9536 22.9133L52.3808 18.4402C52.3565 18.2507 52.424 18.0609 52.5631 17.9272L56.0095 14.6138C56.1848 14.4453 56.296 14.2234 56.3253 13.9846C56.3959 13.4048 55.9733 12.8786 55.3814 12.8094L51.0211 12.2994C50.6397 12.2548 50.3072 12.0245 50.1371 11.6872L48.0549 7.55826C47.9567 7.36354 47.7966 7.20535 47.5986 7.10755C47.0943 6.85841 46.4794 7.05684 46.225 7.55076Z" fill="#FFECBF"/>
<mask id="mask1_58_1136" style="mask-type:alpha" maskUnits="userSpaceOnUse" x="37" y="6" width="20" height="19">
<path d="M46.9816 16.2156C46.9816 16.2156 46.9811 16.2161 46.9797 16.2172C46.9809 16.2162 46.9816 16.2156 46.9816 16.2156ZM45.757 17.4861L45.7645 17.4828L45.7717 17.4792C45.7717 17.4792 45.7718 17.4792 45.7721 17.479C45.7737 17.4783 45.7805 17.4752 45.7953 17.4686C45.8114 17.4615 45.8325 17.4524 45.8585 17.4412C45.8875 17.4287 45.921 17.4143 45.9587 17.3981C45.9892 17.3851 46.0225 17.3708 46.0584 17.3554C46.217 17.2873 46.4192 17.1998 46.6168 17.1102C46.8127 17.0215 47.0108 16.9277 47.1586 16.8472C47.2303 16.8081 47.3026 16.7656 47.3585 16.7234C47.384 16.7041 47.4247 16.6713 47.4591 16.6264C47.4774 16.6024 47.592 16.4478 47.4958 16.2624C47.4477 16.1699 47.3714 16.1289 47.3381 16.1137C47.3001 16.0963 47.2657 16.0889 47.2454 16.0853C47.2037 16.0779 47.1627 16.077 47.1328 16.0772C47.0696 16.0776 46.9928 16.0843 46.9145 16.0932C46.7548 16.1114 46.5502 16.1436 46.3498 16.1778C46.1481 16.2123 45.9453 16.2497 45.7878 16.2793C45.7442 16.2874 45.7062 16.2946 45.6721 16.301C45.6423 16.3066 45.6156 16.3117 45.5908 16.3163C45.5654 16.3211 45.5449 16.3248 45.5295 16.3276C45.5173 16.3299 45.511 16.3309 45.5087 16.3313C45.5081 16.3314 45.5078 16.3315 45.5078 16.3315L45.5061 16.3317L42.2601 16.8044L42.2592 16.8045C41.9487 16.8476 41.5107 16.7569 41.0493 16.5748C40.6053 16.3995 40.1844 16.1573 39.9048 15.9387L38.6515 14.5861L38.6352 14.5685L38.6165 14.5536C38.2669 14.2755 38.2157 13.7769 38.4974 13.4371C38.6295 13.2779 38.8202 13.1732 39.031 13.1468L43.4068 12.5977C43.7889 12.5497 44.1249 12.3187 44.301 11.9768L46.5058 7.69536C46.6796 7.35799 47.1056 7.21651 47.4584 7.39082C47.5957 7.45868 47.7055 7.56777 47.7725 7.70047L49.8547 11.8294C50.0735 12.2634 50.4994 12.5565 50.9842 12.6132L55.3444 13.1232C55.7684 13.1728 56.06 13.5463 56.0112 13.9462C55.991 14.112 55.9137 14.2672 55.7903 14.3858L52.3439 17.6992C52.1335 17.9015 52.0299 18.1903 52.0671 18.4802L52.6398 22.9534C52.6988 23.4141 52.3654 23.8447 51.8795 23.9045C51.6959 23.9271 51.51 23.8925 51.3482 23.8063L47.707 21.8669C47.3532 21.6784 46.928 21.673 46.5694 21.8524L42.7969 23.7392C42.4171 23.9291 41.9561 23.779 41.7664 23.415C41.6956 23.2791 41.6697 23.1258 41.6917 22.9756L41.9932 20.9233C42.14 19.9246 42.4682 18.9701 43.2299 18.5861L45.757 17.4861Z" fill="#FFECBF" stroke="#E6860D" stroke-width="0.632184"/>
</mask>
<g mask="url(#mask1_58_1136)">
<path fill-rule="evenodd" clip-rule="evenodd" d="M44.6535 13.0936L46.8583 8.81223C47.1127 8.31832 47.7276 8.11988 48.2319 8.36902C48.4299 8.46683 48.59 8.62502 48.6882 8.81973L50.7704 12.9486C50.9405 13.2859 51.2731 13.5162 51.6544 13.5608L56.0148 14.0709C56.6066 14.1401 57.0293 14.6663 56.9585 15.2461C56.9294 15.4849 56.8181 15.7068 56.6428 15.8753L53.1964 19.1886C53.0573 19.3224 52.9898 19.5122 53.0141 19.7017L53.5869 24.1749C53.6688 24.8153 53.2053 25.3994 52.5515 25.4799C52.3038 25.5102 52.0525 25.4638 51.8331 25.347L48.1919 23.4074C47.9285 23.2671 47.6114 23.2631 47.3443 23.3967L43.5718 25.2836C43.0409 25.5491 42.3907 25.3427 42.1196 24.8227C42.0181 24.6282 41.9807 24.4075 42.0125 24.1913L42.314 22.139C42.4615 21.1352 42.8065 20.0208 43.7295 19.5613L46.2644 18.4578C46.3763 18.4021 47.2456 18.0157 47.1887 17.9061C47.1446 17.8212 46.2814 17.8926 46.1852 17.9061L42.9373 18.379C42.1539 18.4884 40.9373 17.9219 40.3231 17.4332L39.0532 16.0625C38.5661 15.6749 38.492 14.974 38.8876 14.4969C39.0716 14.2751 39.3357 14.1311 39.6252 14.0947L44.001 13.5456C44.2816 13.5104 44.5261 13.3411 44.6535 13.0936Z" fill="#FFC438"/>
</g>
<path d="M46.9821 16.2159C46.9821 16.2159 46.9816 16.2163 46.9802 16.2174C46.9813 16.2164 46.9821 16.2159 46.9821 16.2159ZM45.7575 17.4863L45.765 17.4831L45.7722 17.4794C45.7722 17.4794 45.7723 17.4794 45.7726 17.4793C45.7742 17.4785 45.7809 17.4754 45.7958 17.4688C45.8118 17.4618 45.833 17.4526 45.8589 17.4414C45.8879 17.4289 45.9215 17.4146 45.9592 17.3984C45.9897 17.3853 46.023 17.3711 46.0588 17.3557C46.2175 17.2875 46.4197 17.2 46.6173 17.1105C46.8132 17.0217 47.0113 16.9279 47.159 16.8474C47.2308 16.8084 47.3031 16.7658 47.359 16.7236C47.3845 16.7044 47.4252 16.6715 47.4596 16.6266C47.4779 16.6026 47.5925 16.4481 47.4963 16.2627C47.4482 16.1701 47.3719 16.1291 47.3386 16.1139C47.3006 16.0966 47.2662 16.0891 47.2459 16.0856C47.2042 16.0782 47.1631 16.0772 47.1333 16.0774C47.0701 16.0779 46.9933 16.0846 46.9149 16.0935C46.7553 16.1116 46.5507 16.1438 46.3503 16.1781C46.1486 16.2125 45.9458 16.25 45.7883 16.2795C45.7447 16.2877 45.7067 16.2948 45.6725 16.3013C45.6428 16.3069 45.616 16.3119 45.5913 16.3166C45.5659 16.3213 45.5454 16.3251 45.53 16.3279C45.5178 16.3301 45.5115 16.3312 45.5092 16.3315C45.5086 16.3316 45.5082 16.3317 45.5082 16.3317L45.5066 16.3319L42.2606 16.8046L42.2597 16.8047C41.9492 16.8478 41.5112 16.7572 41.0498 16.575C40.6058 16.3997 40.1849 16.1576 39.9052 15.9389L38.652 14.5863L38.6357 14.5687L38.617 14.5538C38.2674 14.2757 38.2161 13.7771 38.4979 13.4374C38.63 13.2782 38.8207 13.1735 39.0315 13.147L43.4073 12.5979C43.7894 12.55 44.1254 12.319 44.3015 11.977L46.5063 7.6956C46.6801 7.35824 47.1061 7.21676 47.4589 7.39107C47.5962 7.45893 47.706 7.56801 47.7729 7.70072L49.8552 11.8296C50.074 12.2636 50.4999 12.5567 50.9847 12.6134L55.345 13.1235C55.7689 13.1731 56.0605 13.5465 56.0117 13.9465C55.9916 14.1122 55.9142 14.2675 55.7907 14.3861L52.3443 17.6994C52.1339 17.9017 52.0304 18.1905 52.0676 18.4805L52.6403 22.9536C52.6993 23.4143 52.3659 23.845 51.88 23.9047C51.6964 23.9273 51.5105 23.8927 51.3487 23.8066L47.7075 21.8671C47.3537 21.6787 46.9285 21.6733 46.5699 21.8526L42.7974 23.7394C42.4176 23.9294 41.9566 23.7792 41.7668 23.4153C41.696 23.2793 41.6702 23.126 41.6922 22.9759L41.9937 20.9236C42.1405 19.9249 42.4687 18.9704 43.2304 18.5864L45.7575 17.4863Z" stroke="#E6860D" stroke-width="0.632184"/>
</g>
<g style="mix-blend-mode:luminosity" clip-path="url(#clip2_58_1136)">
<path fill-rule="evenodd" clip-rule="evenodd" d="M44.7296 55.4476L42.9256 58.927C42.8214 59.1281 42.6213 59.2657 42.3917 59.2943L38.8115 59.7405C38.5747 59.7701 38.3586 59.8871 38.2081 60.0674C37.8844 60.4551 37.945 61.0248 38.3435 61.3397L39.3826 62.4536C39.8851 62.8508 40.8805 63.3112 41.5214 63.2223L44.1788 62.838C44.1932 62.836 44.2469 62.8259 44.3251 62.8113C44.6738 62.746 45.5104 62.5894 45.5399 62.6458C45.5774 62.7176 44.7721 63.0602 44.4101 63.2143C44.3229 63.2514 44.2614 63.2776 44.2436 63.2863L42.1696 64.1831C41.4144 64.5566 41.1322 65.4622 41.0115 66.2779L40.7648 67.9458C40.7388 68.1215 40.7694 68.3008 40.8524 68.4589C41.0742 68.8816 41.6062 69.0492 42.0406 68.8334L45.1272 67.3C45.3457 67.1915 45.6052 67.1948 45.8207 67.3088L48.7999 68.8849C48.9794 68.98 49.1849 69.0177 49.3877 68.9929C49.9226 68.9277 50.3018 68.4529 50.2347 67.9324L49.7661 64.2972C49.7463 64.1432 49.8014 63.989 49.9153 63.8803L52.735 61.1876C52.8784 61.0507 52.9695 60.8703 52.9934 60.6762C53.0512 60.205 52.7054 59.7774 52.2212 59.7212L48.6536 59.3067C48.3416 59.2704 48.0695 59.0833 47.9304 58.8092L46.2267 55.4537C46.1464 55.2954 46.0154 55.1669 45.8534 55.0874C45.4408 54.8849 44.9377 55.0462 44.7296 55.4476Z" fill="#FFECBF"/>
<mask id="mask2_58_1136" style="mask-type:alpha" maskUnits="userSpaceOnUse" x="37" y="54" width="17" height="16">
<path d="M45.3486 62.4894C45.3486 62.4894 45.3482 62.4898 45.3471 62.4907C45.348 62.4899 45.3486 62.4894 45.3486 62.4894ZM44.3467 63.5219L44.3528 63.5192L44.3588 63.5163C44.3588 63.5163 44.3588 63.5163 44.3591 63.5162C44.3604 63.5156 44.3659 63.513 44.3781 63.5077C44.3912 63.5019 44.4085 63.4945 44.4297 63.4854C44.4534 63.4752 44.4809 63.4636 44.5118 63.4504C44.5367 63.4398 44.5639 63.4282 44.5933 63.4157C44.7231 63.3603 44.8885 63.2892 45.0502 63.2165C45.2105 63.1443 45.3725 63.0681 45.4934 63.0027C45.5521 62.9709 45.6113 62.9364 45.657 62.9021C45.6779 62.8864 45.7112 62.8597 45.7393 62.8232C45.7543 62.8037 45.8481 62.6781 45.7693 62.5275C45.73 62.4522 45.6676 62.4189 45.6403 62.4066C45.6093 62.3925 45.5811 62.3864 45.5645 62.3835C45.5303 62.3775 45.4968 62.3768 45.4724 62.3769C45.4207 62.3773 45.3578 62.3827 45.2937 62.3899C45.1631 62.4047 44.9957 62.4309 44.8317 62.4587C44.6667 62.4867 44.5008 62.5172 44.3719 62.5411C44.3362 62.5478 44.3051 62.5536 44.2772 62.5588C44.2529 62.5634 44.231 62.5675 44.2107 62.5713C44.19 62.5751 44.1732 62.5782 44.1606 62.5805C44.1506 62.5823 44.1454 62.5831 44.1436 62.5834C44.1431 62.5835 44.1428 62.5836 44.1428 62.5836L44.1414 62.5838L41.4856 62.9679L41.4849 62.968C41.2308 63.003 40.8725 62.9293 40.495 62.7813C40.1317 62.6388 39.7873 62.442 39.5585 62.2644L38.5331 61.1651L38.5198 61.1508L38.5044 61.1387C38.2185 60.9127 38.1765 60.5075 38.4071 60.2314C38.5151 60.102 38.6712 60.0169 38.8436 59.9954L42.4238 59.5492C42.7365 59.5102 43.0114 59.3225 43.1555 59.0446L44.9594 55.5652C45.1015 55.291 45.4501 55.1761 45.7387 55.3177C45.8511 55.3729 45.941 55.4615 45.9957 55.5694L47.6993 58.9248C47.8784 59.2775 48.2269 59.5157 48.6235 59.5618L52.1909 59.9763C52.5379 60.0166 52.7765 60.3201 52.7365 60.6451C52.72 60.7799 52.6567 60.906 52.5557 61.0024L49.7359 63.6951C49.5638 63.8595 49.4791 64.0942 49.5095 64.3298L49.9781 67.965C50.0264 68.3394 49.7536 68.6894 49.356 68.738C49.2058 68.7564 49.0537 68.7282 48.9213 68.6582L45.9422 67.0821C45.6527 66.9289 45.3048 66.9245 45.0114 67.0703L41.9248 68.6036C41.614 68.758 41.2369 68.636 41.0816 68.3402C41.0237 68.2297 41.0025 68.1052 41.0206 67.9831L41.2673 66.3153C41.3873 65.5037 41.6559 64.728 42.2791 64.4159L44.3467 63.5219Z" fill="#FFECBF" stroke="#E6860D" stroke-width="0.632184"/>
</mask>
<g mask="url(#mask2_58_1136)">
<path fill-rule="evenodd" clip-rule="evenodd" d="M43.4439 59.9521L45.2479 56.4727C45.456 56.0713 45.9591 55.9101 46.3717 56.1125C46.5337 56.192 46.6647 56.3206 46.745 56.4788L48.4487 59.8343C48.5878 60.1084 48.8599 60.2956 49.1719 60.3318L52.7395 60.7463C53.2238 60.8026 53.5696 61.2302 53.5116 61.7014C53.4878 61.8954 53.3968 62.0758 53.2534 62.2127L50.4336 64.9054C50.3198 65.0141 50.2646 65.1683 50.2844 65.3223L50.753 68.9576C50.8201 69.4781 50.4409 69.9528 49.906 70.0182C49.7033 70.0428 49.4977 70.0051 49.3182 69.9101L46.339 68.3339C46.1235 68.2199 45.864 68.2166 45.6455 68.3252L42.5589 69.8586C42.1245 70.0744 41.5925 69.9067 41.3707 69.4841C41.2877 69.326 41.2571 69.1467 41.2831 68.971L41.5298 67.3031C41.6505 66.4873 41.9327 65.5817 42.6879 65.2082L44.7619 64.3115C44.8535 64.2662 45.5647 63.9522 45.5182 63.8631C45.4821 63.7941 44.7759 63.8522 44.6971 63.8631L42.0398 64.2474C41.3988 64.3363 40.4034 63.8759 39.9009 63.4788L38.8618 62.3649C38.4633 62.0499 38.4027 61.4803 38.7264 61.0926C38.877 60.9123 39.093 60.7952 39.3299 60.7657L42.91 60.3195C43.1397 60.2909 43.3397 60.1532 43.4439 59.9521Z" fill="#FFC438"/>
</g>
<path d="M45.3489 62.4894C45.3489 62.4894 45.3485 62.4898 45.3474 62.4907C45.3483 62.4899 45.3489 62.4894 45.3489 62.4894ZM44.347 63.5219L44.3531 63.5192L44.359 63.5163C44.359 63.5163 44.3591 63.5163 44.3593 63.5162C44.3606 63.5156 44.3661 63.513 44.3783 63.5077C44.3914 63.5019 44.4087 63.4945 44.43 63.4854C44.4537 63.4752 44.4811 63.4636 44.512 63.4504C44.537 63.4398 44.5642 63.4282 44.5935 63.4157C44.7233 63.3603 44.8888 63.2892 45.0504 63.2165C45.2107 63.1443 45.3728 63.0681 45.4937 63.0027C45.5524 62.9709 45.6115 62.9364 45.6573 62.902C45.6781 62.8864 45.7115 62.8597 45.7396 62.8232C45.7546 62.8037 45.8483 62.6781 45.7696 62.5275C45.7303 62.4522 45.6678 62.4189 45.6406 62.4066C45.6095 62.3925 45.5813 62.3864 45.5647 62.3835C45.5306 62.3775 45.497 62.3768 45.4726 62.3769C45.4209 62.3773 45.358 62.3827 45.294 62.39C45.1634 62.4047 44.9959 62.4309 44.832 62.4587C44.6669 62.4867 44.501 62.5171 44.3721 62.5411C44.3365 62.5478 44.3054 62.5536 44.2774 62.5588C44.2531 62.5634 44.2312 62.5675 44.211 62.5712C44.1902 62.5751 44.1734 62.5782 44.1608 62.5805C44.1508 62.5823 44.1457 62.5831 44.1438 62.5834C44.1433 62.5835 44.143 62.5836 44.143 62.5836L44.1417 62.5838L41.4858 62.9679L41.4851 62.968C41.2311 63.003 40.8727 62.9293 40.4952 62.7813C40.1319 62.6388 39.7876 62.442 39.5587 62.2644L38.5334 61.1651L38.52 61.1508L38.5047 61.1387C38.2187 60.9127 38.1768 60.5075 38.4073 60.2314C38.5153 60.102 38.6714 60.0169 38.8439 59.9954L42.4241 59.5492C42.7367 59.5102 43.0116 59.3225 43.1557 59.0446L44.9596 55.5652C45.1018 55.291 45.4503 55.1761 45.739 55.3177C45.8513 55.3729 45.9412 55.4615 45.996 55.5694L47.6996 58.9248C47.8787 59.2775 48.2271 59.5157 48.6237 59.5618L52.1913 59.9763C52.5381 60.0166 52.7767 60.3201 52.7367 60.6451C52.7203 60.7799 52.657 60.906 52.556 61.0024L49.7362 63.6951C49.564 63.8595 49.4794 64.0942 49.5097 64.3298L49.9783 67.965C50.0266 68.3394 49.7538 68.6894 49.3563 68.738C49.206 68.7564 49.054 68.7282 48.9216 68.6582L45.9424 67.0821C45.6529 66.9289 45.305 66.9246 45.0117 67.0703L41.925 68.6036C41.6143 68.758 41.2371 68.636 41.0819 68.3402C41.0239 68.2298 41.0028 68.1052 41.0208 67.9831L41.2675 66.3153C41.3876 65.5037 41.6561 64.728 42.2793 64.4159L44.347 63.5219Z" stroke="#E6860D" stroke-width="0.632184"/>
</g>
<g style="mix-blend-mode:luminosity" clip-path="url(#clip3_58_1136)">
<path fill-rule="evenodd" clip-rule="evenodd" d="M103.935 11.3197L102.612 13.805C102.536 13.9486 102.389 14.0469 102.221 14.0674L99.5951 14.3861C99.4215 14.4072 99.263 14.4908 99.1526 14.6196C98.9152 14.8965 98.9597 15.3034 99.2519 15.5284L100.014 16.324C100.382 16.6077 101.112 16.9366 101.582 16.8731L103.531 16.5985C103.542 16.5971 103.581 16.5899 103.638 16.5795C103.894 16.5329 104.508 16.421 104.529 16.4613C104.557 16.5125 103.966 16.7573 103.701 16.8673C103.637 16.8938 103.592 16.9125 103.579 16.9188L102.058 17.5594C101.504 17.8261 101.297 18.473 101.208 19.0557L101.028 20.247C101.008 20.3725 101.031 20.5006 101.092 20.6135C101.254 20.9154 101.645 21.0351 101.963 20.881L104.227 19.7857C104.387 19.7082 104.577 19.7105 104.735 19.792L106.92 20.9178C107.052 20.9857 107.202 21.0127 107.351 20.995C107.743 20.9484 108.021 20.6092 107.972 20.2374L107.628 17.6408C107.614 17.5308 107.654 17.4207 107.738 17.343L109.806 15.4197C109.911 15.3219 109.978 15.1931 109.995 15.0545C110.038 14.7179 109.784 14.4125 109.429 14.3723L106.813 14.0762C106.584 14.0503 106.384 13.9166 106.282 13.7208L105.033 11.3241C104.974 11.211 104.878 11.1192 104.759 11.0624C104.457 10.9178 104.088 11.033 103.935 11.3197Z" fill="#FFECBF"/>
<mask id="mask3_58_1136" style="mask-type:alpha" maskUnits="userSpaceOnUse" x="98" y="10" width="13" height="12">
<path d="M104.389 16.3495C104.389 16.3495 104.389 16.3498 104.388 16.3504C104.389 16.3498 104.389 16.3495 104.389 16.3495ZM103.654 17.087L103.659 17.0851L103.663 17.083C103.663 17.083 103.663 17.083 103.663 17.0829C103.664 17.0824 103.668 17.0806 103.677 17.0768C103.687 17.0727 103.7 17.0674 103.715 17.0609C103.733 17.0536 103.753 17.0453 103.775 17.0359C103.794 17.0283 103.814 17.0201 103.835 17.0111C103.93 16.9716 104.052 16.9208 104.17 16.8688C104.288 16.8173 104.407 16.7628 104.495 16.7161C104.538 16.6934 104.582 16.6687 104.615 16.6442C104.631 16.6331 104.655 16.614 104.676 16.5879C104.687 16.574 104.755 16.4843 104.698 16.3767C104.669 16.3229 104.623 16.2991 104.603 16.2903C104.58 16.2802 104.56 16.2759 104.547 16.2738C104.522 16.2696 104.498 16.269 104.48 16.2691C104.442 16.2694 104.396 16.2733 104.349 16.2784C104.253 16.289 104.13 16.3077 104.01 16.3275C103.889 16.3475 103.767 16.3693 103.673 16.3864C103.647 16.3912 103.624 16.3953 103.603 16.3991C103.586 16.4023 103.569 16.4052 103.555 16.4079C103.539 16.4107 103.527 16.4129 103.518 16.4145C103.511 16.4158 103.507 16.4164 103.505 16.4166C103.505 16.4167 103.505 16.4167 103.505 16.4167L103.504 16.4169L101.556 16.6912L101.556 16.6913C101.369 16.7163 101.107 16.6637 100.83 16.558C100.563 16.4562 100.311 16.3156 100.143 16.1887L99.3911 15.4036L99.3813 15.3933L99.37 15.3847C99.1603 15.2232 99.1295 14.9338 99.2986 14.7366C99.3778 14.6442 99.4923 14.5834 99.6188 14.5681L102.244 14.2493C102.473 14.2215 102.675 14.0874 102.781 13.8889L104.104 11.4036C104.208 11.2078 104.463 11.1256 104.675 11.2268C104.758 11.2662 104.823 11.3295 104.864 11.4066L106.113 13.8033C106.244 14.0553 106.5 14.2254 106.791 14.2583L109.407 14.5544C109.661 14.5832 109.836 14.8 109.807 15.0321C109.795 15.1284 109.748 15.2185 109.674 15.2873L107.606 17.2107C107.48 17.3281 107.418 17.4957 107.44 17.664L107.784 20.2606C107.819 20.5281 107.619 20.7781 107.328 20.8127C107.218 20.8259 107.106 20.8058 107.009 20.7558L104.824 19.63C104.612 19.5205 104.357 19.5174 104.142 19.6215L101.878 20.7168C101.65 20.8271 101.374 20.7399 101.26 20.5286C101.217 20.4497 101.202 20.3607 101.215 20.2736L101.396 19.0822C101.484 18.5025 101.681 17.9484 102.138 17.7255L103.654 17.087Z" fill="#FFECBF" stroke="#E6860D" stroke-width="0.632184"/>
</mask>
<g mask="url(#mask3_58_1136)">
<path fill-rule="evenodd" clip-rule="evenodd" d="M102.992 14.5372L104.315 12.0519C104.468 11.7652 104.837 11.65 105.139 11.7946C105.258 11.8514 105.354 11.9432 105.413 12.0562L106.662 14.453C106.764 14.6488 106.964 14.7825 107.193 14.8084L109.809 15.1044C110.164 15.1446 110.418 15.4501 110.375 15.7866C110.358 15.9252 110.291 16.0541 110.186 16.1519L108.118 18.0752C108.035 18.1529 107.994 18.263 108.009 18.373L108.352 20.9697C108.401 21.3414 108.123 21.6805 107.731 21.7272C107.582 21.7448 107.432 21.7178 107.3 21.65L105.115 20.5242C104.957 20.4427 104.767 20.4404 104.607 20.5179L102.343 21.6132C102.025 21.7674 101.635 21.6475 101.472 21.3457C101.411 21.2328 101.389 21.1047 101.408 20.9792L101.589 19.7878C101.677 19.2052 101.884 18.5583 102.438 18.2915L103.959 17.651C104.026 17.6187 104.547 17.3943 104.513 17.3307C104.487 17.2814 103.969 17.3229 103.911 17.3307L101.963 17.6052C101.493 17.6687 100.763 17.3399 100.394 17.0562L99.632 16.2605C99.3398 16.0356 99.2953 15.6287 99.5327 15.3518C99.6431 15.223 99.8016 15.1394 99.9753 15.1183L102.601 14.7995C102.769 14.7791 102.916 14.6808 102.992 14.5372Z" fill="#FFC438"/>
</g>
<path d="M104.389 16.3495C104.389 16.3495 104.389 16.3498 104.388 16.3504C104.389 16.3498 104.389 16.3495 104.389 16.3495ZM103.654 17.0869L103.659 17.0851L103.663 17.083C103.663 17.083 103.663 17.0829 103.663 17.0829C103.664 17.0824 103.668 17.0806 103.677 17.0768C103.687 17.0727 103.7 17.0674 103.715 17.0609C103.733 17.0536 103.753 17.0453 103.775 17.0359C103.794 17.0283 103.814 17.0201 103.835 17.0111C103.93 16.9716 104.052 16.9208 104.17 16.8688C104.288 16.8173 104.407 16.7628 104.495 16.7161C104.538 16.6934 104.582 16.6687 104.615 16.6442C104.631 16.6331 104.655 16.614 104.676 16.5879C104.687 16.574 104.755 16.4843 104.698 16.3767C104.669 16.3229 104.623 16.2991 104.603 16.2903C104.58 16.2802 104.56 16.2759 104.547 16.2738C104.522 16.2696 104.498 16.269 104.48 16.2691C104.442 16.2694 104.396 16.2733 104.349 16.2784C104.253 16.289 104.13 16.3077 104.01 16.3275C103.889 16.3475 103.767 16.3693 103.673 16.3864C103.647 16.3912 103.624 16.3953 103.603 16.3991C103.586 16.4023 103.569 16.4052 103.555 16.4079C103.539 16.4107 103.527 16.4129 103.518 16.4145C103.511 16.4158 103.507 16.4164 103.505 16.4166C103.505 16.4167 103.505 16.4167 103.505 16.4167L103.504 16.4169L101.556 16.6912L101.556 16.6913C101.369 16.7163 101.107 16.6637 100.83 16.558C100.563 16.4562 100.311 16.3156 100.143 16.1887L99.3911 15.4036L99.3813 15.3934L99.37 15.3847C99.1603 15.2233 99.1295 14.9338 99.2986 14.7366C99.3778 14.6442 99.4923 14.5834 99.6188 14.5681L102.244 14.2493C102.473 14.2215 102.675 14.0874 102.781 13.8889L104.104 11.4036C104.208 11.2078 104.463 11.1256 104.675 11.2268C104.758 11.2662 104.823 11.3295 104.864 11.4066L106.113 13.8033C106.244 14.0553 106.5 14.2254 106.791 14.2583L109.407 14.5544C109.661 14.5832 109.836 14.8 109.807 15.0321C109.795 15.1284 109.748 15.2185 109.674 15.2873L107.606 17.2107C107.48 17.3281 107.418 17.4957 107.44 17.664L107.784 20.2606C107.819 20.5281 107.619 20.7781 107.328 20.8127C107.218 20.8259 107.106 20.8058 107.009 20.7558L104.824 19.6299C104.612 19.5205 104.357 19.5174 104.142 19.6215L101.878 20.7168C101.65 20.8271 101.374 20.7399 101.26 20.5286C101.217 20.4497 101.202 20.3607 101.215 20.2736L101.396 19.0822C101.484 18.5025 101.681 17.9484 102.138 17.7255L103.654 17.0869Z" stroke="#E6860D" stroke-width="0.632184"/>
</g>
<g style="mix-blend-mode:luminosity" clip-path="url(#clip4_58_1136)">
<path fill-rule="evenodd" clip-rule="evenodd" d="M155.935 104.32L154.612 106.805C154.536 106.949 154.389 107.047 154.221 107.067L151.595 107.386C151.421 107.407 151.263 107.491 151.153 107.62C150.915 107.897 150.96 108.303 151.252 108.528L152.014 109.324C152.382 109.608 153.112 109.937 153.582 109.873L155.531 109.599C155.542 109.597 155.581 109.59 155.638 109.579C155.894 109.533 156.508 109.421 156.529 109.461C156.557 109.513 155.966 109.757 155.701 109.867C155.637 109.894 155.592 109.913 155.579 109.919L154.058 110.559C153.504 110.826 153.297 111.473 153.208 112.056L153.028 113.247C153.008 113.372 153.031 113.501 153.092 113.613C153.254 113.915 153.645 114.035 153.963 113.881L156.227 112.786C156.387 112.708 156.577 112.711 156.735 112.792L158.92 113.918C159.052 113.986 159.202 114.013 159.351 113.995C159.743 113.948 160.021 113.609 159.972 113.237L159.628 110.641C159.614 110.531 159.654 110.421 159.738 110.343L161.806 108.42C161.911 108.322 161.978 108.193 161.995 108.054C162.038 107.718 161.784 107.412 161.429 107.372L158.813 107.076C158.584 107.05 158.384 106.917 158.282 106.721L157.033 104.324C156.974 104.211 156.878 104.119 156.759 104.062C156.457 103.918 156.088 104.033 155.935 104.32Z" fill="#FFECBF"/>
<mask id="mask4_58_1136" style="mask-type:alpha" maskUnits="userSpaceOnUse" x="150" y="103" width="13" height="12">
<path d="M156.389 109.349C156.389 109.349 156.389 109.35 156.388 109.35C156.389 109.35 156.389 109.349 156.389 109.349ZM155.654 110.087L155.659 110.085L155.663 110.083C155.663 110.083 155.663 110.083 155.663 110.083C155.664 110.082 155.668 110.081 155.677 110.077C155.687 110.073 155.7 110.067 155.715 110.061C155.733 110.054 155.753 110.045 155.775 110.036C155.794 110.028 155.814 110.02 155.835 110.011C155.93 109.972 156.052 109.921 156.17 109.869C156.288 109.817 156.407 109.763 156.495 109.716C156.538 109.693 156.582 109.669 156.615 109.644C156.631 109.633 156.655 109.614 156.676 109.588C156.687 109.574 156.755 109.484 156.698 109.377C156.669 109.323 156.623 109.299 156.603 109.29C156.58 109.28 156.56 109.276 156.547 109.274C156.522 109.27 156.498 109.269 156.48 109.269C156.442 109.269 156.396 109.273 156.349 109.278C156.253 109.289 156.13 109.308 156.01 109.328C155.889 109.348 155.767 109.369 155.673 109.386C155.647 109.391 155.624 109.395 155.603 109.399C155.586 109.402 155.569 109.405 155.555 109.408C155.539 109.411 155.527 109.413 155.518 109.415C155.511 109.416 155.507 109.416 155.505 109.417C155.505 109.417 155.505 109.417 155.505 109.417L155.504 109.417L153.556 109.691L153.556 109.691C153.369 109.716 153.107 109.664 152.83 109.558C152.563 109.456 152.311 109.316 152.143 109.189L151.391 108.404L151.381 108.393L151.37 108.385C151.16 108.223 151.13 107.934 151.299 107.737C151.378 107.644 151.492 107.583 151.619 107.568L154.244 107.249C154.473 107.221 154.675 107.087 154.781 106.889L156.104 104.404C156.208 104.208 156.463 104.126 156.675 104.227C156.758 104.266 156.823 104.33 156.864 104.407L158.113 106.803C158.244 107.055 158.5 107.225 158.791 107.258L161.407 107.554C161.661 107.583 161.836 107.8 161.807 108.032C161.795 108.128 161.748 108.218 161.674 108.287L159.606 110.211C159.48 110.328 159.418 110.496 159.44 110.664L159.784 113.261C159.819 113.528 159.619 113.778 159.328 113.813C159.218 113.826 159.106 113.806 159.009 113.756L156.824 112.63C156.612 112.521 156.357 112.517 156.142 112.622L153.878 113.717C153.65 113.827 153.374 113.74 153.26 113.529C153.217 113.45 153.202 113.361 153.215 113.274L153.396 112.082C153.484 111.503 153.681 110.948 154.138 110.726L155.654 110.087Z" fill="#FFECBF" stroke="#E6860D" stroke-width="0.632184"/>
</mask>
<g mask="url(#mask4_58_1136)">
<path fill-rule="evenodd" clip-rule="evenodd" d="M154.992 107.537L156.315 105.052C156.468 104.765 156.837 104.65 157.139 104.795C157.258 104.851 157.354 104.943 157.413 105.056L158.662 107.453C158.764 107.649 158.964 107.782 159.193 107.808L161.809 108.104C162.164 108.145 162.418 108.45 162.375 108.787C162.358 108.925 162.291 109.054 162.186 109.152L160.118 111.075C160.035 111.153 159.994 111.263 160.009 111.373L160.352 113.97C160.401 114.341 160.123 114.68 159.731 114.727C159.582 114.745 159.432 114.718 159.3 114.65L157.115 113.524C156.957 113.443 156.767 113.44 156.607 113.518L154.343 114.613C154.025 114.767 153.635 114.648 153.472 114.346C153.411 114.233 153.389 114.105 153.408 113.979L153.589 112.788C153.677 112.205 153.884 111.558 154.438 111.292L155.959 110.651C156.026 110.619 156.547 110.394 156.513 110.331C156.487 110.281 155.969 110.323 155.911 110.331L153.963 110.605C153.493 110.669 152.763 110.34 152.394 110.056L151.632 109.261C151.34 109.036 151.295 108.629 151.533 108.352C151.643 108.223 151.802 108.139 151.975 108.118L154.601 107.8C154.769 107.779 154.916 107.681 154.992 107.537Z" fill="#FFC438"/>
</g>
<path d="M156.389 109.349C156.389 109.349 156.389 109.35 156.388 109.35C156.389 109.35 156.389 109.349 156.389 109.349ZM155.654 110.087L155.659 110.085L155.663 110.083C155.663 110.083 155.663 110.083 155.663 110.083C155.664 110.082 155.668 110.081 155.677 110.077C155.687 110.073 155.7 110.067 155.715 110.061C155.733 110.054 155.753 110.045 155.775 110.036C155.794 110.028 155.814 110.02 155.835 110.011C155.93 109.972 156.052 109.921 156.17 109.869C156.288 109.817 156.407 109.763 156.495 109.716C156.538 109.693 156.582 109.669 156.615 109.644C156.631 109.633 156.655 109.614 156.676 109.588C156.687 109.574 156.755 109.484 156.698 109.377C156.669 109.323 156.623 109.299 156.603 109.29C156.58 109.28 156.56 109.276 156.547 109.274C156.522 109.27 156.498 109.269 156.48 109.269C156.442 109.269 156.396 109.273 156.349 109.278C156.253 109.289 156.13 109.308 156.01 109.328C155.889 109.348 155.767 109.369 155.673 109.386C155.647 109.391 155.624 109.395 155.603 109.399C155.586 109.402 155.569 109.405 155.555 109.408C155.539 109.411 155.527 109.413 155.518 109.415C155.511 109.416 155.507 109.416 155.505 109.417C155.505 109.417 155.505 109.417 155.505 109.417L155.504 109.417L153.556 109.691L153.556 109.691C153.369 109.716 153.107 109.664 152.83 109.558C152.563 109.456 152.311 109.316 152.143 109.189L151.391 108.404L151.381 108.393L151.37 108.385C151.16 108.223 151.13 107.934 151.299 107.737C151.378 107.644 151.492 107.583 151.619 107.568L154.244 107.249C154.473 107.221 154.675 107.087 154.781 106.889L156.104 104.404C156.208 104.208 156.463 104.126 156.675 104.227C156.758 104.266 156.823 104.33 156.864 104.407L158.113 106.803C158.244 107.055 158.5 107.225 158.791 107.258L161.407 107.554C161.661 107.583 161.836 107.8 161.807 108.032C161.795 108.128 161.748 108.218 161.674 108.287L159.606 110.211C159.48 110.328 159.418 110.496 159.44 110.664L159.784 113.261C159.819 113.528 159.619 113.778 159.328 113.813C159.218 113.826 159.106 113.806 159.009 113.756L156.824 112.63C156.612 112.521 156.357 112.517 156.142 112.622L153.878 113.717C153.65 113.827 153.374 113.74 153.26 113.529C153.217 113.45 153.202 113.361 153.215 113.274L153.396 112.082C153.484 111.503 153.681 110.948 154.138 110.726L155.654 110.087Z" stroke="#E6860D" stroke-width="0.632184"/>
</g>
<g style="mix-blend-mode:luminosity" clip-path="url(#clip5_58_1136)">
<path fill-rule="evenodd" clip-rule="evenodd" d="M32.225 143.551L30.0202 147.832C29.8928 148.08 29.6483 148.249 29.3677 148.284L24.9919 148.833C24.7024 148.87 24.4383 149.014 24.2543 149.235C23.8587 149.713 23.9328 150.413 24.4199 150.801L25.6898 152.172C26.304 152.66 27.5206 153.227 28.304 153.118L31.5519 152.645C31.5695 152.642 31.6351 152.63 31.7307 152.612C32.1568 152.531 33.1794 152.339 33.2154 152.408C33.2612 152.496 32.2771 152.918 31.8346 153.108C31.728 153.153 31.6528 153.186 31.6311 153.196L29.0962 154.3C28.1732 154.759 27.8282 155.874 27.6807 156.878L27.3792 158.93C27.3474 159.146 27.3848 159.367 27.4863 159.561C27.7574 160.081 28.4076 160.288 28.9385 160.022L32.711 158.135C32.9781 158.002 33.2952 158.006 33.5587 158.146L37.1998 160.085C37.4192 160.202 37.6705 160.249 37.9182 160.218C38.572 160.138 39.0355 159.554 38.9536 158.913L38.3808 154.44C38.3565 154.251 38.424 154.061 38.5631 153.927L42.0095 150.614C42.1848 150.445 42.296 150.223 42.3253 149.985C42.3959 149.405 41.9733 148.879 41.3814 148.809L37.0211 148.299C36.6397 148.255 36.3072 148.024 36.1371 147.687L34.0549 143.558C33.9567 143.364 33.7966 143.205 33.5986 143.108C33.0943 142.858 32.4794 143.057 32.225 143.551Z" fill="#FFECBF"/>
<mask id="mask5_58_1136" style="mask-type:alpha" maskUnits="userSpaceOnUse" x="23" y="142" width="20" height="19">
<path d="M32.9816 152.216C32.9816 152.216 32.9811 152.216 32.9797 152.217C32.9809 152.216 32.9816 152.216 32.9816 152.216ZM31.757 153.486L31.7645 153.483L31.7717 153.479C31.7717 153.479 31.7718 153.479 31.7721 153.479C31.7737 153.478 31.7805 153.475 31.7953 153.469C31.8114 153.462 31.8325 153.452 31.8585 153.441C31.8875 153.429 31.921 153.414 31.9587 153.398C31.9892 153.385 32.0225 153.371 32.0584 153.355C32.217 153.287 32.4192 153.2 32.6168 153.11C32.8127 153.021 33.0108 152.928 33.1586 152.847C33.2303 152.808 33.3026 152.766 33.3585 152.723C33.384 152.704 33.4247 152.671 33.4591 152.626C33.4774 152.602 33.592 152.448 33.4958 152.262C33.4477 152.17 33.3714 152.129 33.3381 152.114C33.3001 152.096 33.2657 152.089 33.2454 152.085C33.2037 152.078 33.1627 152.077 33.1328 152.077C33.0696 152.078 32.9928 152.084 32.9145 152.093C32.7548 152.111 32.5502 152.144 32.3498 152.178C32.1481 152.212 31.9453 152.25 31.7878 152.279C31.7442 152.287 31.7062 152.295 31.6721 152.301C31.6423 152.307 31.6156 152.312 31.5908 152.316C31.5654 152.321 31.5449 152.325 31.5295 152.328C31.5173 152.33 31.511 152.331 31.5087 152.331C31.5081 152.331 31.5078 152.331 31.5078 152.331L31.5061 152.332L28.2601 152.804L28.2592 152.804C27.9487 152.848 27.5107 152.757 27.0493 152.575C26.6053 152.399 26.1844 152.157 25.9048 151.939L24.6515 150.586L24.6352 150.568L24.6165 150.554C24.2669 150.275 24.2157 149.777 24.4974 149.437C24.6295 149.278 24.8202 149.173 25.031 149.147L29.4068 148.598C29.7889 148.55 30.1249 148.319 30.301 147.977L32.5058 143.695C32.6796 143.358 33.1056 143.217 33.4584 143.391C33.5957 143.459 33.7055 143.568 33.7725 143.7L35.8547 147.829C36.0735 148.263 36.4994 148.556 36.9842 148.613L41.3444 149.123C41.7684 149.173 42.06 149.546 42.0112 149.946C41.991 150.112 41.9137 150.267 41.7903 150.386L38.3439 153.699C38.1335 153.901 38.0299 154.19 38.0671 154.48L38.6398 158.953C38.6988 159.414 38.3654 159.845 37.8795 159.904C37.6959 159.927 37.51 159.892 37.3482 159.806L33.707 157.867C33.3532 157.678 32.928 157.673 32.5694 157.852L28.7969 159.739C28.4171 159.929 27.9561 159.779 27.7664 159.415C27.6956 159.279 27.6697 159.126 27.6917 158.976L27.9932 156.923C28.14 155.925 28.4682 154.97 29.2299 154.586L31.757 153.486Z" fill="#FFECBF" stroke="#E6860D" stroke-width="0.632184"/>
</mask>
<g mask="url(#mask5_58_1136)">
<path fill-rule="evenodd" clip-rule="evenodd" d="M30.6535 149.094L32.8583 144.812C33.1127 144.318 33.7276 144.12 34.2319 144.369C34.4299 144.467 34.59 144.625 34.6882 144.82L36.7704 148.949C36.9405 149.286 37.2731 149.516 37.6544 149.561L42.0148 150.071C42.6066 150.14 43.0293 150.666 42.9585 151.246C42.9294 151.485 42.8181 151.707 42.6428 151.875L39.1964 155.189C39.0573 155.322 38.9898 155.512 39.0141 155.702L39.5869 160.175C39.6688 160.815 39.2053 161.399 38.5515 161.48C38.3038 161.51 38.0525 161.464 37.8331 161.347L34.1919 159.407C33.9285 159.267 33.6114 159.263 33.3443 159.397L29.5718 161.284C29.0409 161.549 28.3907 161.343 28.1196 160.823C28.0181 160.628 27.9807 160.408 28.0125 160.191L28.314 158.139C28.4615 157.135 28.8065 156.021 29.7295 155.561L32.2644 154.458C32.3763 154.402 33.2456 154.016 33.1887 153.906C33.1446 153.821 32.2814 153.893 32.1852 153.906L28.9373 154.379C28.1539 154.488 26.9373 153.922 26.3231 153.433L25.0532 152.062C24.5661 151.675 24.492 150.974 24.8876 150.497C25.0716 150.275 25.3357 150.131 25.6252 150.095L30.001 149.546C30.2816 149.51 30.5261 149.341 30.6535 149.094Z" fill="#FFC438"/>
</g>
<path d="M32.9821 152.216C32.9821 152.216 32.9816 152.216 32.9802 152.217C32.9813 152.216 32.9821 152.216 32.9821 152.216ZM31.7575 153.486L31.765 153.483L31.7722 153.479C31.7722 153.479 31.7723 153.479 31.7726 153.479C31.7742 153.479 31.7809 153.475 31.7958 153.469C31.8118 153.462 31.833 153.453 31.8589 153.441C31.8879 153.429 31.9215 153.415 31.9592 153.398C31.9897 153.385 32.023 153.371 32.0588 153.356C32.2175 153.288 32.4197 153.2 32.6173 153.11C32.8132 153.022 33.0113 152.928 33.159 152.847C33.2308 152.808 33.3031 152.766 33.359 152.724C33.3845 152.704 33.4252 152.672 33.4596 152.627C33.4779 152.603 33.5925 152.448 33.4963 152.263C33.4482 152.17 33.3719 152.129 33.3386 152.114C33.3006 152.097 33.2662 152.089 33.2459 152.086C33.2042 152.078 33.1631 152.077 33.1333 152.077C33.0701 152.078 32.9933 152.085 32.9149 152.093C32.7553 152.112 32.5507 152.144 32.3503 152.178C32.1486 152.213 31.9458 152.25 31.7883 152.28C31.7447 152.288 31.7067 152.295 31.6725 152.301C31.6428 152.307 31.616 152.312 31.5913 152.317C31.5659 152.321 31.5454 152.325 31.53 152.328C31.5178 152.33 31.5115 152.331 31.5092 152.332C31.5086 152.332 31.5082 152.332 31.5082 152.332L31.5066 152.332L28.2606 152.805L28.2597 152.805C27.9492 152.848 27.5112 152.757 27.0498 152.575C26.6058 152.4 26.1849 152.158 25.9052 151.939L24.652 150.586L24.6357 150.569L24.617 150.554C24.2674 150.276 24.2161 149.777 24.4979 149.437C24.63 149.278 24.8207 149.173 25.0315 149.147L29.4073 148.598C29.7894 148.55 30.1254 148.319 30.3015 147.977L32.5063 143.696C32.6801 143.358 33.1061 143.217 33.4589 143.391C33.5962 143.459 33.706 143.568 33.7729 143.701L35.8552 147.83C36.074 148.264 36.4999 148.557 36.9847 148.613L41.345 149.123C41.7689 149.173 42.0605 149.547 42.0117 149.946C41.9916 150.112 41.9142 150.267 41.7907 150.386L38.3443 153.699C38.1339 153.902 38.0304 154.191 38.0676 154.48L38.6403 158.954C38.6993 159.414 38.3659 159.845 37.88 159.905C37.6964 159.927 37.5105 159.893 37.3487 159.807L33.7075 157.867C33.3537 157.679 32.9285 157.673 32.5699 157.853L28.7974 159.739C28.4176 159.929 27.9566 159.779 27.7668 159.415C27.696 159.279 27.6702 159.126 27.6922 158.976L27.9937 156.924C28.1405 155.925 28.4687 154.97 29.2304 154.586L31.7575 153.486Z" stroke="#E6860D" stroke-width="0.632184"/>
</g>
<g style="mix-blend-mode:luminosity" clip-path="url(#clip6_58_1136)">
<path fill-rule="evenodd" clip-rule="evenodd" d="M145.225 137.551L143.02 141.832C142.893 142.08 142.648 142.249 142.368 142.284L137.992 142.833C137.702 142.87 137.438 143.014 137.254 143.235C136.859 143.713 136.933 144.413 137.42 144.801L138.69 146.172C139.304 146.66 140.521 147.227 141.304 147.118L144.552 146.645C144.57 146.642 144.635 146.63 144.731 146.612C145.157 146.531 146.179 146.339 146.215 146.408C146.261 146.496 145.277 146.918 144.835 147.108C144.728 147.153 144.653 147.186 144.631 147.196L142.096 148.3C141.173 148.759 140.828 149.874 140.681 150.878L140.379 152.93C140.347 153.146 140.385 153.367 140.486 153.561C140.757 154.081 141.408 154.288 141.938 154.022L145.711 152.135C145.978 152.002 146.295 152.006 146.559 152.146L150.2 154.085C150.419 154.202 150.67 154.249 150.918 154.218C151.572 154.138 152.036 153.554 151.954 152.913L151.381 148.44C151.357 148.251 151.424 148.061 151.563 147.927L155.009 144.614C155.185 144.445 155.296 144.223 155.325 143.985C155.396 143.405 154.973 142.879 154.381 142.809L150.021 142.299C149.64 142.255 149.307 142.024 149.137 141.687L147.055 137.558C146.957 137.364 146.797 137.205 146.599 137.108C146.094 136.858 145.479 137.057 145.225 137.551Z" fill="#FFECBF"/>
<mask id="mask6_58_1136" style="mask-type:alpha" maskUnits="userSpaceOnUse" x="136" y="136" width="20" height="19">
<path d="M145.982 146.216C145.982 146.216 145.981 146.216 145.98 146.217C145.981 146.216 145.982 146.216 145.982 146.216ZM144.757 147.486L144.764 147.483L144.772 147.479C144.772 147.479 144.772 147.479 144.772 147.479C144.774 147.478 144.78 147.475 144.795 147.469C144.811 147.462 144.832 147.452 144.858 147.441C144.887 147.429 144.921 147.414 144.959 147.398C144.989 147.385 145.022 147.371 145.058 147.355C145.217 147.287 145.419 147.2 145.617 147.11C145.813 147.021 146.011 146.928 146.159 146.847C146.23 146.808 146.303 146.766 146.359 146.723C146.384 146.704 146.425 146.671 146.459 146.626C146.477 146.602 146.592 146.448 146.496 146.262C146.448 146.17 146.371 146.129 146.338 146.114C146.3 146.096 146.266 146.089 146.245 146.085C146.204 146.078 146.163 146.077 146.133 146.077C146.07 146.078 145.993 146.084 145.914 146.093C145.755 146.111 145.55 146.144 145.35 146.178C145.148 146.212 144.945 146.25 144.788 146.279C144.744 146.287 144.706 146.295 144.672 146.301C144.642 146.307 144.616 146.312 144.591 146.316C144.565 146.321 144.545 146.325 144.53 146.328C144.517 146.33 144.511 146.331 144.509 146.331C144.508 146.331 144.508 146.331 144.508 146.331L144.506 146.332L141.26 146.804L141.259 146.804C140.949 146.848 140.511 146.757 140.049 146.575C139.605 146.399 139.184 146.157 138.905 145.939L137.652 144.586L137.635 144.568L137.616 144.554C137.267 144.275 137.216 143.777 137.497 143.437C137.629 143.278 137.82 143.173 138.031 143.147L142.407 142.598C142.789 142.55 143.125 142.319 143.301 141.977L145.506 137.695C145.68 137.358 146.106 137.217 146.458 137.391C146.596 137.459 146.706 137.568 146.772 137.7L148.855 141.829C149.074 142.263 149.499 142.556 149.984 142.613L154.344 143.123C154.768 143.173 155.06 143.546 155.011 143.946C154.991 144.112 154.914 144.267 154.79 144.386L151.344 147.699C151.133 147.901 151.03 148.19 151.067 148.48L151.64 152.953C151.699 153.414 151.365 153.845 150.88 153.904C150.696 153.927 150.51 153.892 150.348 153.806L146.707 151.867C146.353 151.678 145.928 151.673 145.569 151.852L141.797 153.739C141.417 153.929 140.956 153.779 140.766 153.415C140.696 153.279 140.67 153.126 140.692 152.976L140.993 150.923C141.14 149.925 141.468 148.97 142.23 148.586L144.757 147.486Z" fill="#FFECBF" stroke="#E6860D" stroke-width="0.632184"/>
</mask>
<g mask="url(#mask6_58_1136)">
<path fill-rule="evenodd" clip-rule="evenodd" d="M143.654 143.094L145.858 138.812C146.113 138.318 146.728 138.12 147.232 138.369C147.43 138.467 147.59 138.625 147.688 138.82L149.77 142.949C149.941 143.286 150.273 143.516 150.654 143.561L155.015 144.071C155.607 144.14 156.029 144.666 155.958 145.246C155.929 145.485 155.818 145.707 155.643 145.875L152.196 149.189C152.057 149.322 151.99 149.512 152.014 149.702L152.587 154.175C152.669 154.815 152.205 155.399 151.552 155.48C151.304 155.51 151.053 155.464 150.833 155.347L147.192 153.407C146.929 153.267 146.611 153.263 146.344 153.397L142.572 155.284C142.041 155.549 141.391 155.343 141.12 154.823C141.018 154.628 140.981 154.408 141.012 154.191L141.314 152.139C141.461 151.135 141.807 150.021 142.729 149.561L145.264 148.458C145.376 148.402 146.246 148.016 146.189 147.906C146.145 147.821 145.281 147.893 145.185 147.906L141.937 148.379C141.154 148.488 139.937 147.922 139.323 147.433L138.053 146.062C137.566 145.675 137.492 144.974 137.888 144.497C138.072 144.275 138.336 144.131 138.625 144.095L143.001 143.546C143.282 143.51 143.526 143.341 143.654 143.094Z" fill="#FFC438"/>
</g>
<path d="M145.982 146.216C145.982 146.216 145.982 146.216 145.98 146.217C145.981 146.216 145.982 146.216 145.982 146.216ZM144.758 147.486L144.765 147.483L144.772 147.479C144.772 147.479 144.772 147.479 144.773 147.479C144.774 147.479 144.781 147.475 144.796 147.469C144.812 147.462 144.833 147.453 144.859 147.441C144.888 147.429 144.921 147.415 144.959 147.398C144.99 147.385 145.023 147.371 145.059 147.356C145.218 147.288 145.42 147.2 145.617 147.11C145.813 147.022 146.011 146.928 146.159 146.847C146.231 146.808 146.303 146.766 146.359 146.724C146.384 146.704 146.425 146.672 146.46 146.627C146.478 146.603 146.592 146.448 146.496 146.263C146.448 146.17 146.372 146.129 146.339 146.114C146.301 146.097 146.266 146.089 146.246 146.086C146.204 146.078 146.163 146.077 146.133 146.077C146.07 146.078 145.993 146.085 145.915 146.093C145.755 146.112 145.551 146.144 145.35 146.178C145.149 146.213 144.946 146.25 144.788 146.28C144.745 146.288 144.707 146.295 144.673 146.301C144.643 146.307 144.616 146.312 144.591 146.317C144.566 146.321 144.545 146.325 144.53 146.328C144.518 146.33 144.511 146.331 144.509 146.332C144.509 146.332 144.508 146.332 144.508 146.332L144.507 146.332L141.261 146.805L141.26 146.805C140.949 146.848 140.511 146.757 140.05 146.575C139.606 146.4 139.185 146.158 138.905 145.939L137.652 144.586L137.636 144.569L137.617 144.554C137.267 144.276 137.216 143.777 137.498 143.437C137.63 143.278 137.821 143.173 138.032 143.147L142.407 142.598C142.789 142.55 143.125 142.319 143.302 141.977L145.506 137.696C145.68 137.358 146.106 137.217 146.459 137.391C146.596 137.459 146.706 137.568 146.773 137.701L148.855 141.83C149.074 142.264 149.5 142.557 149.985 142.613L154.345 143.123C154.769 143.173 155.061 143.547 155.012 143.946C154.992 144.112 154.914 144.267 154.791 144.386L151.344 147.699C151.134 147.902 151.03 148.191 151.068 148.48L151.64 152.954C151.699 153.414 151.366 153.845 150.88 153.905C150.696 153.927 150.51 153.893 150.349 153.807L146.708 151.867C146.354 151.679 145.928 151.673 145.57 151.853L141.797 153.739C141.418 153.929 140.957 153.779 140.767 153.415C140.696 153.279 140.67 153.126 140.692 152.976L140.994 150.924C141.14 149.925 141.469 148.97 142.23 148.586L144.758 147.486Z" stroke="#E6860D" stroke-width="0.632184"/>
</g>
<g style="mix-blend-mode:luminosity" clip-path="url(#clip7_58_1136)">
<path fill-rule="evenodd" clip-rule="evenodd" d="M132.73 77.4476L130.926 80.927C130.821 81.1281 130.621 81.2657 130.392 81.2943L126.812 81.7405C126.575 81.7701 126.359 81.8871 126.208 82.0674C125.884 82.4551 125.945 83.0248 126.344 83.3397L127.383 84.4536C127.885 84.8508 128.881 85.3112 129.521 85.2223L132.179 84.838C132.193 84.836 132.247 84.8259 132.325 84.8113C132.674 84.746 133.51 84.5894 133.54 84.6458C133.577 84.7176 132.772 85.0602 132.41 85.2143C132.323 85.2514 132.261 85.2776 132.244 85.2863L130.17 86.1831C129.414 86.5566 129.132 87.4622 129.011 88.2779L128.765 89.9458C128.739 90.1215 128.769 90.3008 128.852 90.4589C129.074 90.8816 129.606 91.0492 130.041 90.8334L133.127 89.3C133.346 89.1915 133.605 89.1948 133.821 89.3088L136.8 90.8849C136.979 90.98 137.185 91.0177 137.388 90.9929C137.923 90.9277 138.302 90.4529 138.235 89.9324L137.766 86.2972C137.746 86.1432 137.801 85.989 137.915 85.8803L140.735 83.1876C140.878 83.0507 140.969 82.8703 140.993 82.6762C141.051 82.205 140.705 81.7774 140.221 81.7212L136.654 81.3067C136.342 81.2704 136.07 81.0833 135.93 80.8092L134.227 77.4537C134.146 77.2954 134.015 77.1669 133.853 77.0874C133.441 76.8849 132.938 77.0462 132.73 77.4476Z" fill="#FFECBF"/>
<mask id="mask7_58_1136" style="mask-type:alpha" maskUnits="userSpaceOnUse" x="125" y="76" width="17" height="16">
<path d="M133.349 84.4894C133.349 84.4894 133.348 84.4898 133.347 84.4907C133.348 84.4899 133.349 84.4894 133.349 84.4894ZM132.347 85.5219L132.353 85.5192L132.359 85.5163C132.359 85.5163 132.359 85.5163 132.359 85.5162C132.36 85.5156 132.366 85.513 132.378 85.5077C132.391 85.5019 132.408 85.4945 132.43 85.4854C132.453 85.4752 132.481 85.4636 132.512 85.4504C132.537 85.4398 132.564 85.4282 132.593 85.4157C132.723 85.3603 132.889 85.2892 133.05 85.2165C133.21 85.1443 133.373 85.0681 133.493 85.0027C133.552 84.9709 133.611 84.9364 133.657 84.9021C133.678 84.8864 133.711 84.8597 133.739 84.8232C133.754 84.8037 133.848 84.6781 133.769 84.5275C133.73 84.4522 133.668 84.4189 133.64 84.4066C133.609 84.3925 133.581 84.3864 133.564 84.3835C133.53 84.3775 133.497 84.3768 133.472 84.3769C133.421 84.3773 133.358 84.3827 133.294 84.3899C133.163 84.4047 132.996 84.4309 132.832 84.4587C132.667 84.4867 132.501 84.5172 132.372 84.5411C132.336 84.5478 132.305 84.5536 132.277 84.5588C132.253 84.5634 132.231 84.5675 132.211 84.5713C132.19 84.5751 132.173 84.5782 132.161 84.5805C132.151 84.5823 132.145 84.5831 132.144 84.5834C132.143 84.5835 132.143 84.5836 132.143 84.5836L132.141 84.5838L129.486 84.9679L129.485 84.968C129.231 85.003 128.872 84.9293 128.495 84.7813C128.132 84.6388 127.787 84.442 127.558 84.2644L126.533 83.1651L126.52 83.1508L126.504 83.1387C126.218 82.9127 126.177 82.5075 126.407 82.2314C126.515 82.102 126.671 82.0169 126.844 81.9954L130.424 81.5492C130.736 81.5102 131.011 81.3225 131.155 81.0446L132.959 77.5652C133.102 77.291 133.45 77.1761 133.739 77.3177C133.851 77.3729 133.941 77.4615 133.996 77.5694L135.699 80.9248C135.878 81.2775 136.227 81.5157 136.623 81.5618L140.191 81.9763C140.538 82.0166 140.776 82.3201 140.737 82.6451C140.72 82.7799 140.657 82.906 140.556 83.0024L137.736 85.6951C137.564 85.8595 137.479 86.0942 137.509 86.3298L137.978 89.965C138.026 90.3394 137.754 90.6894 137.356 90.738C137.206 90.7564 137.054 90.7282 136.921 90.6582L133.942 89.0821C133.653 88.9289 133.305 88.9245 133.011 89.0703L129.925 90.6036C129.614 90.758 129.237 90.636 129.082 90.3402C129.024 90.2297 129.003 90.1052 129.021 89.9831L129.267 88.3153C129.387 87.5037 129.656 86.728 130.279 86.4159L132.347 85.5219Z" fill="#FFECBF" stroke="#E6860D" stroke-width="0.632184"/>
</mask>
<g mask="url(#mask7_58_1136)">
<path fill-rule="evenodd" clip-rule="evenodd" d="M131.444 81.9521L133.248 78.4727C133.456 78.0713 133.959 77.9101 134.372 78.1125C134.534 78.192 134.665 78.3206 134.745 78.4788L136.449 81.8343C136.588 82.1084 136.86 82.2956 137.172 82.3318L140.74 82.7463C141.224 82.8026 141.57 83.2302 141.512 83.7014C141.488 83.8954 141.397 84.0758 141.253 84.2127L138.434 86.9054C138.32 87.0141 138.265 87.1683 138.284 87.3223L138.753 90.9576C138.82 91.4781 138.441 91.9528 137.906 92.0182C137.703 92.0428 137.498 92.0051 137.318 91.9101L134.339 90.3339C134.123 90.2199 133.864 90.2166 133.646 90.3252L130.559 91.8586C130.125 92.0744 129.593 91.9067 129.371 91.4841C129.288 91.326 129.257 91.1467 129.283 90.971L129.53 89.3031C129.65 88.4873 129.933 87.5817 130.688 87.2082L132.762 86.3115C132.853 86.2662 133.565 85.9522 133.518 85.8631C133.482 85.7941 132.776 85.8522 132.697 85.8631L130.04 86.2474C129.399 86.3363 128.403 85.8759 127.901 85.4788L126.862 84.3649C126.463 84.0499 126.403 83.4803 126.726 83.0926C126.877 82.9123 127.093 82.7952 127.33 82.7657L130.91 82.3195C131.14 82.2909 131.34 82.1532 131.444 81.9521Z" fill="#FFC438"/>
</g>
<path d="M133.349 84.4894C133.349 84.4894 133.348 84.4898 133.347 84.4907C133.348 84.4899 133.349 84.4894 133.349 84.4894ZM132.347 85.5219L132.353 85.5192L132.359 85.5163C132.359 85.5163 132.359 85.5163 132.359 85.5162C132.361 85.5156 132.366 85.513 132.378 85.5077C132.391 85.5019 132.409 85.4945 132.43 85.4854C132.454 85.4752 132.481 85.4636 132.512 85.4504C132.537 85.4398 132.564 85.4282 132.594 85.4157C132.723 85.3603 132.889 85.2892 133.05 85.2165C133.211 85.1443 133.373 85.0681 133.494 85.0027C133.552 84.9709 133.612 84.9364 133.657 84.902C133.678 84.8864 133.711 84.8597 133.74 84.8232C133.755 84.8037 133.848 84.6781 133.77 84.5275C133.73 84.4522 133.668 84.4189 133.641 84.4066C133.609 84.3925 133.581 84.3864 133.565 84.3835C133.531 84.3775 133.497 84.3768 133.473 84.3769C133.421 84.3773 133.358 84.3827 133.294 84.39C133.163 84.4047 132.996 84.4309 132.832 84.4587C132.667 84.4867 132.501 84.5171 132.372 84.5411C132.336 84.5478 132.305 84.5536 132.277 84.5588C132.253 84.5634 132.231 84.5675 132.211 84.5712C132.19 84.5751 132.173 84.5782 132.161 84.5805C132.151 84.5823 132.146 84.5831 132.144 84.5834C132.143 84.5835 132.143 84.5836 132.143 84.5836L132.142 84.5838L129.486 84.9679L129.485 84.968C129.231 85.003 128.873 84.9293 128.495 84.7813C128.132 84.6388 127.788 84.442 127.559 84.2644L126.533 83.1651L126.52 83.1508L126.505 83.1387C126.219 82.9127 126.177 82.5075 126.407 82.2314C126.515 82.102 126.671 82.0169 126.844 81.9954L130.424 81.5492C130.737 81.5102 131.012 81.3225 131.156 81.0446L132.96 77.5652C133.102 77.291 133.45 77.1761 133.739 77.3177C133.851 77.3729 133.941 77.4615 133.996 77.5694L135.7 80.9248C135.879 81.2775 136.227 81.5157 136.624 81.5618L140.191 81.9763C140.538 82.0166 140.777 82.3201 140.737 82.6451C140.72 82.7799 140.657 82.906 140.556 83.0024L137.736 85.6951C137.564 85.8595 137.479 86.0942 137.51 86.3298L137.978 89.965C138.027 90.3394 137.754 90.6894 137.356 90.738C137.206 90.7564 137.054 90.7282 136.922 90.6582L133.942 89.0821C133.653 88.9289 133.305 88.9246 133.012 89.0703L129.925 90.6036C129.614 90.758 129.237 90.636 129.082 90.3402C129.024 90.2298 129.003 90.1052 129.021 89.9831L129.268 88.3153C129.388 87.5037 129.656 86.728 130.279 86.4159L132.347 85.5219Z" stroke="#E6860D" stroke-width="0.632184"/>
</g>
<g style="mix-blend-mode:luminosity" clip-path="url(#clip8_58_1136)">
<path fill-rule="evenodd" clip-rule="evenodd" d="M89.225 95.5508L87.0202 99.8322C86.8928 100.08 86.6483 100.249 86.3677 100.284L81.9919 100.833C81.7024 100.87 81.4383 101.014 81.2543 101.235C80.8587 101.713 80.9328 102.413 81.4199 102.801L82.6898 104.172C83.304 104.66 84.5206 105.227 85.304 105.118L88.5519 104.645C88.5695 104.642 88.6351 104.63 88.7307 104.612C89.1568 104.531 90.1794 104.339 90.2154 104.408C90.2612 104.496 89.2771 104.918 88.8346 105.108C88.728 105.153 88.6528 105.186 88.6311 105.196L86.0962 106.3C85.1732 106.759 84.8282 107.874 84.6807 108.878L84.3792 110.93C84.3474 111.146 84.3848 111.367 84.4863 111.561C84.7574 112.081 85.4076 112.288 85.9385 112.022L89.711 110.135C89.9781 110.002 90.2952 110.006 90.5587 110.146L94.1998 112.085C94.4192 112.202 94.6705 112.249 94.9182 112.218C95.572 112.138 96.0355 111.554 95.9536 110.913L95.3808 106.44C95.3565 106.251 95.424 106.061 95.5631 105.927L99.0095 102.614C99.1848 102.445 99.296 102.223 99.3253 101.985C99.3959 101.405 98.9733 100.879 98.3814 100.809L94.0211 100.299C93.6397 100.255 93.3072 100.024 93.1371 99.6872L91.0549 95.5583C90.9567 95.3635 90.7966 95.2054 90.5986 95.1075C90.0943 94.8584 89.4794 95.0568 89.225 95.5508Z" fill="#FFECBF"/>
<mask id="mask8_58_1136" style="mask-type:alpha" maskUnits="userSpaceOnUse" x="80" y="94" width="20" height="19">
<path d="M89.9816 104.216C89.9816 104.216 89.9811 104.216 89.9797 104.217C89.9809 104.216 89.9816 104.216 89.9816 104.216ZM88.757 105.486L88.7645 105.483L88.7717 105.479C88.7717 105.479 88.7718 105.479 88.7721 105.479C88.7737 105.478 88.7805 105.475 88.7953 105.469C88.8114 105.462 88.8325 105.452 88.8585 105.441C88.8875 105.429 88.921 105.414 88.9587 105.398C88.9892 105.385 89.0225 105.371 89.0584 105.355C89.217 105.287 89.4192 105.2 89.6168 105.11C89.8127 105.021 90.0108 104.928 90.1586 104.847C90.2303 104.808 90.3026 104.766 90.3585 104.723C90.384 104.704 90.4247 104.671 90.4591 104.626C90.4774 104.602 90.592 104.448 90.4958 104.262C90.4477 104.17 90.3714 104.129 90.3381 104.114C90.3001 104.096 90.2657 104.089 90.2454 104.085C90.2037 104.078 90.1627 104.077 90.1328 104.077C90.0696 104.078 89.9928 104.084 89.9145 104.093C89.7548 104.111 89.5502 104.144 89.3498 104.178C89.1481 104.212 88.9453 104.25 88.7878 104.279C88.7442 104.287 88.7062 104.295 88.6721 104.301C88.6423 104.307 88.6156 104.312 88.5908 104.316C88.5654 104.321 88.5449 104.325 88.5295 104.328C88.5173 104.33 88.511 104.331 88.5087 104.331C88.5081 104.331 88.5078 104.331 88.5078 104.331L88.5061 104.332L85.2601 104.804L85.2592 104.804C84.9487 104.848 84.5107 104.757 84.0493 104.575C83.6053 104.399 83.1844 104.157 82.9048 103.939L81.6515 102.586L81.6352 102.568L81.6165 102.554C81.2669 102.275 81.2157 101.777 81.4974 101.437C81.6295 101.278 81.8202 101.173 82.031 101.147L86.4068 100.598C86.7889 100.55 87.1249 100.319 87.301 99.9768L89.5058 95.6954C89.6796 95.358 90.1056 95.2165 90.4584 95.3908C90.5957 95.4587 90.7055 95.5678 90.7725 95.7005L92.8547 99.8294C93.0735 100.263 93.4994 100.556 93.9842 100.613L98.3444 101.123C98.7684 101.173 99.06 101.546 99.0112 101.946C98.991 102.112 98.9137 102.267 98.7903 102.386L95.3439 105.699C95.1335 105.901 95.0299 106.19 95.0671 106.48L95.6398 110.953C95.6988 111.414 95.3654 111.845 94.8795 111.904C94.6959 111.927 94.51 111.892 94.3482 111.806L90.707 109.867C90.3532 109.678 89.928 109.673 89.5694 109.852L85.7969 111.739C85.4171 111.929 84.9561 111.779 84.7664 111.415C84.6956 111.279 84.6697 111.126 84.6917 110.976L84.9932 108.923C85.14 107.925 85.4682 106.97 86.2299 106.586L88.757 105.486Z" fill="#FFECBF" stroke="#E6860D" stroke-width="0.632184"/>
</mask>
<g mask="url(#mask8_58_1136)">
<path fill-rule="evenodd" clip-rule="evenodd" d="M87.6535 101.094L89.8583 96.8122C90.1127 96.3183 90.7276 96.1199 91.2319 96.369C91.4299 96.4668 91.59 96.625 91.6882 96.8197L93.7704 100.949C93.9405 101.286 94.2731 101.516 94.6544 101.561L99.0148 102.071C99.6066 102.14 100.029 102.666 99.9585 103.246C99.9294 103.485 99.8181 103.707 99.6428 103.875L96.1964 107.189C96.0573 107.322 95.9898 107.512 96.0141 107.702L96.5869 112.175C96.6688 112.815 96.2053 113.399 95.5515 113.48C95.3038 113.51 95.0525 113.464 94.8331 113.347L91.1919 111.407C90.9285 111.267 90.6114 111.263 90.3443 111.397L86.5718 113.284C86.0409 113.549 85.3907 113.343 85.1196 112.823C85.0181 112.628 84.9807 112.408 85.0125 112.191L85.314 110.139C85.4615 109.135 85.8065 108.021 86.7295 107.561L89.2644 106.458C89.3763 106.402 90.2456 106.016 90.1887 105.906C90.1446 105.821 89.2814 105.893 89.1852 105.906L85.9373 106.379C85.1539 106.488 83.9373 105.922 83.3231 105.433L82.0532 104.062C81.5661 103.675 81.492 102.974 81.8876 102.497C82.0716 102.275 82.3357 102.131 82.6252 102.095L87.001 101.546C87.2816 101.51 87.5261 101.341 87.6535 101.094Z" fill="#FFC438"/>
</g>
<path d="M89.9821 104.216C89.9821 104.216 89.9816 104.216 89.9802 104.217C89.9813 104.216 89.9821 104.216 89.9821 104.216ZM88.7575 105.486L88.765 105.483L88.7722 105.479C88.7722 105.479 88.7723 105.479 88.7726 105.479C88.7742 105.479 88.7809 105.475 88.7958 105.469C88.8118 105.462 88.833 105.453 88.8589 105.441C88.8879 105.429 88.9215 105.415 88.9592 105.398C88.9897 105.385 89.023 105.371 89.0588 105.356C89.2175 105.288 89.4197 105.2 89.6173 105.11C89.8132 105.022 90.0113 104.928 90.159 104.847C90.2308 104.808 90.3031 104.766 90.359 104.724C90.3845 104.704 90.4252 104.672 90.4596 104.627C90.4779 104.603 90.5925 104.448 90.4963 104.263C90.4482 104.17 90.3719 104.129 90.3386 104.114C90.3006 104.097 90.2662 104.089 90.2459 104.086C90.2042 104.078 90.1631 104.077 90.1333 104.077C90.0701 104.078 89.9933 104.085 89.9149 104.093C89.7553 104.112 89.5507 104.144 89.3503 104.178C89.1486 104.213 88.9458 104.25 88.7883 104.28C88.7447 104.288 88.7067 104.295 88.6725 104.301C88.6428 104.307 88.616 104.312 88.5913 104.317C88.5659 104.321 88.5454 104.325 88.53 104.328C88.5178 104.33 88.5115 104.331 88.5092 104.332C88.5086 104.332 88.5082 104.332 88.5082 104.332L88.5066 104.332L85.2606 104.805L85.2597 104.805C84.9492 104.848 84.5112 104.757 84.0498 104.575C83.6058 104.4 83.1849 104.158 82.9052 103.939L81.652 102.586L81.6357 102.569L81.617 102.554C81.2674 102.276 81.2161 101.777 81.4979 101.437C81.63 101.278 81.8207 101.173 82.0315 101.147L86.4073 100.598C86.7894 100.55 87.1254 100.319 87.3015 99.977L89.5063 95.6956C89.6801 95.3582 90.1061 95.2168 90.4589 95.3911C90.5962 95.4589 90.706 95.568 90.7729 95.7007L92.8552 99.8296C93.074 100.264 93.4999 100.557 93.9847 100.613L98.345 101.123C98.7689 101.173 99.0605 101.547 99.0117 101.946C98.9916 102.112 98.9142 102.267 98.7907 102.386L95.3443 105.699C95.1339 105.902 95.0304 106.191 95.0676 106.48L95.6403 110.954C95.6993 111.414 95.3659 111.845 94.88 111.905C94.6964 111.927 94.5105 111.893 94.3487 111.807L90.7075 109.867C90.3537 109.679 89.9285 109.673 89.5699 109.853L85.7974 111.739C85.4176 111.929 84.9566 111.779 84.7668 111.415C84.696 111.279 84.6702 111.126 84.6922 110.976L84.9937 108.924C85.1405 107.925 85.4687 106.97 86.2304 106.586L88.7575 105.486Z" stroke="#E6860D" stroke-width="0.632184"/>
</g>
<g style="mix-blend-mode:luminosity" clip-path="url(#clip9_58_1136)">
<path fill-rule="evenodd" clip-rule="evenodd" d="M92.935 52.3197L91.6121 54.805C91.5357 54.9486 91.389 55.0469 91.2206 55.0674L88.5951 55.3861C88.4215 55.4072 88.263 55.4908 88.1526 55.6196C87.9152 55.8965 87.9597 56.3034 88.2519 56.5284L89.0139 57.324C89.3824 57.6077 90.1124 57.9366 90.5824 57.8731L92.5311 57.5985C92.5417 57.5971 92.5811 57.5899 92.6384 57.5795C92.8941 57.5329 93.5077 57.421 93.5292 57.4613C93.5567 57.5125 92.9662 57.7573 92.7007 57.8673C92.6368 57.8938 92.5917 57.9125 92.5786 57.9188L91.0577 58.5594C90.5039 58.8261 90.2969 59.473 90.2084 60.0557L90.0275 61.247C90.0085 61.3725 90.0309 61.5006 90.0918 61.6135C90.2544 61.9154 90.6445 62.0351 90.9631 61.881L93.2266 60.7857C93.3869 60.7082 93.5771 60.7105 93.7352 60.792L95.9199 61.9178C96.0515 61.9857 96.2023 62.0127 96.3509 61.995C96.7432 61.9484 97.0213 61.6092 96.9721 61.2374L96.6285 58.6408C96.6139 58.5308 96.6544 58.4207 96.7379 58.343L98.8057 56.4197C98.9109 56.3219 98.9776 56.1931 98.9952 56.0545C99.0376 55.7179 98.784 55.4125 98.4289 55.3723L95.8127 55.0762C95.5838 55.0503 95.3843 54.9166 95.2823 54.7208L94.0329 52.3241C93.974 52.211 93.8779 52.1192 93.7592 52.0624C93.4566 51.9178 93.0876 52.033 92.935 52.3197Z" fill="#FFECBF"/>
<mask id="mask9_58_1136" style="mask-type:alpha" maskUnits="userSpaceOnUse" x="87" y="51" width="13" height="12">
<path d="M93.3891 57.3495C93.3891 57.3495 93.3888 57.3498 93.388 57.3504C93.3887 57.3498 93.3891 57.3495 93.3891 57.3495ZM92.6544 58.087L92.6588 58.0851L92.6632 58.083C92.6632 58.083 92.6632 58.083 92.6634 58.0829C92.6644 58.0824 92.6684 58.0806 92.6774 58.0768C92.687 58.0727 92.6996 58.0674 92.7152 58.0609C92.7326 58.0536 92.7527 58.0453 92.7754 58.0359C92.7937 58.0283 92.8136 58.0201 92.8352 58.0111C92.9304 57.9716 93.0517 57.9208 93.1702 57.8688C93.2878 57.8173 93.4066 57.7628 93.4953 57.7161C93.5383 57.6934 93.5817 57.6687 93.6153 57.6442C93.6305 57.6331 93.655 57.614 93.6756 57.5879C93.6866 57.574 93.7553 57.4843 93.6976 57.3767C93.6688 57.3229 93.623 57.2991 93.603 57.2903C93.5802 57.2802 93.5596 57.2759 93.5474 57.2738C93.5224 57.2696 93.4977 57.269 93.4798 57.2691C93.4419 57.2694 93.3958 57.2733 93.3488 57.2784C93.2531 57.289 93.1303 57.3077 93.01 57.3275C92.889 57.3475 92.7673 57.3693 92.6728 57.3864C92.6467 57.3912 92.6238 57.3953 92.6034 57.3991C92.5855 57.4023 92.5695 57.4052 92.5546 57.4079C92.5394 57.4107 92.5271 57.4129 92.5179 57.4145C92.5105 57.4158 92.5067 57.4164 92.5054 57.4166C92.505 57.4167 92.5048 57.4167 92.5048 57.4167L92.5038 57.4169L90.5562 57.6912L90.5557 57.6913C90.3694 57.7163 90.1066 57.6637 89.8297 57.558C89.5633 57.4562 89.3108 57.3156 89.143 57.1887L88.3911 56.4036L88.3813 56.3933L88.37 56.3847C88.1603 56.2232 88.1295 55.9338 88.2986 55.7366C88.3778 55.6442 88.4923 55.5834 88.6188 55.5681L91.2442 55.2493C91.4735 55.2215 91.6751 55.0874 91.7808 54.8889L93.1036 52.4036C93.2079 52.2078 93.4635 52.1256 93.6752 52.2268C93.7576 52.2662 93.8235 52.3295 93.8636 52.4066L95.113 54.8033C95.2443 55.0553 95.4998 55.2254 95.7906 55.2583L98.4068 55.5544C98.6612 55.5832 98.8362 55.8 98.8069 56.0321C98.7947 56.1284 98.7484 56.2185 98.6743 56.2873L96.6065 58.2107C96.4802 58.3281 96.4181 58.4957 96.4404 58.664L96.784 61.2606C96.8194 61.5281 96.6194 61.7781 96.3278 61.8127C96.2177 61.8259 96.1061 61.8058 96.0091 61.7558L93.8244 60.63C93.6121 60.5205 93.3569 60.5174 93.1418 60.6215L90.8783 61.7168C90.6504 61.8271 90.3738 61.7399 90.26 61.5286C90.2175 61.4497 90.2019 61.3607 90.2152 61.2736L90.3961 60.0822C90.4841 59.5025 90.6811 58.9484 91.1381 58.7255L92.6544 58.087Z" fill="#FFECBF" stroke="#E6860D" stroke-width="0.632184"/>
</mask>
<g mask="url(#mask9_58_1136)">
<path fill-rule="evenodd" clip-rule="evenodd" d="M91.9923 55.5372L93.3151 53.0519C93.4677 52.7652 93.8367 52.65 94.1393 52.7946C94.2581 52.8514 94.3541 52.9432 94.4131 53.0562L95.6624 55.453C95.7645 55.6488 95.964 55.7825 96.1928 55.8084L98.809 56.1044C99.1641 56.1446 99.4177 56.4501 99.3752 56.7866C99.3578 56.9252 99.291 57.0541 99.1859 57.1519L97.118 59.0752C97.0345 59.1529 96.9941 59.263 97.0086 59.373L97.3523 61.9697C97.4015 62.3414 97.1233 62.6805 96.7311 62.7272C96.5824 62.7448 96.4317 62.7178 96.3 62.65L94.1153 61.5242C93.9573 61.4427 93.767 61.4404 93.6067 61.5179L91.3432 62.6132C91.0247 62.7674 90.6346 62.6475 90.4719 62.3457C90.411 62.2328 90.3886 62.1047 90.4076 61.9792L90.5886 60.7878C90.677 60.2052 90.884 59.5583 91.4378 59.2915L92.9588 58.651C93.0259 58.6187 93.5475 58.3943 93.5134 58.3307C93.4869 58.2814 92.969 58.3229 92.9112 58.3307L90.9625 58.6052C90.4925 58.6687 89.7625 58.3399 89.394 58.0562L88.632 57.2605C88.3398 57.0356 88.2953 56.6287 88.5327 56.3518C88.6431 56.223 88.8016 56.1394 88.9753 56.1183L91.6007 55.7995C91.7691 55.7791 91.9158 55.6808 91.9923 55.5372Z" fill="#FFC438"/>
</g>
<path d="M93.3891 57.3495C93.3891 57.3495 93.3888 57.3498 93.388 57.3504C93.3887 57.3498 93.3891 57.3495 93.3891 57.3495ZM92.6544 58.0869L92.6588 58.0851L92.6632 58.083C92.6632 58.083 92.6632 58.0829 92.6634 58.0829C92.6644 58.0824 92.6684 58.0806 92.6774 58.0768C92.687 58.0727 92.6996 58.0674 92.7152 58.0609C92.7326 58.0536 92.7527 58.0453 92.7754 58.0359C92.7937 58.0283 92.8136 58.0201 92.8352 58.0111C92.9304 57.9716 93.0517 57.9208 93.1702 57.8688C93.2878 57.8173 93.4066 57.7628 93.4953 57.7161C93.5383 57.6934 93.5817 57.6687 93.6153 57.6442C93.6305 57.6331 93.655 57.614 93.6756 57.5879C93.6866 57.574 93.7553 57.4843 93.6976 57.3767C93.6688 57.3229 93.623 57.2991 93.603 57.2903C93.5802 57.2802 93.5596 57.2759 93.5474 57.2738C93.5224 57.2696 93.4977 57.269 93.4798 57.2691C93.4419 57.2694 93.3958 57.2733 93.3488 57.2784C93.2531 57.289 93.1303 57.3077 93.01 57.3275C92.889 57.3475 92.7673 57.3693 92.6728 57.3864C92.6467 57.3912 92.6238 57.3953 92.6034 57.3991C92.5855 57.4023 92.5695 57.4052 92.5546 57.4079C92.5394 57.4107 92.5271 57.4129 92.5179 57.4145C92.5105 57.4158 92.5068 57.4164 92.5054 57.4166C92.505 57.4167 92.5048 57.4167 92.5048 57.4167L92.5038 57.4169L90.5562 57.6912L90.5557 57.6913C90.3694 57.7163 90.1066 57.6637 89.8297 57.558C89.5633 57.4562 89.3108 57.3156 89.143 57.1887L88.3911 56.4036L88.3813 56.3934L88.37 56.3847C88.1603 56.2233 88.1295 55.9338 88.2986 55.7366C88.3778 55.6442 88.4923 55.5834 88.6188 55.5681L91.2442 55.2493C91.4735 55.2215 91.6751 55.0874 91.7808 54.8889L93.1036 52.4036C93.2079 52.2078 93.4635 52.1256 93.6752 52.2268C93.7576 52.2662 93.8235 52.3295 93.8636 52.4066L95.1129 54.8033C95.2443 55.0553 95.4998 55.2254 95.7906 55.2583L98.4069 55.5544C98.6612 55.5832 98.8362 55.8 98.8069 56.0321C98.7948 56.1284 98.7483 56.2185 98.6743 56.2873L96.6065 58.2107C96.4802 58.3281 96.4181 58.4957 96.4404 58.664L96.784 61.2606C96.8194 61.5281 96.6194 61.7781 96.3278 61.8127C96.2177 61.8259 96.1061 61.8058 96.0091 61.7558L93.8244 60.6299C93.6121 60.5205 93.3569 60.5174 93.1418 60.6215L90.8783 61.7168C90.6504 61.8271 90.3738 61.7399 90.26 61.5286C90.2175 61.4497 90.2019 61.3607 90.2152 61.2736L90.3961 60.0822C90.4841 59.5025 90.6811 58.9484 91.1381 58.7255L92.6544 58.0869Z" stroke="#E6860D" stroke-width="0.632184"/>
</g>
<g style="mix-blend-mode:luminosity" clip-path="url(#clip10_58_1136)">
<path fill-rule="evenodd" clip-rule="evenodd" d="M100.935 143.32L99.6121 145.805C99.5357 145.949 99.389 146.047 99.2206 146.067L96.5951 146.386C96.4215 146.407 96.263 146.491 96.1526 146.62C95.9152 146.897 95.9597 147.303 96.2519 147.528L97.0139 148.324C97.3824 148.608 98.1124 148.937 98.5824 148.873L100.531 148.599C100.542 148.597 100.581 148.59 100.638 148.579C100.894 148.533 101.508 148.421 101.529 148.461C101.557 148.513 100.966 148.757 100.701 148.867C100.637 148.894 100.592 148.913 100.579 148.919L99.0577 149.559C98.5039 149.826 98.2969 150.473 98.2084 151.056L98.0275 152.247C98.0085 152.372 98.0309 152.501 98.0918 152.613C98.2544 152.915 98.6445 153.035 98.9631 152.881L101.227 151.786C101.387 151.708 101.577 151.711 101.735 151.792L103.92 152.918C104.052 152.986 104.202 153.013 104.351 152.995C104.743 152.948 105.021 152.609 104.972 152.237L104.628 149.641C104.614 149.531 104.654 149.421 104.738 149.343L106.806 147.42C106.911 147.322 106.978 147.193 106.995 147.054C107.038 146.718 106.784 146.412 106.429 146.372L103.813 146.076C103.584 146.05 103.384 145.917 103.282 145.721L102.033 143.324C101.974 143.211 101.878 143.119 101.759 143.062C101.457 142.918 101.088 143.033 100.935 143.32Z" fill="#FFECBF"/>
<mask id="mask10_58_1136" style="mask-type:alpha" maskUnits="userSpaceOnUse" x="95" y="142" width="13" height="12">
<path d="M101.389 148.349C101.389 148.349 101.389 148.35 101.388 148.35C101.389 148.35 101.389 148.349 101.389 148.349ZM100.654 149.087L100.659 149.085L100.663 149.083C100.663 149.083 100.663 149.083 100.663 149.083C100.664 149.082 100.668 149.081 100.677 149.077C100.687 149.073 100.7 149.067 100.715 149.061C100.733 149.054 100.753 149.045 100.775 149.036C100.794 149.028 100.814 149.02 100.835 149.011C100.93 148.972 101.052 148.921 101.17 148.869C101.288 148.817 101.407 148.763 101.495 148.716C101.538 148.693 101.582 148.669 101.615 148.644C101.631 148.633 101.655 148.614 101.676 148.588C101.687 148.574 101.755 148.484 101.698 148.377C101.669 148.323 101.623 148.299 101.603 148.29C101.58 148.28 101.56 148.276 101.547 148.274C101.522 148.27 101.498 148.269 101.48 148.269C101.442 148.269 101.396 148.273 101.349 148.278C101.253 148.289 101.13 148.308 101.01 148.328C100.889 148.348 100.767 148.369 100.673 148.386C100.647 148.391 100.624 148.395 100.603 148.399C100.586 148.402 100.569 148.405 100.555 148.408C100.539 148.411 100.527 148.413 100.518 148.415C100.511 148.416 100.507 148.416 100.505 148.417C100.505 148.417 100.505 148.417 100.505 148.417L100.504 148.417L98.5562 148.691L98.5557 148.691C98.3694 148.716 98.1066 148.664 97.8297 148.558C97.5633 148.456 97.3108 148.316 97.143 148.189L96.3911 147.404L96.3813 147.393L96.37 147.385C96.1603 147.223 96.1295 146.934 96.2986 146.737C96.3778 146.644 96.4923 146.583 96.6188 146.568L99.2442 146.249C99.4735 146.221 99.6751 146.087 99.7808 145.889L101.104 143.404C101.208 143.208 101.463 143.126 101.675 143.227C101.758 143.266 101.823 143.33 101.864 143.407L103.113 145.803C103.244 146.055 103.5 146.225 103.791 146.258L106.407 146.554C106.661 146.583 106.836 146.8 106.807 147.032C106.795 147.128 106.748 147.218 106.674 147.287L104.606 149.211C104.48 149.328 104.418 149.496 104.44 149.664L104.784 152.261C104.819 152.528 104.619 152.778 104.328 152.813C104.218 152.826 104.106 152.806 104.009 152.756L101.824 151.63C101.612 151.521 101.357 151.517 101.142 151.622L98.8783 152.717C98.6504 152.827 98.3738 152.74 98.26 152.529C98.2175 152.45 98.2019 152.361 98.2152 152.274L98.3961 151.082C98.4841 150.503 98.6811 149.948 99.1381 149.726L100.654 149.087Z" fill="#FFECBF" stroke="#E6860D" stroke-width="0.632184"/>
</mask>
<g mask="url(#mask10_58_1136)">
<path fill-rule="evenodd" clip-rule="evenodd" d="M99.9923 146.537L101.315 144.052C101.468 143.765 101.837 143.65 102.139 143.795C102.258 143.851 102.354 143.943 102.413 144.056L103.662 146.453C103.764 146.649 103.964 146.782 104.193 146.808L106.809 147.104C107.164 147.145 107.418 147.45 107.375 147.787C107.358 147.925 107.291 148.054 107.186 148.152L105.118 150.075C105.035 150.153 104.994 150.263 105.009 150.373L105.352 152.97C105.401 153.341 105.123 153.68 104.731 153.727C104.582 153.745 104.432 153.718 104.3 153.65L102.115 152.524C101.957 152.443 101.767 152.44 101.607 152.518L99.3432 153.613C99.0247 153.767 98.6346 153.648 98.4719 153.346C98.411 153.233 98.3886 153.105 98.4076 152.979L98.5886 151.788C98.677 151.205 98.884 150.558 99.4378 150.292L100.959 149.651C101.026 149.619 101.547 149.394 101.513 149.331C101.487 149.281 100.969 149.323 100.911 149.331L98.9625 149.605C98.4925 149.669 97.7625 149.34 97.394 149.056L96.632 148.261C96.3398 148.036 96.2953 147.629 96.5327 147.352C96.6431 147.223 96.8016 147.139 96.9753 147.118L99.6007 146.8C99.7691 146.779 99.9158 146.681 99.9923 146.537Z" fill="#FFC438"/>
</g>
<path d="M101.389 148.349C101.389 148.349 101.389 148.35 101.388 148.35C101.389 148.35 101.389 148.349 101.389 148.349ZM100.654 149.087L100.659 149.085L100.663 149.083C100.663 149.083 100.663 149.083 100.663 149.083C100.664 149.082 100.668 149.081 100.677 149.077C100.687 149.073 100.7 149.067 100.715 149.061C100.733 149.054 100.753 149.045 100.775 149.036C100.794 149.028 100.814 149.02 100.835 149.011C100.93 148.972 101.052 148.921 101.17 148.869C101.288 148.817 101.407 148.763 101.495 148.716C101.538 148.693 101.582 148.669 101.615 148.644C101.631 148.633 101.655 148.614 101.676 148.588C101.687 148.574 101.755 148.484 101.698 148.377C101.669 148.323 101.623 148.299 101.603 148.29C101.58 148.28 101.56 148.276 101.547 148.274C101.522 148.27 101.498 148.269 101.48 148.269C101.442 148.269 101.396 148.273 101.349 148.278C101.253 148.289 101.13 148.308 101.01 148.328C100.889 148.348 100.767 148.369 100.673 148.386C100.647 148.391 100.624 148.395 100.603 148.399C100.586 148.402 100.569 148.405 100.555 148.408C100.539 148.411 100.527 148.413 100.518 148.415C100.511 148.416 100.507 148.416 100.505 148.417C100.505 148.417 100.505 148.417 100.505 148.417L100.504 148.417L98.5562 148.691L98.5557 148.691C98.3694 148.716 98.1066 148.664 97.8297 148.558C97.5633 148.456 97.3108 148.316 97.143 148.189L96.3911 147.404L96.3813 147.393L96.37 147.385C96.1603 147.223 96.1295 146.934 96.2986 146.737C96.3778 146.644 96.4923 146.583 96.6188 146.568L99.2442 146.249C99.4735 146.221 99.6751 146.087 99.7808 145.889L101.104 143.404C101.208 143.208 101.463 143.126 101.675 143.227C101.758 143.266 101.823 143.33 101.864 143.407L103.113 145.803C103.244 146.055 103.5 146.225 103.791 146.258L106.407 146.554C106.661 146.583 106.836 146.8 106.807 147.032C106.795 147.128 106.748 147.218 106.674 147.287L104.606 149.211C104.48 149.328 104.418 149.496 104.44 149.664L104.784 152.261C104.819 152.528 104.619 152.778 104.328 152.813C104.218 152.826 104.106 152.806 104.009 152.756L101.824 151.63C101.612 151.521 101.357 151.517 101.142 151.622L98.8783 152.717C98.6504 152.827 98.3738 152.74 98.26 152.529C98.2175 152.45 98.2019 152.361 98.2152 152.274L98.3961 151.082C98.4841 150.503 98.6811 149.948 99.1381 149.726L100.654 149.087Z" stroke="#E6860D" stroke-width="0.632184"/>
</g>
</g>
<defs>
<clipPath id="clip0_58_1136">
<rect width="18.3333" height="17.227" fill="white" transform="translate(137 18)"/>
</clipPath>
<clipPath id="clip1_58_1136">
<rect width="18.3333" height="17.227" fill="white" transform="translate(38 7)"/>
</clipPath>
<clipPath id="clip2_58_1136">
<rect width="15" height="14" fill="white" transform="translate(38 55)"/>
</clipPath>
<clipPath id="clip3_58_1136">
<rect width="11" height="10" fill="white" transform="translate(99 11)"/>
</clipPath>
<clipPath id="clip4_58_1136">
<rect width="11" height="10" fill="white" transform="translate(151 104)"/>
</clipPath>
<clipPath id="clip5_58_1136">
<rect width="18.3333" height="17.227" fill="white" transform="translate(24 143)"/>
</clipPath>
<clipPath id="clip6_58_1136">
<rect width="18.3333" height="17.227" fill="white" transform="translate(137 137)"/>
</clipPath>
<clipPath id="clip7_58_1136">
<rect width="15" height="14" fill="white" transform="translate(126 77)"/>
</clipPath>
<clipPath id="clip8_58_1136">
<rect width="18.3333" height="17.227" fill="white" transform="translate(81 95)"/>
</clipPath>
<clipPath id="clip9_58_1136">
<rect width="11" height="10" fill="white" transform="translate(88 52)"/>
</clipPath>
<clipPath id="clip10_58_1136">
<rect width="11" height="10" fill="white" transform="translate(96 143)"/>
</clipPath>
</defs>
</svg>
